solid ascii
  facet normal -1.000000e+000 0.000000e+000 0.000000e+000
    outer loop
      vertex   0.000000e+000 2.566000e+000 0.000000e+000
      vertex   0.000000e+000 0.000000e+000 0.000000e+000
      vertex   0.000000e+000 2.566000e+000 7.540000e-001
    endloop
  endfacet
  facet normal -1.000000e+000 -0.000000e+000 0.000000e+000
    outer loop
      vertex   0.000000e+000 2.566000e+000 7.540000e-001
      vertex   0.000000e+000 0.000000e+000 0.000000e+000
      vertex   0.000000e+000 0.000000e+000 7.540000e-001
    endloop
  endfacet
  facet normal 0.000000e+000 1.000000e+000 -0.000000e+000
    outer loop
      vertex   6.650000e-001 2.566000e+000 0.000000e+000
      vertex   0.000000e+000 2.566000e+000 0.000000e+000
      vertex   6.650000e-001 2.566000e+000 7.540000e-001
    endloop
  endfacet
  facet normal 0.000000e+000 1.000000e+000 -0.000000e+000
    outer loop
      vertex   6.650000e-001 2.566000e+000 7.540000e-001
      vertex   0.000000e+000 2.566000e+000 0.000000e+000
      vertex   0.000000e+000 2.566000e+000 7.540000e-001
    endloop
  endfacet
  facet normal 1.000000e+000 0.000000e+000 -0.000000e+000
    outer loop
      vertex   6.650000e-001 7.550000e-001 0.000000e+000
      vertex   6.650000e-001 2.566000e+000 0.000000e+000
      vertex   6.650000e-001 7.550000e-001 7.540000e-001
    endloop
  endfacet
  facet normal 1.000000e+000 -0.000000e+000 0.000000e+000
    outer loop
      vertex   6.650000e-001 7.550000e-001 7.540000e-001
      vertex   6.650000e-001 2.566000e+000 0.000000e+000
      vertex   6.650000e-001 2.566000e+000 7.540000e-001
    endloop
  endfacet
  facet normal 0.000000e+000 1.000000e+000 -0.000000e+000
    outer loop
      vertex   2.604000e+000 7.550000e-001 0.000000e+000
      vertex   6.650000e-001 7.550000e-001 0.000000e+000
      vertex   2.604000e+000 7.550000e-001 7.540000e-001
    endloop
  endfacet
  facet normal 0.000000e+000 1.000000e+000 -0.000000e+000
    outer loop
      vertex   2.604000e+000 7.550000e-001 7.540000e-001
      vertex   6.650000e-001 7.550000e-001 0.000000e+000
      vertex   6.650000e-001 7.550000e-001 7.540000e-001
    endloop
  endfacet
  facet normal -1.000000e+000 0.000000e+000 0.000000e+000
    outer loop
      vertex   2.604000e+000 3.156000e+000 0.000000e+000
      vertex   2.604000e+000 7.550000e-001 0.000000e+000
      vertex   2.604000e+000 3.156000e+000 7.540000e-001
    endloop
  endfacet
  facet normal -1.000000e+000 -0.000000e+000 0.000000e+000
    outer loop
      vertex   2.604000e+000 3.156000e+000 7.540000e-001
      vertex   2.604000e+000 7.550000e-001 0.000000e+000
      vertex   2.604000e+000 7.550000e-001 7.540000e-001
    endloop
  endfacet
  facet normal 0.000000e+000 1.000000e+000 -0.000000e+000
    outer loop
      vertex   3.269000e+000 3.156000e+000 0.000000e+000
      vertex   2.604000e+000 3.156000e+000 0.000000e+000
      vertex   3.269000e+000 3.156000e+000 7.540000e-001
    endloop
  endfacet
  facet normal 0.000000e+000 1.000000e+000 -0.000000e+000
    outer loop
      vertex   3.269000e+000 3.156000e+000 7.540000e-001
      vertex   2.604000e+000 3.156000e+000 0.000000e+000
      vertex   2.604000e+000 3.156000e+000 7.540000e-001
    endloop
  endfacet
  facet normal 1.000000e+000 0.000000e+000 -0.000000e+000
    outer loop
      vertex   3.269000e+000 0.000000e+000 0.000000e+000
      vertex   3.269000e+000 3.156000e+000 0.000000e+000
      vertex   3.269000e+000 0.000000e+000 7.540000e-001
    endloop
  endfacet
  facet normal 1.000000e+000 -0.000000e+000 0.000000e+000
    outer loop
      vertex   3.269000e+000 0.000000e+000 7.540000e-001
      vertex   3.269000e+000 3.156000e+000 0.000000e+000
      vertex   3.269000e+000 3.156000e+000 7.540000e-001
    endloop
  endfacet
  facet normal 0.000000e+000 -1.000000e+000 0.000000e+000
    outer loop
      vertex   0.000000e+000 0.000000e+000 0.000000e+000
      vertex   3.269000e+000 0.000000e+000 0.000000e+000
      vertex   0.000000e+000 0.000000e+000 7.540000e-001
    endloop
  endfacet
  facet normal 0.000000e+000 -1.000000e+000 0.000000e+000
    outer loop
      vertex   0.000000e+000 0.000000e+000 7.540000e-001
      vertex   3.269000e+000 0.000000e+000 0.000000e+000
      vertex   3.269000e+000 0.000000e+000 7.540000e-001
    endloop
  endfacet
  facet normal -0.000000e+000 0.000000e+000 1.000000e+000
    outer loop
      vertex   0.000000e+000 2.566000e+000 7.540000e-001
      vertex   0.000000e+000 0.000000e+000 7.540000e-001
      vertex   6.650000e-001 7.550000e-001 7.540000e-001
    endloop
  endfacet
  facet normal 0.000000e+000 0.000000e+000 1.000000e+000
    outer loop
      vertex   6.650000e-001 2.566000e+000 7.540000e-001
      vertex   0.000000e+000 2.566000e+000 7.540000e-001
      vertex   6.650000e-001 7.550000e-001 7.540000e-001
    endloop
  endfacet
  facet normal 0.000000e+000 0.000000e+000 1.000000e+000
    outer loop
      vertex   3.269000e+000 3.156000e+000 7.540000e-001
      vertex   2.604000e+000 7.550000e-001 7.540000e-001
      vertex   3.269000e+000 0.000000e+000 7.540000e-001
    endloop
  endfacet
  facet normal 0.000000e+000 0.000000e+000 1.000000e+000
    outer loop
      vertex   3.269000e+000 3.156000e+000 7.540000e-001
      vertex   2.604000e+000 3.156000e+000 7.540000e-001
      vertex   2.604000e+000 7.550000e-001 7.540000e-001
    endloop
  endfacet
  facet normal 0.000000e+000 0.000000e+000 1.000000e+000
    outer loop
      vertex   2.604000e+000 7.550000e-001 7.540000e-001
      vertex   6.650000e-001 7.550000e-001 7.540000e-001
      vertex   3.269000e+000 0.000000e+000 7.540000e-001
    endloop
  endfacet
  facet normal 0.000000e+000 0.000000e+000 1.000000e+000
    outer loop
      vertex   3.269000e+000 0.000000e+000 7.540000e-001
      vertex   6.650000e-001 7.550000e-001 7.540000e-001
      vertex   0.000000e+000 0.000000e+000 7.540000e-001
    endloop
  endfacet
  facet normal -0.000000e+000 -0.000000e+000 -1.000000e+000
    outer loop
      vertex   3.269000e+000 3.156000e+000 0.000000e+000
      vertex   3.269000e+000 0.000000e+000 0.000000e+000
      vertex   2.604000e+000 7.550000e-001 0.000000e+000
    endloop
  endfacet
  facet normal 0.000000e+000 -0.000000e+000 -1.000000e+000
    outer loop
      vertex   2.604000e+000 3.156000e+000 0.000000e+000
      vertex   3.269000e+000 3.156000e+000 0.000000e+000
      vertex   2.604000e+000 7.550000e-001 0.000000e+000
    endloop
  endfacet
  facet normal 0.000000e+000 -0.000000e+000 -1.000000e+000
    outer loop
      vertex   0.000000e+000 2.566000e+000 0.000000e+000
      vertex   6.650000e-001 7.550000e-001 0.000000e+000
      vertex   0.000000e+000 0.000000e+000 0.000000e+000
    endloop
  endfacet
  facet normal 0.000000e+000 0.000000e+000 -1.000000e+000
    outer loop
      vertex   0.000000e+000 2.566000e+000 0.000000e+000
      vertex   6.650000e-001 2.566000e+000 0.000000e+000
      vertex   6.650000e-001 7.550000e-001 0.000000e+000
    endloop
  endfacet
  facet normal 0.000000e+000 -0.000000e+000 -1.000000e+000
    outer loop
      vertex   6.650000e-001 7.550000e-001 0.000000e+000
      vertex   2.604000e+000 7.550000e-001 0.000000e+000
      vertex   0.000000e+000 0.000000e+000 0.000000e+000
    endloop
  endfacet
  facet normal 0.000000e+000 0.000000e+000 -1.000000e+000
    outer loop
      vertex   0.000000e+000 0.000000e+000 0.000000e+000
      vertex   2.604000e+000 7.550000e-001 0.000000e+000
      vertex   3.269000e+000 0.000000e+000 0.000000e+000
    endloop
  endfacet
endsolid
