solid ascii
  facet normal 9.990964e-001 -4.250093e-002 -1.052691e-017
    outer loop
      vertex   1.011126e-001 -9.136364e-003 1.891000e-001
      vertex   1.011126e-001 -9.136364e-003 0.000000e+000
      vertex   1.015232e-001 5.163669e-004 1.891000e-001
    endloop
  endfacet
  facet normal 9.905325e-001 -1.372786e-001 -3.430818e-017
    outer loop
      vertex   1.011126e-001 -9.136364e-003 1.891000e-001
      vertex   9.978625e-002 -1.870635e-002 0.000000e+000
      vertex   1.011126e-001 -9.136364e-003 0.000000e+000
    endloop
  endfacet
  facet normal 9.905325e-001 -1.372786e-001 0.000000e+000
    outer loop
      vertex   1.011126e-001 -9.136364e-003 1.891000e-001
      vertex   9.978625e-002 -1.870635e-002 1.891000e-001
      vertex   9.978625e-002 -1.870635e-002 0.000000e+000
    endloop
  endfacet
  facet normal 9.729981e-001 -2.308131e-001 0.000000e+000
    outer loop
      vertex   9.978625e-002 -1.870635e-002 0.000000e+000
      vertex   9.978625e-002 -1.870635e-002 1.891000e-001
      vertex   9.755626e-002 -2.810694e-002 0.000000e+000
    endloop
  endfacet
  facet normal 9.729981e-001 -2.308131e-001 0.000000e+000
    outer loop
      vertex   9.755626e-002 -2.810694e-002 0.000000e+000
      vertex   9.978625e-002 -1.870635e-002 1.891000e-001
      vertex   9.755626e-002 -2.810694e-002 1.891000e-001
    endloop
  endfacet
  facet normal 9.466521e-001 -3.222573e-001 -7.047086e-017
    outer loop
      vertex   9.444279e-002 -3.725298e-002 0.000000e+000
      vertex   9.755626e-002 -2.810694e-002 1.891000e-001
      vertex   9.444279e-002 -3.725298e-002 1.891000e-001
    endloop
  endfacet
  facet normal 9.117331e-001 -4.107831e-001 0.000000e+000
    outer loop
      vertex   9.047402e-002 -4.606165e-002 0.000000e+000
      vertex   9.444279e-002 -3.725298e-002 1.891000e-001
      vertex   9.047402e-002 -4.606165e-002 1.891000e-001
    endloop
  endfacet
  facet normal 8.685573e-001 -4.955888e-001 3.708993e-017
    outer loop
      vertex   8.568591e-002 -5.445318e-002 0.000000e+000
      vertex   9.047402e-002 -4.606165e-002 1.891000e-001
      vertex   8.568591e-002 -5.445318e-002 1.891000e-001
    endloop
  endfacet
  facet normal 8.175157e-001 -5.759064e-001 0.000000e+000
    outer loop
      vertex   8.012181e-002 -6.235158e-002 0.000000e+000
      vertex   8.568591e-002 -5.445318e-002 1.891000e-001
      vertex   8.012181e-002 -6.235158e-002 1.891000e-001
    endloop
  endfacet
  facet normal 7.590705e-001 -6.510084e-001 0.000000e+000
    outer loop
      vertex   7.383212e-002 -6.968531e-002 0.000000e+000
      vertex   8.012181e-002 -6.235158e-002 1.891000e-001
      vertex   7.383212e-002 -6.968531e-002 1.891000e-001
    endloop
  endfacet
  facet normal 6.937511e-001 -7.202148e-001 -5.563489e-017
    outer loop
      vertex   6.687379e-002 -7.638796e-002 0.000000e+000
      vertex   7.383212e-002 -6.968531e-002 1.891000e-001
      vertex   6.687379e-002 -7.638796e-002 1.891000e-001
    endloop
  endfacet
  facet normal 6.221490e-001 -7.828989e-001 0.000000e+000
    outer loop
      vertex   5.930985e-002 -8.239882e-002 0.000000e+000
      vertex   6.687379e-002 -7.638796e-002 1.891000e-001
      vertex   5.930985e-002 -8.239882e-002 1.891000e-001
    endloop
  endfacet
  facet normal 5.449126e-001 -8.384929e-001 1.372327e-016
    outer loop
      vertex   5.120878e-002 -8.766348e-002 0.000000e+000
      vertex   5.930985e-002 -8.239882e-002 1.891000e-001
      vertex   5.120878e-002 -8.766348e-002 1.891000e-001
    endloop
  endfacet
  facet normal 4.627413e-001 -8.864934e-001 3.338093e-017
    outer loop
      vertex   4.264396e-002 -9.213423e-002 0.000000e+000
      vertex   5.120878e-002 -8.766348e-002 1.891000e-001
      vertex   4.264396e-002 -9.213423e-002 1.891000e-001
    endloop
  endfacet
  facet normal 3.763794e-001 -9.264656e-001 0.000000e+000
    outer loop
      vertex   3.369295e-002 -9.577061e-002 0.000000e+000
      vertex   4.264396e-002 -9.213423e-002 1.891000e-001
      vertex   3.369295e-002 -9.577061e-002 1.891000e-001
    endloop
  endfacet
  facet normal 2.866090e-001 -9.580476e-001 6.305288e-017
    outer loop
      vertex   2.443681e-002 -9.853967e-002 0.000000e+000
      vertex   3.369295e-002 -9.577061e-002 1.891000e-001
      vertex   2.443681e-002 -9.853967e-002 1.891000e-001
    endloop
  endfacet
  facet normal 1.942430e-001 -9.809534e-001 2.225396e-017
    outer loop
      vertex   1.495937e-002 -1.004163e-001 0.000000e+000
      vertex   2.443681e-002 -9.853967e-002 1.891000e-001
      vertex   1.495937e-002 -1.004163e-001 1.891000e-001
    endloop
  endfacet
  facet normal 1.001179e-001 -9.949756e-001 -1.298147e-017
    outer loop
      vertex   5.346450e-003 -1.013836e-001 0.000000e+000
      vertex   1.495937e-002 -1.004163e-001 1.891000e-001
      vertex   5.346450e-003 -1.013836e-001 1.891000e-001
    endloop
  endfacet
  facet normal 5.086131e-003 -9.999871e-001 6.085066e-019
    outer loop
      vertex   -4.314886e-003 -1.014328e-001 0.000000e+000
      vertex   5.346450e-003 -1.013836e-001 1.891000e-001
      vertex   -4.314886e-003 -1.014328e-001 1.891000e-001
    endloop
  endfacet
  facet normal -8.999171e-002 -9.959425e-001 0.000000e+000
    outer loop
      vertex   -1.393714e-002 -1.005633e-001 0.000000e+000
      vertex   -4.314886e-003 -1.014328e-001 1.891000e-001
      vertex   -1.393714e-002 -1.005633e-001 1.891000e-001
    endloop
  endfacet
  facet normal -1.842546e-001 -9.828786e-001 2.410845e-017
    outer loop
      vertex   -2.343319e-002 -9.878315e-002 0.000000e+000
      vertex   -1.393714e-002 -1.005633e-001 1.891000e-001
      vertex   -2.343319e-002 -9.878315e-002 1.891000e-001
    endloop
  endfacet
  facet normal -2.768488e-001 -9.609135e-001 -3.152644e-017
    outer loop
      vertex   -3.271701e-002 -9.610838e-002 0.000000e+000
      vertex   -2.343319e-002 -9.878315e-002 1.891000e-001
      vertex   -3.271701e-002 -9.610838e-002 1.891000e-001
    endloop
  endfacet
  facet normal -3.669358e-001 -9.302462e-001 -4.079892e-017
    outer loop
      vertex   -4.170455e-002 -9.256325e-002 0.000000e+000
      vertex   -3.271701e-002 -9.610838e-002 1.891000e-001
      vertex   -4.170455e-002 -9.256325e-002 1.891000e-001
    endloop
  endfacet
  facet normal -4.536999e-001 -8.911546e-001 -3.708993e-017
    outer loop
      vertex   -5.031441e-002 -8.817984e-002 0.000000e+000
      vertex   -4.170455e-002 -9.256325e-002 1.891000e-001
      vertex   -5.031441e-002 -8.817984e-002 1.891000e-001
    endloop
  endfacet
  facet normal -5.363551e-001 -8.439924e-001 0.000000e+000
    outer loop
      vertex   -5.846861e-002 -8.299787e-002 0.000000e+000
      vertex   -5.031441e-002 -8.817984e-002 1.891000e-001
      vertex   -5.846861e-002 -8.299787e-002 1.891000e-001
    endloop
  endfacet
  facet normal -6.141530e-001 -7.891870e-001 0.000000e+000
    outer loop
      vertex   -6.609330e-002 -7.706425e-002 0.000000e+000
      vertex   -5.846861e-002 -8.299787e-002 1.891000e-001
      vertex   -6.609330e-002 -7.706425e-002 1.891000e-001
    endloop
  endfacet
  facet normal -6.863891e-001 -7.272345e-001 0.000000e+000
    outer loop
      vertex   -7.311945e-002 -7.043273e-002 0.000000e+000
      vertex   -6.609330e-002 -7.706425e-002 1.891000e-001
      vertex   -7.311945e-002 -7.043273e-002 1.891000e-001
    endloop
  endfacet
  facet normal -7.524091e-001 -6.586961e-001 -1.112698e-017
    outer loop
      vertex   -7.948342e-002 -6.316336e-002 0.000000e+000
      vertex   -7.311945e-002 -7.043273e-002 1.891000e-001
      vertex   -7.948342e-002 -6.316336e-002 1.891000e-001
    endloop
  endfacet
  facet normal -8.116152e-001 -5.841924e-001 7.047086e-017
    outer loop
      vertex   -8.512757e-002 -5.532197e-002 0.000000e+000
      vertex   -7.948342e-002 -6.316336e-002 1.891000e-001
      vertex   -8.512757e-002 -5.532197e-002 1.891000e-001
    endloop
  endfacet
  facet normal -8.634711e-001 -5.043983e-001 0.000000e+000
    outer loop
      vertex   -9.000079e-002 -4.697958e-002 0.000000e+000
      vertex   -8.512757e-002 -5.532197e-002 1.891000e-001
      vertex   -9.000079e-002 -4.697958e-002 1.891000e-001
    endloop
  endfacet
  facet normal -9.075074e-001 -4.200361e-001 0.000000e+000
    outer loop
      vertex   -9.405896e-002 -3.821174e-002 0.000000e+000
      vertex   -9.000079e-002 -4.697958e-002 1.891000e-001
      vertex   -9.405896e-002 -3.821174e-002 1.891000e-001
    endloop
  endfacet
  facet normal -9.433251e-001 -3.318701e-001 7.232536e-017
    outer loop
      vertex   -9.726531e-002 -2.909784e-002 0.000000e+000
      vertex   -9.405896e-002 -3.821174e-002 1.891000e-001
      vertex   -9.726531e-002 -2.909784e-002 1.891000e-001
    endloop
  endfacet
  facet normal -9.705999e-001 -2.406986e-001 5.748939e-017
    outer loop
      vertex   -9.959081e-002 -1.972042e-002 0.000000e+000
      vertex   -9.726531e-002 -2.909784e-002 1.891000e-001
      vertex   -9.959081e-002 -1.972042e-002 1.891000e-001
    endloop
  endfacet
  facet normal -9.890848e-001 -1.473474e-001 0.000000e+000
    outer loop
      vertex   -1.010144e-001 -1.016442e-002 0.000000e+000
      vertex   -9.959081e-002 -1.972042e-002 1.891000e-001
      vertex   -1.010144e-001 -1.016442e-002 1.891000e-001
    endloop
  endfacet
  facet normal -9.986124e-001 -5.266167e-002 0.000000e+000
    outer loop
      vertex   -1.015232e-001 -5.163669e-004 0.000000e+000
      vertex   -1.010144e-001 -1.016442e-002 1.891000e-001
      vertex   -1.015232e-001 -5.163669e-004 1.891000e-001
    endloop
  endfacet
  facet normal -9.990964e-001 4.250093e-002 0.000000e+000
    outer loop
      vertex   -1.011126e-001 9.136364e-003 0.000000e+000
      vertex   -1.015232e-001 -5.163669e-004 1.891000e-001
      vertex   -1.011126e-001 9.136364e-003 1.891000e-001
    endloop
  endfacet
  facet normal -9.905325e-001 1.372786e-001 -3.245369e-017
    outer loop
      vertex   -9.978625e-002 1.870635e-002 0.000000e+000
      vertex   -1.011126e-001 9.136364e-003 1.891000e-001
      vertex   -9.978625e-002 1.870635e-002 1.891000e-001
    endloop
  endfacet
  facet normal -9.729981e-001 2.308131e-001 -5.934388e-017
    outer loop
      vertex   -9.755626e-002 2.810694e-002 0.000000e+000
      vertex   -9.978625e-002 1.870635e-002 1.891000e-001
      vertex   -9.755626e-002 2.810694e-002 1.891000e-001
    endloop
  endfacet
  facet normal -9.466521e-001 3.222573e-001 0.000000e+000
    outer loop
      vertex   -9.444279e-002 3.725298e-002 0.000000e+000
      vertex   -9.755626e-002 2.810694e-002 1.891000e-001
      vertex   -9.444279e-002 3.725298e-002 1.891000e-001
    endloop
  endfacet
  facet normal -9.117331e-001 4.107831e-001 0.000000e+000
    outer loop
      vertex   -9.047402e-002 4.606165e-002 0.000000e+000
      vertex   -9.444279e-002 3.725298e-002 1.891000e-001
      vertex   -9.047402e-002 4.606165e-002 1.891000e-001
    endloop
  endfacet
  facet normal -8.685573e-001 4.955888e-001 3.708993e-017
    outer loop
      vertex   -8.568591e-002 5.445318e-002 0.000000e+000
      vertex   -9.047402e-002 4.606165e-002 1.891000e-001
      vertex   -8.568591e-002 5.445318e-002 1.891000e-001
    endloop
  endfacet
  facet normal -8.175157e-001 5.759064e-001 7.417985e-017
    outer loop
      vertex   -8.012181e-002 6.235158e-002 0.000000e+000
      vertex   -8.568591e-002 5.445318e-002 1.891000e-001
      vertex   -8.012181e-002 6.235158e-002 1.891000e-001
    endloop
  endfacet
  facet normal -7.590705e-001 6.510084e-001 0.000000e+000
    outer loop
      vertex   -7.383212e-002 6.968531e-002 0.000000e+000
      vertex   -8.012181e-002 6.235158e-002 1.891000e-001
      vertex   -7.383212e-002 6.968531e-002 1.891000e-001
    endloop
  endfacet
  facet normal -6.937511e-001 7.202148e-001 0.000000e+000
    outer loop
      vertex   -6.687379e-002 7.638796e-002 0.000000e+000
      vertex   -7.383212e-002 6.968531e-002 1.891000e-001
      vertex   -6.687379e-002 7.638796e-002 1.891000e-001
    endloop
  endfacet
  facet normal -6.221490e-001 7.828989e-001 0.000000e+000
    outer loop
      vertex   -5.930985e-002 8.239882e-002 0.000000e+000
      vertex   -6.687379e-002 7.638796e-002 1.891000e-001
      vertex   -5.930985e-002 8.239882e-002 1.891000e-001
    endloop
  endfacet
  facet normal -5.449126e-001 8.384929e-001 5.563489e-017
    outer loop
      vertex   -5.120878e-002 8.766348e-002 0.000000e+000
      vertex   -5.930985e-002 8.239882e-002 1.891000e-001
      vertex   -5.120878e-002 8.766348e-002 1.891000e-001
    endloop
  endfacet
  facet normal -4.627413e-001 8.864934e-001 2.967194e-017
    outer loop
      vertex   -4.264396e-002 9.213423e-002 0.000000e+000
      vertex   -5.120878e-002 8.766348e-002 1.891000e-001
      vertex   -4.264396e-002 9.213423e-002 1.891000e-001
    endloop
  endfacet
  facet normal -3.763794e-001 9.264656e-001 4.079892e-017
    outer loop
      vertex   -3.369295e-002 9.577061e-002 0.000000e+000
      vertex   -4.264396e-002 9.213423e-002 1.891000e-001
      vertex   -3.369295e-002 9.577061e-002 1.891000e-001
    endloop
  endfacet
  facet normal -2.866090e-001 9.580476e-001 -6.676187e-017
    outer loop
      vertex   -2.443681e-002 9.853967e-002 0.000000e+000
      vertex   -3.369295e-002 9.577061e-002 1.891000e-001
      vertex   -2.443681e-002 9.853967e-002 1.891000e-001
    endloop
  endfacet
  facet normal -1.942430e-001 9.809534e-001 0.000000e+000
    outer loop
      vertex   -1.495937e-002 1.004163e-001 0.000000e+000
      vertex   -2.443681e-002 9.853967e-002 1.891000e-001
      vertex   -1.495937e-002 1.004163e-001 1.891000e-001
    endloop
  endfacet
  facet normal -1.001179e-001 9.949756e-001 1.112698e-017
    outer loop
      vertex   -5.346450e-003 1.013836e-001 0.000000e+000
      vertex   -1.495937e-002 1.004163e-001 1.891000e-001
      vertex   -5.346450e-003 1.013836e-001 1.891000e-001
    endloop
  endfacet
  facet normal -5.086131e-003 9.999871e-001 -6.374831e-019
    outer loop
      vertex   4.314886e-003 1.014328e-001 0.000000e+000
      vertex   -5.346450e-003 1.013836e-001 1.891000e-001
      vertex   4.314886e-003 1.014328e-001 1.891000e-001
    endloop
  endfacet
  facet normal 8.999171e-002 9.959425e-001 -1.019973e-017
    outer loop
      vertex   1.393714e-002 1.005633e-001 0.000000e+000
      vertex   4.314886e-003 1.014328e-001 1.891000e-001
      vertex   1.393714e-002 1.005633e-001 1.891000e-001
    endloop
  endfacet
  facet normal 1.842546e-001 9.828786e-001 -4.450791e-017
    outer loop
      vertex   2.343319e-002 9.878315e-002 0.000000e+000
      vertex   1.393714e-002 1.005633e-001 1.891000e-001
      vertex   2.343319e-002 9.878315e-002 1.891000e-001
    endloop
  endfacet
  facet normal 2.768488e-001 9.609135e-001 0.000000e+000
    outer loop
      vertex   3.271701e-002 9.610838e-002 0.000000e+000
      vertex   2.343319e-002 9.878315e-002 1.891000e-001
      vertex   3.271701e-002 9.610838e-002 1.891000e-001
    endloop
  endfacet
  facet normal 3.669358e-001 9.302462e-001 -3.708993e-017
    outer loop
      vertex   4.170455e-002 9.256325e-002 0.000000e+000
      vertex   3.271701e-002 9.610838e-002 1.891000e-001
      vertex   4.170455e-002 9.256325e-002 1.891000e-001
    endloop
  endfacet
  facet normal 4.536999e-001 8.911546e-001 -2.225396e-017
    outer loop
      vertex   5.031441e-002 8.817984e-002 0.000000e+000
      vertex   4.170455e-002 9.256325e-002 1.891000e-001
      vertex   5.031441e-002 8.817984e-002 1.891000e-001
    endloop
  endfacet
  facet normal 5.363551e-001 8.439924e-001 0.000000e+000
    outer loop
      vertex   5.846861e-002 8.299787e-002 0.000000e+000
      vertex   5.031441e-002 8.817984e-002 1.891000e-001
      vertex   5.846861e-002 8.299787e-002 1.891000e-001
    endloop
  endfacet
  facet normal 6.141530e-001 7.891870e-001 -1.854496e-017
    outer loop
      vertex   6.609330e-002 7.706425e-002 0.000000e+000
      vertex   5.846861e-002 8.299787e-002 1.891000e-001
      vertex   6.609330e-002 7.706425e-002 1.891000e-001
    endloop
  endfacet
  facet normal 6.863891e-001 7.272345e-001 0.000000e+000
    outer loop
      vertex   7.311945e-002 7.043273e-002 0.000000e+000
      vertex   6.609330e-002 7.706425e-002 1.891000e-001
      vertex   7.311945e-002 7.043273e-002 1.891000e-001
    endloop
  endfacet
  facet normal 7.524091e-001 6.586961e-001 0.000000e+000
    outer loop
      vertex   7.948342e-002 6.316336e-002 0.000000e+000
      vertex   7.311945e-002 7.043273e-002 1.891000e-001
      vertex   7.948342e-002 6.316336e-002 1.891000e-001
    endloop
  endfacet
  facet normal 8.116152e-001 5.841924e-001 -7.047086e-017
    outer loop
      vertex   8.512757e-002 5.532197e-002 0.000000e+000
      vertex   7.948342e-002 6.316336e-002 1.891000e-001
      vertex   8.512757e-002 5.532197e-002 1.891000e-001
    endloop
  endfacet
  facet normal 8.634711e-001 5.043983e-001 0.000000e+000
    outer loop
      vertex   9.000079e-002 4.697958e-002 0.000000e+000
      vertex   8.512757e-002 5.532197e-002 1.891000e-001
      vertex   9.000079e-002 4.697958e-002 1.891000e-001
    endloop
  endfacet
  facet normal 9.075074e-001 4.200361e-001 7.788885e-017
    outer loop
      vertex   9.405896e-002 3.821174e-002 0.000000e+000
      vertex   9.000079e-002 4.697958e-002 1.891000e-001
      vertex   9.405896e-002 3.821174e-002 1.891000e-001
    endloop
  endfacet
  facet normal 9.433251e-001 3.318701e-001 0.000000e+000
    outer loop
      vertex   9.726531e-002 2.909784e-002 0.000000e+000
      vertex   9.405896e-002 3.821174e-002 1.891000e-001
      vertex   9.726531e-002 2.909784e-002 1.891000e-001
    endloop
  endfacet
  facet normal 9.705999e-001 2.406986e-001 0.000000e+000
    outer loop
      vertex   9.959081e-002 1.972042e-002 0.000000e+000
      vertex   9.726531e-002 2.909784e-002 1.891000e-001
      vertex   9.959081e-002 1.972042e-002 1.891000e-001
    endloop
  endfacet
  facet normal 9.890848e-001 1.473474e-001 3.430818e-017
    outer loop
      vertex   1.010144e-001 1.016442e-002 0.000000e+000
      vertex   9.959081e-002 1.972042e-002 1.891000e-001
      vertex   1.010144e-001 1.016442e-002 1.891000e-001
    endloop
  endfacet
  facet normal 9.986124e-001 5.266167e-002 0.000000e+000
    outer loop
      vertex   1.015232e-001 5.163669e-004 0.000000e+000
      vertex   1.010144e-001 1.016442e-002 1.891000e-001
      vertex   1.015232e-001 5.163669e-004 1.891000e-001
    endloop
  endfacet
  facet normal 9.990964e-001 -4.250093e-002 0.000000e+000
    outer loop
      vertex   1.011126e-001 -9.136364e-003 0.000000e+000
      vertex   1.015232e-001 5.163669e-004 0.000000e+000
      vertex   1.015232e-001 5.163669e-004 1.891000e-001
    endloop
  endfacet
  facet normal 9.466521e-001 -3.222573e-001 0.000000e+000
    outer loop
      vertex   9.755626e-002 -2.810694e-002 0.000000e+000
      vertex   9.755626e-002 -2.810694e-002 1.891000e-001
      vertex   9.444279e-002 -3.725298e-002 0.000000e+000
    endloop
  endfacet
  facet normal 9.117331e-001 -4.107831e-001 -9.044042e-017
    outer loop
      vertex   9.444279e-002 -3.725298e-002 0.000000e+000
      vertex   9.444279e-002 -3.725298e-002 1.891000e-001
      vertex   9.047402e-002 -4.606165e-002 0.000000e+000
    endloop
  endfacet
  facet normal 8.685573e-001 -4.955888e-001 0.000000e+000
    outer loop
      vertex   9.047402e-002 -4.606165e-002 0.000000e+000
      vertex   9.047402e-002 -4.606165e-002 1.891000e-001
      vertex   8.568591e-002 -5.445318e-002 0.000000e+000
    endloop
  endfacet
  facet normal 8.175157e-001 -5.759064e-001 1.433026e-017
    outer loop
      vertex   8.568591e-002 -5.445318e-002 0.000000e+000
      vertex   8.568591e-002 -5.445318e-002 1.891000e-001
      vertex   8.012181e-002 -6.235158e-002 0.000000e+000
    endloop
  endfacet
  facet normal 7.590705e-001 -6.510084e-001 0.000000e+000
    outer loop
      vertex   8.012181e-002 -6.235158e-002 0.000000e+000
      vertex   8.012181e-002 -6.235158e-002 1.891000e-001
      vertex   7.383212e-002 -6.968531e-002 0.000000e+000
    endloop
  endfacet
  facet normal 6.937511e-001 -7.202148e-001 0.000000e+000
    outer loop
      vertex   7.383212e-002 -6.968531e-002 0.000000e+000
      vertex   7.383212e-002 -6.968531e-002 1.891000e-001
      vertex   6.687379e-002 -7.638796e-002 0.000000e+000
    endloop
  endfacet
  facet normal 6.221490e-001 -7.828989e-001 -8.105030e-017
    outer loop
      vertex   6.687379e-002 -7.638796e-002 0.000000e+000
      vertex   6.687379e-002 -7.638796e-002 1.891000e-001
      vertex   5.930985e-002 -8.239882e-002 0.000000e+000
    endloop
  endfacet
  facet normal 5.449126e-001 -8.384929e-001 0.000000e+000
    outer loop
      vertex   5.930985e-002 -8.239882e-002 0.000000e+000
      vertex   5.930985e-002 -8.239882e-002 1.891000e-001
      vertex   5.120878e-002 -8.766348e-002 0.000000e+000
    endloop
  endfacet
  facet normal 4.627413e-001 -8.864934e-001 9.062261e-017
    outer loop
      vertex   5.120878e-002 -8.766348e-002 0.000000e+000
      vertex   5.120878e-002 -8.766348e-002 1.891000e-001
      vertex   4.264396e-002 -9.213423e-002 0.000000e+000
    endloop
  endfacet
  facet normal 3.763794e-001 -9.264656e-001 2.762197e-017
    outer loop
      vertex   4.264396e-002 -9.213423e-002 0.000000e+000
      vertex   4.264396e-002 -9.213423e-002 1.891000e-001
      vertex   3.369295e-002 -9.577061e-002 0.000000e+000
    endloop
  endfacet
  facet normal 2.866090e-001 -9.580476e-001 0.000000e+000
    outer loop
      vertex   3.369295e-002 -9.577061e-002 0.000000e+000
      vertex   3.369295e-002 -9.577061e-002 1.891000e-001
      vertex   2.443681e-002 -9.853967e-002 0.000000e+000
    endloop
  endfacet
  facet normal 1.942430e-001 -9.809534e-001 4.276568e-017
    outer loop
      vertex   2.443681e-002 -9.853967e-002 0.000000e+000
      vertex   2.443681e-002 -9.853967e-002 1.891000e-001
      vertex   1.495937e-002 -1.004163e-001 0.000000e+000
    endloop
  endfacet
  facet normal 1.001179e-001 -9.949756e-001 1.193971e-017
    outer loop
      vertex   1.495937e-002 -1.004163e-001 0.000000e+000
      vertex   1.495937e-002 -1.004163e-001 1.891000e-001
      vertex   5.346450e-003 -1.013836e-001 0.000000e+000
    endloop
  endfacet
  facet normal 5.086131e-003 -9.999871e-001 -6.065542e-019
    outer loop
      vertex   5.346450e-003 -1.013836e-001 0.000000e+000
      vertex   5.346450e-003 -1.013836e-001 1.891000e-001
      vertex   -4.314886e-003 -1.014328e-001 0.000000e+000
    endloop
  endfacet
  facet normal -8.999171e-002 -9.959425e-001 -1.073210e-017
    outer loop
      vertex   -4.314886e-003 -1.014328e-001 0.000000e+000
      vertex   -4.314886e-003 -1.014328e-001 1.891000e-001
      vertex   -1.393714e-002 -1.005633e-001 0.000000e+000
    endloop
  endfacet
  facet normal -1.842546e-001 -9.828786e-001 0.000000e+000
    outer loop
      vertex   -1.393714e-002 -1.005633e-001 0.000000e+000
      vertex   -1.393714e-002 -1.005633e-001 1.891000e-001
      vertex   -2.343319e-002 -9.878315e-002 0.000000e+000
    endloop
  endfacet
  facet normal -2.768488e-001 -9.609135e-001 -5.913162e-019
    outer loop
      vertex   -2.343319e-002 -9.878315e-002 0.000000e+000
      vertex   -2.343319e-002 -9.878315e-002 1.891000e-001
      vertex   -3.271701e-002 -9.610838e-002 0.000000e+000
    endloop
  endfacet
  facet normal -3.669358e-001 -9.302462e-001 -4.039337e-017
    outer loop
      vertex   -3.271701e-002 -9.610838e-002 0.000000e+000
      vertex   -3.271701e-002 -9.610838e-002 1.891000e-001
      vertex   -4.170455e-002 -9.256325e-002 0.000000e+000
    endloop
  endfacet
  facet normal -4.536999e-001 -8.911546e-001 -3.210420e-017
    outer loop
      vertex   -4.170455e-002 -9.256325e-002 0.000000e+000
      vertex   -4.170455e-002 -9.256325e-002 1.891000e-001
      vertex   -5.031441e-002 -8.817984e-002 0.000000e+000
    endloop
  endfacet
  facet normal -5.363551e-001 -8.439924e-001 -5.614764e-017
    outer loop
      vertex   -5.031441e-002 -8.817984e-002 0.000000e+000
      vertex   -5.031441e-002 -8.817984e-002 1.891000e-001
      vertex   -5.846861e-002 -8.299787e-002 0.000000e+000
    endloop
  endfacet
  facet normal -6.141530e-001 -7.891870e-001 0.000000e+000
    outer loop
      vertex   -5.846861e-002 -8.299787e-002 0.000000e+000
      vertex   -5.846861e-002 -8.299787e-002 1.891000e-001
      vertex   -6.609330e-002 -7.706425e-002 0.000000e+000
    endloop
  endfacet
  facet normal -6.863891e-001 -7.272345e-001 0.000000e+000
    outer loop
      vertex   -6.609330e-002 -7.706425e-002 0.000000e+000
      vertex   -6.609330e-002 -7.706425e-002 1.891000e-001
      vertex   -7.311945e-002 -7.043273e-002 0.000000e+000
    endloop
  endfacet
  facet normal -7.524091e-001 -6.586961e-001 0.000000e+000
    outer loop
      vertex   -7.311945e-002 -7.043273e-002 0.000000e+000
      vertex   -7.311945e-002 -7.043273e-002 1.891000e-001
      vertex   -7.948342e-002 -6.316336e-002 0.000000e+000
    endloop
  endfacet
  facet normal -8.116152e-001 -5.841924e-001 -3.338048e-017
    outer loop
      vertex   -7.948342e-002 -6.316336e-002 0.000000e+000
      vertex   -7.948342e-002 -6.316336e-002 1.891000e-001
      vertex   -8.512757e-002 -5.532197e-002 0.000000e+000
    endloop
  endfacet
  facet normal -8.634711e-001 -5.043983e-001 4.768232e-017
    outer loop
      vertex   -8.512757e-002 -5.532197e-002 0.000000e+000
      vertex   -8.512757e-002 -5.532197e-002 1.891000e-001
      vertex   -9.000079e-002 -4.697958e-002 0.000000e+000
    endloop
  endfacet
  facet normal -9.075074e-001 -4.200361e-001 0.000000e+000
    outer loop
      vertex   -9.000079e-002 -4.697958e-002 0.000000e+000
      vertex   -9.000079e-002 -4.697958e-002 1.891000e-001
      vertex   -9.405896e-002 -3.821174e-002 0.000000e+000
    endloop
  endfacet
  facet normal -9.433251e-001 -3.318701e-001 0.000000e+000
    outer loop
      vertex   -9.405896e-002 -3.821174e-002 0.000000e+000
      vertex   -9.405896e-002 -3.821174e-002 1.891000e-001
      vertex   -9.726531e-002 -2.909784e-002 0.000000e+000
    endloop
  endfacet
  facet normal -9.705999e-001 -2.406986e-001 5.299362e-017
    outer loop
      vertex   -9.726531e-002 -2.909784e-002 0.000000e+000
      vertex   -9.726531e-002 -2.909784e-002 1.891000e-001
      vertex   -9.959081e-002 -1.972042e-002 0.000000e+000
    endloop
  endfacet
  facet normal -9.890848e-001 -1.473474e-001 3.514426e-017
    outer loop
      vertex   -9.959081e-002 -1.972042e-002 0.000000e+000
      vertex   -9.959081e-002 -1.972042e-002 1.891000e-001
      vertex   -1.010144e-001 -1.016442e-002 0.000000e+000
    endloop
  endfacet
  facet normal -9.986124e-001 -5.266167e-002 0.000000e+000
    outer loop
      vertex   -1.010144e-001 -1.016442e-002 0.000000e+000
      vertex   -1.010144e-001 -1.016442e-002 1.891000e-001
      vertex   -1.015232e-001 -5.163669e-004 0.000000e+000
    endloop
  endfacet
  facet normal -9.990964e-001 4.250093e-002 0.000000e+000
    outer loop
      vertex   -1.015232e-001 -5.163669e-004 0.000000e+000
      vertex   -1.015232e-001 -5.163669e-004 1.891000e-001
      vertex   -1.011126e-001 9.136364e-003 0.000000e+000
    endloop
  endfacet
  facet normal -9.905325e-001 1.372786e-001 0.000000e+000
    outer loop
      vertex   -1.011126e-001 9.136364e-003 0.000000e+000
      vertex   -1.011126e-001 9.136364e-003 1.891000e-001
      vertex   -9.978625e-002 1.870635e-002 0.000000e+000
    endloop
  endfacet
  facet normal -9.729981e-001 2.308131e-001 -5.505193e-017
    outer loop
      vertex   -9.978625e-002 1.870635e-002 0.000000e+000
      vertex   -9.978625e-002 1.870635e-002 1.891000e-001
      vertex   -9.755626e-002 2.810694e-002 0.000000e+000
    endloop
  endfacet
  facet normal -9.466521e-001 3.222573e-001 -8.277507e-017
    outer loop
      vertex   -9.755626e-002 2.810694e-002 0.000000e+000
      vertex   -9.755626e-002 2.810694e-002 1.891000e-001
      vertex   -9.444279e-002 3.725298e-002 0.000000e+000
    endloop
  endfacet
  facet normal -9.117331e-001 4.107831e-001 0.000000e+000
    outer loop
      vertex   -9.444279e-002 3.725298e-002 0.000000e+000
      vertex   -9.444279e-002 3.725298e-002 1.891000e-001
      vertex   -9.047402e-002 4.606165e-002 0.000000e+000
    endloop
  endfacet
  facet normal -8.685573e-001 4.955888e-001 0.000000e+000
    outer loop
      vertex   -9.047402e-002 4.606165e-002 0.000000e+000
      vertex   -9.047402e-002 4.606165e-002 1.891000e-001
      vertex   -8.568591e-002 5.445318e-002 0.000000e+000
    endloop
  endfacet
  facet normal -8.175157e-001 5.759064e-001 1.433026e-017
    outer loop
      vertex   -8.568591e-002 5.445318e-002 0.000000e+000
      vertex   -8.568591e-002 5.445318e-002 1.891000e-001
      vertex   -8.012181e-002 6.235158e-002 0.000000e+000
    endloop
  endfacet
  facet normal -7.590705e-001 6.510084e-001 4.767989e-017
    outer loop
      vertex   -8.012181e-002 6.235158e-002 0.000000e+000
      vertex   -8.012181e-002 6.235158e-002 1.891000e-001
      vertex   -7.383212e-002 6.968531e-002 0.000000e+000
    endloop
  endfacet
  facet normal -6.937511e-001 7.202148e-001 0.000000e+000
    outer loop
      vertex   -7.383212e-002 6.968531e-002 0.000000e+000
      vertex   -7.383212e-002 6.968531e-002 1.891000e-001
      vertex   -6.687379e-002 7.638796e-002 0.000000e+000
    endloop
  endfacet
  facet normal -6.221490e-001 7.828989e-001 0.000000e+000
    outer loop
      vertex   -6.687379e-002 7.638796e-002 0.000000e+000
      vertex   -6.687379e-002 7.638796e-002 1.891000e-001
      vertex   -5.930985e-002 8.239882e-002 0.000000e+000
    endloop
  endfacet
  facet normal -5.449126e-001 8.384929e-001 0.000000e+000
    outer loop
      vertex   -5.930985e-002 8.239882e-002 0.000000e+000
      vertex   -5.930985e-002 8.239882e-002 1.891000e-001
      vertex   -5.120878e-002 8.766348e-002 0.000000e+000
    endloop
  endfacet
  facet normal -4.627413e-001 8.864934e-001 3.682132e-017
    outer loop
      vertex   -5.120878e-002 8.766348e-002 0.000000e+000
      vertex   -5.120878e-002 8.766348e-002 1.891000e-001
      vertex   -4.264396e-002 9.213423e-002 0.000000e+000
    endloop
  endfacet
  facet normal -3.763794e-001 9.264656e-001 4.037006e-017
    outer loop
      vertex   -4.264396e-002 9.213423e-002 0.000000e+000
      vertex   -4.264396e-002 9.213423e-002 1.891000e-001
      vertex   -3.369295e-002 9.577061e-002 0.000000e+000
    endloop
  endfacet
  facet normal -2.866090e-001 9.580476e-001 3.155076e-017
    outer loop
      vertex   -3.369295e-002 9.577061e-002 0.000000e+000
      vertex   -3.369295e-002 9.577061e-002 1.891000e-001
      vertex   -2.443681e-002 9.853967e-002 0.000000e+000
    endloop
  endfacet
  facet normal -1.942430e-001 9.809534e-001 -9.408834e-017
    outer loop
      vertex   -2.443681e-002 9.853967e-002 0.000000e+000
      vertex   -2.443681e-002 9.853967e-002 1.891000e-001
      vertex   -1.495937e-002 1.004163e-001 0.000000e+000
    endloop
  endfacet
  facet normal -1.001179e-001 9.949756e-001 0.000000e+000
    outer loop
      vertex   -1.495937e-002 1.004163e-001 0.000000e+000
      vertex   -1.495937e-002 1.004163e-001 1.891000e-001
      vertex   -5.346450e-003 1.013836e-001 0.000000e+000
    endloop
  endfacet
  facet normal -5.086131e-003 9.999871e-001 5.832252e-019
    outer loop
      vertex   -5.346450e-003 1.013836e-001 0.000000e+000
      vertex   -5.346450e-003 1.013836e-001 1.891000e-001
      vertex   4.314886e-003 1.014328e-001 0.000000e+000
    endloop
  endfacet
  facet normal 8.999171e-002 9.959425e-001 1.073210e-017
    outer loop
      vertex   4.314886e-003 1.014328e-001 0.000000e+000
      vertex   4.314886e-003 1.014328e-001 1.891000e-001
      vertex   1.393714e-002 1.005633e-001 0.000000e+000
    endloop
  endfacet
  facet normal 1.842546e-001 9.828786e-001 -2.028328e-017
    outer loop
      vertex   1.393714e-002 1.005633e-001 0.000000e+000
      vertex   1.393714e-002 1.005633e-001 1.891000e-001
      vertex   2.343319e-002 9.878315e-002 0.000000e+000
    endloop
  endfacet
  facet normal 2.768488e-001 9.609135e-001 -6.603204e-017
    outer loop
      vertex   2.343319e-002 9.878315e-002 0.000000e+000
      vertex   2.343319e-002 9.878315e-002 1.891000e-001
      vertex   3.271701e-002 9.610838e-002 0.000000e+000
    endloop
  endfacet
  facet normal 3.669358e-001 9.302462e-001 -0.000000e+000
    outer loop
      vertex   3.271701e-002 9.610838e-002 0.000000e+000
      vertex   3.271701e-002 9.610838e-002 1.891000e-001
      vertex   4.170455e-002 9.256325e-002 0.000000e+000
    endloop
  endfacet
  facet normal 4.536999e-001 8.911546e-001 -4.994461e-017
    outer loop
      vertex   4.170455e-002 9.256325e-002 0.000000e+000
      vertex   4.170455e-002 9.256325e-002 1.891000e-001
      vertex   5.031441e-002 8.817984e-002 0.000000e+000
    endloop
  endfacet
  facet normal 5.363551e-001 8.439924e-001 -7.003702e-017
    outer loop
      vertex   5.031441e-002 8.817984e-002 0.000000e+000
      vertex   5.031441e-002 8.817984e-002 1.891000e-001
      vertex   5.846861e-002 8.299787e-002 0.000000e+000
    endloop
  endfacet
  facet normal 6.141530e-001 7.891870e-001 -0.000000e+000
    outer loop
      vertex   5.846861e-002 8.299787e-002 0.000000e+000
      vertex   5.846861e-002 8.299787e-002 1.891000e-001
      vertex   6.609330e-002 7.706425e-002 0.000000e+000
    endloop
  endfacet
  facet normal 6.863891e-001 7.272345e-001 -4.437797e-017
    outer loop
      vertex   6.609330e-002 7.706425e-002 0.000000e+000
      vertex   6.609330e-002 7.706425e-002 1.891000e-001
      vertex   7.311945e-002 7.043273e-002 0.000000e+000
    endloop
  endfacet
  facet normal 7.524091e-001 6.586961e-001 -0.000000e+000
    outer loop
      vertex   7.311945e-002 7.043273e-002 0.000000e+000
      vertex   7.311945e-002 7.043273e-002 1.891000e-001
      vertex   7.948342e-002 6.316336e-002 0.000000e+000
    endloop
  endfacet
  facet normal 8.116152e-001 5.841924e-001 -0.000000e+000
    outer loop
      vertex   7.948342e-002 6.316336e-002 0.000000e+000
      vertex   7.948342e-002 6.316336e-002 1.891000e-001
      vertex   8.512757e-002 5.532197e-002 0.000000e+000
    endloop
  endfacet
  facet normal 8.634711e-001 5.043983e-001 -9.756413e-017
    outer loop
      vertex   8.512757e-002 5.532197e-002 0.000000e+000
      vertex   8.512757e-002 5.532197e-002 1.891000e-001
      vertex   9.000079e-002 4.697958e-002 0.000000e+000
    endloop
  endfacet
  facet normal 9.075074e-001 4.200361e-001 -0.000000e+000
    outer loop
      vertex   9.000079e-002 4.697958e-002 0.000000e+000
      vertex   9.000079e-002 4.697958e-002 1.891000e-001
      vertex   9.405896e-002 3.821174e-002 0.000000e+000
    endloop
  endfacet
  facet normal 9.433251e-001 3.318701e-001 6.088873e-017
    outer loop
      vertex   9.405896e-002 3.821174e-002 0.000000e+000
      vertex   9.405896e-002 3.821174e-002 1.891000e-001
      vertex   9.726531e-002 2.909784e-002 0.000000e+000
    endloop
  endfacet
  facet normal 9.705999e-001 2.406986e-001 -0.000000e+000
    outer loop
      vertex   9.726531e-002 2.909784e-002 0.000000e+000
      vertex   9.726531e-002 2.909784e-002 1.891000e-001
      vertex   9.959081e-002 1.972042e-002 0.000000e+000
    endloop
  endfacet
  facet normal 9.890848e-001 1.473474e-001 -0.000000e+000
    outer loop
      vertex   9.959081e-002 1.972042e-002 0.000000e+000
      vertex   9.959081e-002 1.972042e-002 1.891000e-001
      vertex   1.010144e-001 1.016442e-002 0.000000e+000
    endloop
  endfacet
  facet normal 9.986124e-001 5.266167e-002 1.207740e-017
    outer loop
      vertex   1.010144e-001 1.016442e-002 0.000000e+000
      vertex   1.010144e-001 1.016442e-002 1.891000e-001
      vertex   1.015232e-001 5.163669e-004 0.000000e+000
    endloop
  endfacet
  facet normal -0.000000e+000 0.000000e+000 -1.000000e+000
    outer loop
      vertex   1.011126e-001 -9.136364e-003 0.000000e+000
      vertex   -1.010144e-001 -1.016442e-002 0.000000e+000
      vertex   1.015232e-001 5.163669e-004 0.000000e+000
    endloop
  endfacet
  facet normal -0.000000e+000 0.000000e+000 -1.000000e+000
    outer loop
      vertex   1.011126e-001 -9.136364e-003 0.000000e+000
      vertex   -9.959081e-002 -1.972042e-002 0.000000e+000
      vertex   -1.010144e-001 -1.016442e-002 0.000000e+000
    endloop
  endfacet
  facet normal 0.000000e+000 0.000000e+000 -1.000000e+000
    outer loop
      vertex   1.011126e-001 -9.136364e-003 0.000000e+000
      vertex   9.978625e-002 -1.870635e-002 0.000000e+000
      vertex   -9.959081e-002 -1.972042e-002 0.000000e+000
    endloop
  endfacet
  facet normal 0.000000e+000 -0.000000e+000 -1.000000e+000
    outer loop
      vertex   -9.959081e-002 -1.972042e-002 0.000000e+000
      vertex   9.978625e-002 -1.870635e-002 0.000000e+000
      vertex   -9.726531e-002 -2.909784e-002 0.000000e+000
    endloop
  endfacet
  facet normal 0.000000e+000 -0.000000e+000 -1.000000e+000
    outer loop
      vertex   -9.726531e-002 -2.909784e-002 0.000000e+000
      vertex   9.978625e-002 -1.870635e-002 0.000000e+000
      vertex   9.755626e-002 -2.810694e-002 0.000000e+000
    endloop
  endfacet
  facet normal 0.000000e+000 -0.000000e+000 -1.000000e+000
    outer loop
      vertex   -9.405896e-002 -3.821174e-002 0.000000e+000
      vertex   9.755626e-002 -2.810694e-002 0.000000e+000
      vertex   9.444279e-002 -3.725298e-002 0.000000e+000
    endloop
  endfacet
  facet normal 0.000000e+000 -0.000000e+000 -1.000000e+000
    outer loop
      vertex   -9.000079e-002 -4.697958e-002 0.000000e+000
      vertex   9.444279e-002 -3.725298e-002 0.000000e+000
      vertex   9.047402e-002 -4.606165e-002 0.000000e+000
    endloop
  endfacet
  facet normal 0.000000e+000 -0.000000e+000 -1.000000e+000
    outer loop
      vertex   -8.512757e-002 -5.532197e-002 0.000000e+000
      vertex   9.047402e-002 -4.606165e-002 0.000000e+000
      vertex   8.568591e-002 -5.445318e-002 0.000000e+000
    endloop
  endfacet
  facet normal 0.000000e+000 -0.000000e+000 -1.000000e+000
    outer loop
      vertex   -7.948342e-002 -6.316336e-002 0.000000e+000
      vertex   8.568591e-002 -5.445318e-002 0.000000e+000
      vertex   8.012181e-002 -6.235158e-002 0.000000e+000
    endloop
  endfacet
  facet normal 0.000000e+000 -0.000000e+000 -1.000000e+000
    outer loop
      vertex   -7.311945e-002 -7.043273e-002 0.000000e+000
      vertex   8.012181e-002 -6.235158e-002 0.000000e+000
      vertex   7.383212e-002 -6.968531e-002 0.000000e+000
    endloop
  endfacet
  facet normal 0.000000e+000 -0.000000e+000 -1.000000e+000
    outer loop
      vertex   -6.609330e-002 -7.706425e-002 0.000000e+000
      vertex   7.383212e-002 -6.968531e-002 0.000000e+000
      vertex   6.687379e-002 -7.638796e-002 0.000000e+000
    endloop
  endfacet
  facet normal 0.000000e+000 -0.000000e+000 -1.000000e+000
    outer loop
      vertex   -5.846861e-002 -8.299787e-002 0.000000e+000
      vertex   6.687379e-002 -7.638796e-002 0.000000e+000
      vertex   5.930985e-002 -8.239882e-002 0.000000e+000
    endloop
  endfacet
  facet normal 0.000000e+000 -0.000000e+000 -1.000000e+000
    outer loop
      vertex   -5.031441e-002 -8.817984e-002 0.000000e+000
      vertex   5.930985e-002 -8.239882e-002 0.000000e+000
      vertex   5.120878e-002 -8.766348e-002 0.000000e+000
    endloop
  endfacet
  facet normal 0.000000e+000 -0.000000e+000 -1.000000e+000
    outer loop
      vertex   -4.170455e-002 -9.256325e-002 0.000000e+000
      vertex   5.120878e-002 -8.766348e-002 0.000000e+000
      vertex   4.264396e-002 -9.213423e-002 0.000000e+000
    endloop
  endfacet
  facet normal 0.000000e+000 -0.000000e+000 -1.000000e+000
    outer loop
      vertex   -3.271701e-002 -9.610838e-002 0.000000e+000
      vertex   4.264396e-002 -9.213423e-002 0.000000e+000
      vertex   3.369295e-002 -9.577061e-002 0.000000e+000
    endloop
  endfacet
  facet normal 0.000000e+000 -0.000000e+000 -1.000000e+000
    outer loop
      vertex   -2.343319e-002 -9.878315e-002 0.000000e+000
      vertex   3.369295e-002 -9.577061e-002 0.000000e+000
      vertex   2.443681e-002 -9.853967e-002 0.000000e+000
    endloop
  endfacet
  facet normal 0.000000e+000 -0.000000e+000 -1.000000e+000
    outer loop
      vertex   -1.393714e-002 -1.005633e-001 0.000000e+000
      vertex   2.443681e-002 -9.853967e-002 0.000000e+000
      vertex   1.495937e-002 -1.004163e-001 0.000000e+000
    endloop
  endfacet
  facet normal 0.000000e+000 -0.000000e+000 -1.000000e+000
    outer loop
      vertex   -4.314886e-003 -1.014328e-001 0.000000e+000
      vertex   1.495937e-002 -1.004163e-001 0.000000e+000
      vertex   5.346450e-003 -1.013836e-001 0.000000e+000
    endloop
  endfacet
  facet normal 0.000000e+000 0.000000e+000 -1.000000e+000
    outer loop
      vertex   -4.314886e-003 -1.014328e-001 0.000000e+000
      vertex   -1.393714e-002 -1.005633e-001 0.000000e+000
      vertex   1.495937e-002 -1.004163e-001 0.000000e+000
    endloop
  endfacet
  facet normal 0.000000e+000 -0.000000e+000 -1.000000e+000
    outer loop
      vertex   -9.726531e-002 -2.909784e-002 0.000000e+000
      vertex   9.755626e-002 -2.810694e-002 0.000000e+000
      vertex   -9.405896e-002 -3.821174e-002 0.000000e+000
    endloop
  endfacet
  facet normal 0.000000e+000 -0.000000e+000 -1.000000e+000
    outer loop
      vertex   -9.405896e-002 -3.821174e-002 0.000000e+000
      vertex   9.444279e-002 -3.725298e-002 0.000000e+000
      vertex   -9.000079e-002 -4.697958e-002 0.000000e+000
    endloop
  endfacet
  facet normal 0.000000e+000 -0.000000e+000 -1.000000e+000
    outer loop
      vertex   -9.000079e-002 -4.697958e-002 0.000000e+000
      vertex   9.047402e-002 -4.606165e-002 0.000000e+000
      vertex   -8.512757e-002 -5.532197e-002 0.000000e+000
    endloop
  endfacet
  facet normal 0.000000e+000 -0.000000e+000 -1.000000e+000
    outer loop
      vertex   -8.512757e-002 -5.532197e-002 0.000000e+000
      vertex   8.568591e-002 -5.445318e-002 0.000000e+000
      vertex   -7.948342e-002 -6.316336e-002 0.000000e+000
    endloop
  endfacet
  facet normal 0.000000e+000 -0.000000e+000 -1.000000e+000
    outer loop
      vertex   -7.948342e-002 -6.316336e-002 0.000000e+000
      vertex   8.012181e-002 -6.235158e-002 0.000000e+000
      vertex   -7.311945e-002 -7.043273e-002 0.000000e+000
    endloop
  endfacet
  facet normal 0.000000e+000 -0.000000e+000 -1.000000e+000
    outer loop
      vertex   -7.311945e-002 -7.043273e-002 0.000000e+000
      vertex   7.383212e-002 -6.968531e-002 0.000000e+000
      vertex   -6.609330e-002 -7.706425e-002 0.000000e+000
    endloop
  endfacet
  facet normal 0.000000e+000 -0.000000e+000 -1.000000e+000
    outer loop
      vertex   -6.609330e-002 -7.706425e-002 0.000000e+000
      vertex   6.687379e-002 -7.638796e-002 0.000000e+000
      vertex   -5.846861e-002 -8.299787e-002 0.000000e+000
    endloop
  endfacet
  facet normal 0.000000e+000 -0.000000e+000 -1.000000e+000
    outer loop
      vertex   -5.846861e-002 -8.299787e-002 0.000000e+000
      vertex   5.930985e-002 -8.239882e-002 0.000000e+000
      vertex   -5.031441e-002 -8.817984e-002 0.000000e+000
    endloop
  endfacet
  facet normal 0.000000e+000 -0.000000e+000 -1.000000e+000
    outer loop
      vertex   -5.031441e-002 -8.817984e-002 0.000000e+000
      vertex   5.120878e-002 -8.766348e-002 0.000000e+000
      vertex   -4.170455e-002 -9.256325e-002 0.000000e+000
    endloop
  endfacet
  facet normal 0.000000e+000 -0.000000e+000 -1.000000e+000
    outer loop
      vertex   -4.170455e-002 -9.256325e-002 0.000000e+000
      vertex   4.264396e-002 -9.213423e-002 0.000000e+000
      vertex   -3.271701e-002 -9.610838e-002 0.000000e+000
    endloop
  endfacet
  facet normal 0.000000e+000 -0.000000e+000 -1.000000e+000
    outer loop
      vertex   -3.271701e-002 -9.610838e-002 0.000000e+000
      vertex   3.369295e-002 -9.577061e-002 0.000000e+000
      vertex   -2.343319e-002 -9.878315e-002 0.000000e+000
    endloop
  endfacet
  facet normal 0.000000e+000 -0.000000e+000 -1.000000e+000
    outer loop
      vertex   -2.343319e-002 -9.878315e-002 0.000000e+000
      vertex   2.443681e-002 -9.853967e-002 0.000000e+000
      vertex   -1.393714e-002 -1.005633e-001 0.000000e+000
    endloop
  endfacet
  facet normal 0.000000e+000 0.000000e+000 -1.000000e+000
    outer loop
      vertex   -1.010144e-001 -1.016442e-002 0.000000e+000
      vertex   -1.015232e-001 -5.163669e-004 0.000000e+000
      vertex   1.015232e-001 5.163669e-004 0.000000e+000
    endloop
  endfacet
  facet normal -0.000000e+000 0.000000e+000 -1.000000e+000
    outer loop
      vertex   1.015232e-001 5.163669e-004 0.000000e+000
      vertex   -1.015232e-001 -5.163669e-004 0.000000e+000
      vertex   1.010144e-001 1.016442e-002 0.000000e+000
    endloop
  endfacet
  facet normal -0.000000e+000 0.000000e+000 -1.000000e+000
    outer loop
      vertex   1.010144e-001 1.016442e-002 0.000000e+000
      vertex   -1.015232e-001 -5.163669e-004 0.000000e+000
      vertex   -1.011126e-001 9.136364e-003 0.000000e+000
    endloop
  endfacet
  facet normal -0.000000e+000 0.000000e+000 -1.000000e+000
    outer loop
      vertex   9.959081e-002 1.972042e-002 0.000000e+000
      vertex   -1.011126e-001 9.136364e-003 0.000000e+000
      vertex   -9.978625e-002 1.870635e-002 0.000000e+000
    endloop
  endfacet
  facet normal -0.000000e+000 0.000000e+000 -1.000000e+000
    outer loop
      vertex   9.726531e-002 2.909784e-002 0.000000e+000
      vertex   -9.978625e-002 1.870635e-002 0.000000e+000
      vertex   -9.755626e-002 2.810694e-002 0.000000e+000
    endloop
  endfacet
  facet normal -0.000000e+000 0.000000e+000 -1.000000e+000
    outer loop
      vertex   9.405896e-002 3.821174e-002 0.000000e+000
      vertex   -9.755626e-002 2.810694e-002 0.000000e+000
      vertex   -9.444279e-002 3.725298e-002 0.000000e+000
    endloop
  endfacet
  facet normal -0.000000e+000 0.000000e+000 -1.000000e+000
    outer loop
      vertex   9.000079e-002 4.697958e-002 0.000000e+000
      vertex   -9.444279e-002 3.725298e-002 0.000000e+000
      vertex   -9.047402e-002 4.606165e-002 0.000000e+000
    endloop
  endfacet
  facet normal -0.000000e+000 0.000000e+000 -1.000000e+000
    outer loop
      vertex   8.512757e-002 5.532197e-002 0.000000e+000
      vertex   -9.047402e-002 4.606165e-002 0.000000e+000
      vertex   -8.568591e-002 5.445318e-002 0.000000e+000
    endloop
  endfacet
  facet normal -0.000000e+000 0.000000e+000 -1.000000e+000
    outer loop
      vertex   7.948342e-002 6.316336e-002 0.000000e+000
      vertex   -8.568591e-002 5.445318e-002 0.000000e+000
      vertex   -8.012181e-002 6.235158e-002 0.000000e+000
    endloop
  endfacet
  facet normal -0.000000e+000 0.000000e+000 -1.000000e+000
    outer loop
      vertex   7.311945e-002 7.043273e-002 0.000000e+000
      vertex   -8.012181e-002 6.235158e-002 0.000000e+000
      vertex   -7.383212e-002 6.968531e-002 0.000000e+000
    endloop
  endfacet
  facet normal -0.000000e+000 0.000000e+000 -1.000000e+000
    outer loop
      vertex   6.609330e-002 7.706425e-002 0.000000e+000
      vertex   -7.383212e-002 6.968531e-002 0.000000e+000
      vertex   -6.687379e-002 7.638796e-002 0.000000e+000
    endloop
  endfacet
  facet normal -0.000000e+000 0.000000e+000 -1.000000e+000
    outer loop
      vertex   5.846861e-002 8.299787e-002 0.000000e+000
      vertex   -6.687379e-002 7.638796e-002 0.000000e+000
      vertex   -5.930985e-002 8.239882e-002 0.000000e+000
    endloop
  endfacet
  facet normal -0.000000e+000 0.000000e+000 -1.000000e+000
    outer loop
      vertex   5.031441e-002 8.817984e-002 0.000000e+000
      vertex   -5.930985e-002 8.239882e-002 0.000000e+000
      vertex   -5.120878e-002 8.766348e-002 0.000000e+000
    endloop
  endfacet
  facet normal -0.000000e+000 0.000000e+000 -1.000000e+000
    outer loop
      vertex   4.170455e-002 9.256325e-002 0.000000e+000
      vertex   -5.120878e-002 8.766348e-002 0.000000e+000
      vertex   -4.264396e-002 9.213423e-002 0.000000e+000
    endloop
  endfacet
  facet normal -0.000000e+000 0.000000e+000 -1.000000e+000
    outer loop
      vertex   3.271701e-002 9.610838e-002 0.000000e+000
      vertex   -4.264396e-002 9.213423e-002 0.000000e+000
      vertex   -3.369295e-002 9.577061e-002 0.000000e+000
    endloop
  endfacet
  facet normal -0.000000e+000 0.000000e+000 -1.000000e+000
    outer loop
      vertex   2.343319e-002 9.878315e-002 0.000000e+000
      vertex   -3.369295e-002 9.577061e-002 0.000000e+000
      vertex   -2.443681e-002 9.853967e-002 0.000000e+000
    endloop
  endfacet
  facet normal -0.000000e+000 0.000000e+000 -1.000000e+000
    outer loop
      vertex   1.393714e-002 1.005633e-001 0.000000e+000
      vertex   -2.443681e-002 9.853967e-002 0.000000e+000
      vertex   -1.495937e-002 1.004163e-001 0.000000e+000
    endloop
  endfacet
  facet normal -0.000000e+000 0.000000e+000 -1.000000e+000
    outer loop
      vertex   4.314886e-003 1.014328e-001 0.000000e+000
      vertex   -1.495937e-002 1.004163e-001 0.000000e+000
      vertex   -5.346450e-003 1.013836e-001 0.000000e+000
    endloop
  endfacet
  facet normal 0.000000e+000 -0.000000e+000 -1.000000e+000
    outer loop
      vertex   4.314886e-003 1.014328e-001 0.000000e+000
      vertex   1.393714e-002 1.005633e-001 0.000000e+000
      vertex   -1.495937e-002 1.004163e-001 0.000000e+000
    endloop
  endfacet
  facet normal -0.000000e+000 0.000000e+000 -1.000000e+000
    outer loop
      vertex   1.010144e-001 1.016442e-002 0.000000e+000
      vertex   -1.011126e-001 9.136364e-003 0.000000e+000
      vertex   9.959081e-002 1.972042e-002 0.000000e+000
    endloop
  endfacet
  facet normal -0.000000e+000 0.000000e+000 -1.000000e+000
    outer loop
      vertex   9.959081e-002 1.972042e-002 0.000000e+000
      vertex   -9.978625e-002 1.870635e-002 0.000000e+000
      vertex   9.726531e-002 2.909784e-002 0.000000e+000
    endloop
  endfacet
  facet normal -0.000000e+000 0.000000e+000 -1.000000e+000
    outer loop
      vertex   9.726531e-002 2.909784e-002 0.000000e+000
      vertex   -9.755626e-002 2.810694e-002 0.000000e+000
      vertex   9.405896e-002 3.821174e-002 0.000000e+000
    endloop
  endfacet
  facet normal -0.000000e+000 0.000000e+000 -1.000000e+000
    outer loop
      vertex   9.405896e-002 3.821174e-002 0.000000e+000
      vertex   -9.444279e-002 3.725298e-002 0.000000e+000
      vertex   9.000079e-002 4.697958e-002 0.000000e+000
    endloop
  endfacet
  facet normal -0.000000e+000 0.000000e+000 -1.000000e+000
    outer loop
      vertex   9.000079e-002 4.697958e-002 0.000000e+000
      vertex   -9.047402e-002 4.606165e-002 0.000000e+000
      vertex   8.512757e-002 5.532197e-002 0.000000e+000
    endloop
  endfacet
  facet normal -0.000000e+000 0.000000e+000 -1.000000e+000
    outer loop
      vertex   8.512757e-002 5.532197e-002 0.000000e+000
      vertex   -8.568591e-002 5.445318e-002 0.000000e+000
      vertex   7.948342e-002 6.316336e-002 0.000000e+000
    endloop
  endfacet
  facet normal -0.000000e+000 0.000000e+000 -1.000000e+000
    outer loop
      vertex   7.948342e-002 6.316336e-002 0.000000e+000
      vertex   -8.012181e-002 6.235158e-002 0.000000e+000
      vertex   7.311945e-002 7.043273e-002 0.000000e+000
    endloop
  endfacet
  facet normal -0.000000e+000 0.000000e+000 -1.000000e+000
    outer loop
      vertex   7.311945e-002 7.043273e-002 0.000000e+000
      vertex   -7.383212e-002 6.968531e-002 0.000000e+000
      vertex   6.609330e-002 7.706425e-002 0.000000e+000
    endloop
  endfacet
  facet normal -0.000000e+000 0.000000e+000 -1.000000e+000
    outer loop
      vertex   6.609330e-002 7.706425e-002 0.000000e+000
      vertex   -6.687379e-002 7.638796e-002 0.000000e+000
      vertex   5.846861e-002 8.299787e-002 0.000000e+000
    endloop
  endfacet
  facet normal -0.000000e+000 0.000000e+000 -1.000000e+000
    outer loop
      vertex   5.846861e-002 8.299787e-002 0.000000e+000
      vertex   -5.930985e-002 8.239882e-002 0.000000e+000
      vertex   5.031441e-002 8.817984e-002 0.000000e+000
    endloop
  endfacet
  facet normal -0.000000e+000 0.000000e+000 -1.000000e+000
    outer loop
      vertex   5.031441e-002 8.817984e-002 0.000000e+000
      vertex   -5.120878e-002 8.766348e-002 0.000000e+000
      vertex   4.170455e-002 9.256325e-002 0.000000e+000
    endloop
  endfacet
  facet normal -0.000000e+000 0.000000e+000 -1.000000e+000
    outer loop
      vertex   4.170455e-002 9.256325e-002 0.000000e+000
      vertex   -4.264396e-002 9.213423e-002 0.000000e+000
      vertex   3.271701e-002 9.610838e-002 0.000000e+000
    endloop
  endfacet
  facet normal -0.000000e+000 0.000000e+000 -1.000000e+000
    outer loop
      vertex   3.271701e-002 9.610838e-002 0.000000e+000
      vertex   -3.369295e-002 9.577061e-002 0.000000e+000
      vertex   2.343319e-002 9.878315e-002 0.000000e+000
    endloop
  endfacet
  facet normal -0.000000e+000 0.000000e+000 -1.000000e+000
    outer loop
      vertex   2.343319e-002 9.878315e-002 0.000000e+000
      vertex   -2.443681e-002 9.853967e-002 0.000000e+000
      vertex   1.393714e-002 1.005633e-001 0.000000e+000
    endloop
  endfacet
  facet normal 0.000000e+000 0.000000e+000 1.000000e+000
    outer loop
      vertex   1.010144e-001 1.016442e-002 1.891000e-001
      vertex   -1.011126e-001 9.136364e-003 1.891000e-001
      vertex   1.015232e-001 5.163669e-004 1.891000e-001
    endloop
  endfacet
  facet normal 0.000000e+000 0.000000e+000 1.000000e+000
    outer loop
      vertex   1.010144e-001 1.016442e-002 1.891000e-001
      vertex   -9.978625e-002 1.870635e-002 1.891000e-001
      vertex   -1.011126e-001 9.136364e-003 1.891000e-001
    endloop
  endfacet
  facet normal 0.000000e+000 0.000000e+000 1.000000e+000
    outer loop
      vertex   1.010144e-001 1.016442e-002 1.891000e-001
      vertex   9.959081e-002 1.972042e-002 1.891000e-001
      vertex   -9.978625e-002 1.870635e-002 1.891000e-001
    endloop
  endfacet
  facet normal 0.000000e+000 -0.000000e+000 1.000000e+000
    outer loop
      vertex   -9.978625e-002 1.870635e-002 1.891000e-001
      vertex   9.959081e-002 1.972042e-002 1.891000e-001
      vertex   -9.755626e-002 2.810694e-002 1.891000e-001
    endloop
  endfacet
  facet normal -0.000000e+000 -0.000000e+000 1.000000e+000
    outer loop
      vertex   -9.755626e-002 2.810694e-002 1.891000e-001
      vertex   9.959081e-002 1.972042e-002 1.891000e-001
      vertex   9.726531e-002 2.909784e-002 1.891000e-001
    endloop
  endfacet
  facet normal -0.000000e+000 -0.000000e+000 1.000000e+000
    outer loop
      vertex   -9.444279e-002 3.725298e-002 1.891000e-001
      vertex   9.726531e-002 2.909784e-002 1.891000e-001
      vertex   9.405896e-002 3.821174e-002 1.891000e-001
    endloop
  endfacet
  facet normal -0.000000e+000 -0.000000e+000 1.000000e+000
    outer loop
      vertex   -9.047402e-002 4.606165e-002 1.891000e-001
      vertex   9.405896e-002 3.821174e-002 1.891000e-001
      vertex   9.000079e-002 4.697958e-002 1.891000e-001
    endloop
  endfacet
  facet normal -0.000000e+000 -0.000000e+000 1.000000e+000
    outer loop
      vertex   -8.568591e-002 5.445318e-002 1.891000e-001
      vertex   9.000079e-002 4.697958e-002 1.891000e-001
      vertex   8.512757e-002 5.532197e-002 1.891000e-001
    endloop
  endfacet
  facet normal -0.000000e+000 -0.000000e+000 1.000000e+000
    outer loop
      vertex   -8.012181e-002 6.235158e-002 1.891000e-001
      vertex   8.512757e-002 5.532197e-002 1.891000e-001
      vertex   7.948342e-002 6.316336e-002 1.891000e-001
    endloop
  endfacet
  facet normal -0.000000e+000 -0.000000e+000 1.000000e+000
    outer loop
      vertex   -7.383212e-002 6.968531e-002 1.891000e-001
      vertex   7.948342e-002 6.316336e-002 1.891000e-001
      vertex   7.311945e-002 7.043273e-002 1.891000e-001
    endloop
  endfacet
  facet normal -0.000000e+000 -0.000000e+000 1.000000e+000
    outer loop
      vertex   -6.687379e-002 7.638796e-002 1.891000e-001
      vertex   7.311945e-002 7.043273e-002 1.891000e-001
      vertex   6.609330e-002 7.706425e-002 1.891000e-001
    endloop
  endfacet
  facet normal -0.000000e+000 -0.000000e+000 1.000000e+000
    outer loop
      vertex   -5.930985e-002 8.239882e-002 1.891000e-001
      vertex   6.609330e-002 7.706425e-002 1.891000e-001
      vertex   5.846861e-002 8.299787e-002 1.891000e-001
    endloop
  endfacet
  facet normal -0.000000e+000 -0.000000e+000 1.000000e+000
    outer loop
      vertex   -5.120878e-002 8.766348e-002 1.891000e-001
      vertex   5.846861e-002 8.299787e-002 1.891000e-001
      vertex   5.031441e-002 8.817984e-002 1.891000e-001
    endloop
  endfacet
  facet normal -0.000000e+000 -0.000000e+000 1.000000e+000
    outer loop
      vertex   -4.264396e-002 9.213423e-002 1.891000e-001
      vertex   5.031441e-002 8.817984e-002 1.891000e-001
      vertex   4.170455e-002 9.256325e-002 1.891000e-001
    endloop
  endfacet
  facet normal -0.000000e+000 -0.000000e+000 1.000000e+000
    outer loop
      vertex   -3.369295e-002 9.577061e-002 1.891000e-001
      vertex   4.170455e-002 9.256325e-002 1.891000e-001
      vertex   3.271701e-002 9.610838e-002 1.891000e-001
    endloop
  endfacet
  facet normal -0.000000e+000 -0.000000e+000 1.000000e+000
    outer loop
      vertex   -2.443681e-002 9.853967e-002 1.891000e-001
      vertex   3.271701e-002 9.610838e-002 1.891000e-001
      vertex   2.343319e-002 9.878315e-002 1.891000e-001
    endloop
  endfacet
  facet normal -0.000000e+000 -0.000000e+000 1.000000e+000
    outer loop
      vertex   -1.495937e-002 1.004163e-001 1.891000e-001
      vertex   2.343319e-002 9.878315e-002 1.891000e-001
      vertex   1.393714e-002 1.005633e-001 1.891000e-001
    endloop
  endfacet
  facet normal -0.000000e+000 -0.000000e+000 1.000000e+000
    outer loop
      vertex   -5.346450e-003 1.013836e-001 1.891000e-001
      vertex   1.393714e-002 1.005633e-001 1.891000e-001
      vertex   4.314886e-003 1.014328e-001 1.891000e-001
    endloop
  endfacet
  facet normal -0.000000e+000 0.000000e+000 1.000000e+000
    outer loop
      vertex   -5.346450e-003 1.013836e-001 1.891000e-001
      vertex   -1.495937e-002 1.004163e-001 1.891000e-001
      vertex   1.393714e-002 1.005633e-001 1.891000e-001
    endloop
  endfacet
  facet normal 0.000000e+000 -0.000000e+000 1.000000e+000
    outer loop
      vertex   -9.755626e-002 2.810694e-002 1.891000e-001
      vertex   9.726531e-002 2.909784e-002 1.891000e-001
      vertex   -9.444279e-002 3.725298e-002 1.891000e-001
    endloop
  endfacet
  facet normal 0.000000e+000 -0.000000e+000 1.000000e+000
    outer loop
      vertex   -9.444279e-002 3.725298e-002 1.891000e-001
      vertex   9.405896e-002 3.821174e-002 1.891000e-001
      vertex   -9.047402e-002 4.606165e-002 1.891000e-001
    endloop
  endfacet
  facet normal 0.000000e+000 -0.000000e+000 1.000000e+000
    outer loop
      vertex   -9.047402e-002 4.606165e-002 1.891000e-001
      vertex   9.000079e-002 4.697958e-002 1.891000e-001
      vertex   -8.568591e-002 5.445318e-002 1.891000e-001
    endloop
  endfacet
  facet normal 0.000000e+000 -0.000000e+000 1.000000e+000
    outer loop
      vertex   -8.568591e-002 5.445318e-002 1.891000e-001
      vertex   8.512757e-002 5.532197e-002 1.891000e-001
      vertex   -8.012181e-002 6.235158e-002 1.891000e-001
    endloop
  endfacet
  facet normal 0.000000e+000 -0.000000e+000 1.000000e+000
    outer loop
      vertex   -8.012181e-002 6.235158e-002 1.891000e-001
      vertex   7.948342e-002 6.316336e-002 1.891000e-001
      vertex   -7.383212e-002 6.968531e-002 1.891000e-001
    endloop
  endfacet
  facet normal 0.000000e+000 -0.000000e+000 1.000000e+000
    outer loop
      vertex   -7.383212e-002 6.968531e-002 1.891000e-001
      vertex   7.311945e-002 7.043273e-002 1.891000e-001
      vertex   -6.687379e-002 7.638796e-002 1.891000e-001
    endloop
  endfacet
  facet normal 0.000000e+000 -0.000000e+000 1.000000e+000
    outer loop
      vertex   -6.687379e-002 7.638796e-002 1.891000e-001
      vertex   6.609330e-002 7.706425e-002 1.891000e-001
      vertex   -5.930985e-002 8.239882e-002 1.891000e-001
    endloop
  endfacet
  facet normal 0.000000e+000 -0.000000e+000 1.000000e+000
    outer loop
      vertex   -5.930985e-002 8.239882e-002 1.891000e-001
      vertex   5.846861e-002 8.299787e-002 1.891000e-001
      vertex   -5.120878e-002 8.766348e-002 1.891000e-001
    endloop
  endfacet
  facet normal 0.000000e+000 -0.000000e+000 1.000000e+000
    outer loop
      vertex   -5.120878e-002 8.766348e-002 1.891000e-001
      vertex   5.031441e-002 8.817984e-002 1.891000e-001
      vertex   -4.264396e-002 9.213423e-002 1.891000e-001
    endloop
  endfacet
  facet normal 0.000000e+000 -0.000000e+000 1.000000e+000
    outer loop
      vertex   -4.264396e-002 9.213423e-002 1.891000e-001
      vertex   4.170455e-002 9.256325e-002 1.891000e-001
      vertex   -3.369295e-002 9.577061e-002 1.891000e-001
    endloop
  endfacet
  facet normal 0.000000e+000 -0.000000e+000 1.000000e+000
    outer loop
      vertex   -3.369295e-002 9.577061e-002 1.891000e-001
      vertex   3.271701e-002 9.610838e-002 1.891000e-001
      vertex   -2.443681e-002 9.853967e-002 1.891000e-001
    endloop
  endfacet
  facet normal 0.000000e+000 -0.000000e+000 1.000000e+000
    outer loop
      vertex   -2.443681e-002 9.853967e-002 1.891000e-001
      vertex   2.343319e-002 9.878315e-002 1.891000e-001
      vertex   -1.495937e-002 1.004163e-001 1.891000e-001
    endloop
  endfacet
  facet normal -0.000000e+000 0.000000e+000 1.000000e+000
    outer loop
      vertex   -1.011126e-001 9.136364e-003 1.891000e-001
      vertex   -1.015232e-001 -5.163669e-004 1.891000e-001
      vertex   1.015232e-001 5.163669e-004 1.891000e-001
    endloop
  endfacet
  facet normal 0.000000e+000 0.000000e+000 1.000000e+000
    outer loop
      vertex   1.015232e-001 5.163669e-004 1.891000e-001
      vertex   -1.015232e-001 -5.163669e-004 1.891000e-001
      vertex   1.011126e-001 -9.136364e-003 1.891000e-001
    endloop
  endfacet
  facet normal 0.000000e+000 0.000000e+000 1.000000e+000
    outer loop
      vertex   1.011126e-001 -9.136364e-003 1.891000e-001
      vertex   -1.015232e-001 -5.163669e-004 1.891000e-001
      vertex   -1.010144e-001 -1.016442e-002 1.891000e-001
    endloop
  endfacet
  facet normal 0.000000e+000 0.000000e+000 1.000000e+000
    outer loop
      vertex   9.978625e-002 -1.870635e-002 1.891000e-001
      vertex   -1.010144e-001 -1.016442e-002 1.891000e-001
      vertex   -9.959081e-002 -1.972042e-002 1.891000e-001
    endloop
  endfacet
  facet normal 0.000000e+000 0.000000e+000 1.000000e+000
    outer loop
      vertex   9.755626e-002 -2.810694e-002 1.891000e-001
      vertex   -9.959081e-002 -1.972042e-002 1.891000e-001
      vertex   -9.726531e-002 -2.909784e-002 1.891000e-001
    endloop
  endfacet
  facet normal 0.000000e+000 0.000000e+000 1.000000e+000
    outer loop
      vertex   9.444279e-002 -3.725298e-002 1.891000e-001
      vertex   -9.726531e-002 -2.909784e-002 1.891000e-001
      vertex   -9.405896e-002 -3.821174e-002 1.891000e-001
    endloop
  endfacet
  facet normal 0.000000e+000 0.000000e+000 1.000000e+000
    outer loop
      vertex   9.047402e-002 -4.606165e-002 1.891000e-001
      vertex   -9.405896e-002 -3.821174e-002 1.891000e-001
      vertex   -9.000079e-002 -4.697958e-002 1.891000e-001
    endloop
  endfacet
  facet normal 0.000000e+000 0.000000e+000 1.000000e+000
    outer loop
      vertex   8.568591e-002 -5.445318e-002 1.891000e-001
      vertex   -9.000079e-002 -4.697958e-002 1.891000e-001
      vertex   -8.512757e-002 -5.532197e-002 1.891000e-001
    endloop
  endfacet
  facet normal 0.000000e+000 0.000000e+000 1.000000e+000
    outer loop
      vertex   8.012181e-002 -6.235158e-002 1.891000e-001
      vertex   -8.512757e-002 -5.532197e-002 1.891000e-001
      vertex   -7.948342e-002 -6.316336e-002 1.891000e-001
    endloop
  endfacet
  facet normal 0.000000e+000 0.000000e+000 1.000000e+000
    outer loop
      vertex   7.383212e-002 -6.968531e-002 1.891000e-001
      vertex   -7.948342e-002 -6.316336e-002 1.891000e-001
      vertex   -7.311945e-002 -7.043273e-002 1.891000e-001
    endloop
  endfacet
  facet normal 0.000000e+000 0.000000e+000 1.000000e+000
    outer loop
      vertex   6.687379e-002 -7.638796e-002 1.891000e-001
      vertex   -7.311945e-002 -7.043273e-002 1.891000e-001
      vertex   -6.609330e-002 -7.706425e-002 1.891000e-001
    endloop
  endfacet
  facet normal 0.000000e+000 0.000000e+000 1.000000e+000
    outer loop
      vertex   5.930985e-002 -8.239882e-002 1.891000e-001
      vertex   -6.609330e-002 -7.706425e-002 1.891000e-001
      vertex   -5.846861e-002 -8.299787e-002 1.891000e-001
    endloop
  endfacet
  facet normal 0.000000e+000 0.000000e+000 1.000000e+000
    outer loop
      vertex   5.120878e-002 -8.766348e-002 1.891000e-001
      vertex   -5.846861e-002 -8.299787e-002 1.891000e-001
      vertex   -5.031441e-002 -8.817984e-002 1.891000e-001
    endloop
  endfacet
  facet normal 0.000000e+000 0.000000e+000 1.000000e+000
    outer loop
      vertex   4.264396e-002 -9.213423e-002 1.891000e-001
      vertex   -5.031441e-002 -8.817984e-002 1.891000e-001
      vertex   -4.170455e-002 -9.256325e-002 1.891000e-001
    endloop
  endfacet
  facet normal 0.000000e+000 0.000000e+000 1.000000e+000
    outer loop
      vertex   3.369295e-002 -9.577061e-002 1.891000e-001
      vertex   -4.170455e-002 -9.256325e-002 1.891000e-001
      vertex   -3.271701e-002 -9.610838e-002 1.891000e-001
    endloop
  endfacet
  facet normal 0.000000e+000 0.000000e+000 1.000000e+000
    outer loop
      vertex   2.443681e-002 -9.853967e-002 1.891000e-001
      vertex   -3.271701e-002 -9.610838e-002 1.891000e-001
      vertex   -2.343319e-002 -9.878315e-002 1.891000e-001
    endloop
  endfacet
  facet normal 0.000000e+000 0.000000e+000 1.000000e+000
    outer loop
      vertex   1.495937e-002 -1.004163e-001 1.891000e-001
      vertex   -2.343319e-002 -9.878315e-002 1.891000e-001
      vertex   -1.393714e-002 -1.005633e-001 1.891000e-001
    endloop
  endfacet
  facet normal 0.000000e+000 0.000000e+000 1.000000e+000
    outer loop
      vertex   5.346450e-003 -1.013836e-001 1.891000e-001
      vertex   -1.393714e-002 -1.005633e-001 1.891000e-001
      vertex   -4.314886e-003 -1.014328e-001 1.891000e-001
    endloop
  endfacet
  facet normal 0.000000e+000 -0.000000e+000 1.000000e+000
    outer loop
      vertex   5.346450e-003 -1.013836e-001 1.891000e-001
      vertex   1.495937e-002 -1.004163e-001 1.891000e-001
      vertex   -1.393714e-002 -1.005633e-001 1.891000e-001
    endloop
  endfacet
  facet normal 0.000000e+000 0.000000e+000 1.000000e+000
    outer loop
      vertex   1.011126e-001 -9.136364e-003 1.891000e-001
      vertex   -1.010144e-001 -1.016442e-002 1.891000e-001
      vertex   9.978625e-002 -1.870635e-002 1.891000e-001
    endloop
  endfacet
  facet normal 0.000000e+000 0.000000e+000 1.000000e+000
    outer loop
      vertex   9.978625e-002 -1.870635e-002 1.891000e-001
      vertex   -9.959081e-002 -1.972042e-002 1.891000e-001
      vertex   9.755626e-002 -2.810694e-002 1.891000e-001
    endloop
  endfacet
  facet normal 0.000000e+000 0.000000e+000 1.000000e+000
    outer loop
      vertex   9.755626e-002 -2.810694e-002 1.891000e-001
      vertex   -9.726531e-002 -2.909784e-002 1.891000e-001
      vertex   9.444279e-002 -3.725298e-002 1.891000e-001
    endloop
  endfacet
  facet normal 0.000000e+000 0.000000e+000 1.000000e+000
    outer loop
      vertex   9.444279e-002 -3.725298e-002 1.891000e-001
      vertex   -9.405896e-002 -3.821174e-002 1.891000e-001
      vertex   9.047402e-002 -4.606165e-002 1.891000e-001
    endloop
  endfacet
  facet normal 0.000000e+000 0.000000e+000 1.000000e+000
    outer loop
      vertex   9.047402e-002 -4.606165e-002 1.891000e-001
      vertex   -9.000079e-002 -4.697958e-002 1.891000e-001
      vertex   8.568591e-002 -5.445318e-002 1.891000e-001
    endloop
  endfacet
  facet normal 0.000000e+000 0.000000e+000 1.000000e+000
    outer loop
      vertex   8.568591e-002 -5.445318e-002 1.891000e-001
      vertex   -8.512757e-002 -5.532197e-002 1.891000e-001
      vertex   8.012181e-002 -6.235158e-002 1.891000e-001
    endloop
  endfacet
  facet normal 0.000000e+000 0.000000e+000 1.000000e+000
    outer loop
      vertex   8.012181e-002 -6.235158e-002 1.891000e-001
      vertex   -7.948342e-002 -6.316336e-002 1.891000e-001
      vertex   7.383212e-002 -6.968531e-002 1.891000e-001
    endloop
  endfacet
  facet normal 0.000000e+000 0.000000e+000 1.000000e+000
    outer loop
      vertex   7.383212e-002 -6.968531e-002 1.891000e-001
      vertex   -7.311945e-002 -7.043273e-002 1.891000e-001
      vertex   6.687379e-002 -7.638796e-002 1.891000e-001
    endloop
  endfacet
  facet normal 0.000000e+000 0.000000e+000 1.000000e+000
    outer loop
      vertex   6.687379e-002 -7.638796e-002 1.891000e-001
      vertex   -6.609330e-002 -7.706425e-002 1.891000e-001
      vertex   5.930985e-002 -8.239882e-002 1.891000e-001
    endloop
  endfacet
  facet normal 0.000000e+000 0.000000e+000 1.000000e+000
    outer loop
      vertex   5.930985e-002 -8.239882e-002 1.891000e-001
      vertex   -5.846861e-002 -8.299787e-002 1.891000e-001
      vertex   5.120878e-002 -8.766348e-002 1.891000e-001
    endloop
  endfacet
  facet normal 0.000000e+000 0.000000e+000 1.000000e+000
    outer loop
      vertex   5.120878e-002 -8.766348e-002 1.891000e-001
      vertex   -5.031441e-002 -8.817984e-002 1.891000e-001
      vertex   4.264396e-002 -9.213423e-002 1.891000e-001
    endloop
  endfacet
  facet normal 0.000000e+000 0.000000e+000 1.000000e+000
    outer loop
      vertex   4.264396e-002 -9.213423e-002 1.891000e-001
      vertex   -4.170455e-002 -9.256325e-002 1.891000e-001
      vertex   3.369295e-002 -9.577061e-002 1.891000e-001
    endloop
  endfacet
  facet normal 0.000000e+000 0.000000e+000 1.000000e+000
    outer loop
      vertex   3.369295e-002 -9.577061e-002 1.891000e-001
      vertex   -3.271701e-002 -9.610838e-002 1.891000e-001
      vertex   2.443681e-002 -9.853967e-002 1.891000e-001
    endloop
  endfacet
  facet normal 0.000000e+000 0.000000e+000 1.000000e+000
    outer loop
      vertex   2.443681e-002 -9.853967e-002 1.891000e-001
      vertex   -2.343319e-002 -9.878315e-002 1.891000e-001
      vertex   1.495937e-002 -1.004163e-001 1.891000e-001
    endloop
  endfacet
  facet normal -1.000000e+000 -1.652715e-016 0.000000e+000
    outer loop
      vertex   1.009609e-001 4.133084e-002 1.642230e-001
      vertex   1.009609e-001 -4.263882e-002 1.642230e-001
      vertex   1.009609e-001 4.133084e-002 1.781000e-001
    endloop
  endfacet
  facet normal -1.000000e+000 -1.652715e-016 0.000000e+000
    outer loop
      vertex   1.009609e-001 4.133084e-002 1.781000e-001
      vertex   1.009609e-001 -4.263882e-002 1.642230e-001
      vertex   1.009609e-001 -4.263882e-002 1.781000e-001
    endloop
  endfacet
  facet normal 0.000000e+000 1.000000e+000 -0.000000e+000
    outer loop
      vertex   1.249609e-001 4.133084e-002 1.642230e-001
      vertex   1.009609e-001 4.133084e-002 1.642230e-001
      vertex   1.249609e-001 4.133084e-002 1.781000e-001
    endloop
  endfacet
  facet normal 2.891206e-016 1.000000e+000 -5.000284e-016
    outer loop
      vertex   1.249609e-001 4.133084e-002 1.781000e-001
      vertex   1.009609e-001 4.133084e-002 1.642230e-001
      vertex   1.009609e-001 4.133084e-002 1.781000e-001
    endloop
  endfacet
  facet normal 1.000000e+000 0.000000e+000 -0.000000e+000
    outer loop
      vertex   1.249609e-001 -4.263882e-002 1.642230e-001
      vertex   1.249609e-001 4.133084e-002 1.642230e-001
      vertex   1.249609e-001 -4.263882e-002 1.781000e-001
    endloop
  endfacet
  facet normal 1.000000e+000 -0.000000e+000 0.000000e+000
    outer loop
      vertex   1.249609e-001 -4.263882e-002 1.781000e-001
      vertex   1.249609e-001 4.133084e-002 1.642230e-001
      vertex   1.249609e-001 4.133084e-002 1.781000e-001
    endloop
  endfacet
  facet normal 0.000000e+000 -1.000000e+000 0.000000e+000
    outer loop
      vertex   1.009609e-001 -4.263882e-002 1.642230e-001
      vertex   1.249609e-001 -4.263882e-002 1.642230e-001
      vertex   1.009609e-001 -4.263882e-002 1.781000e-001
    endloop
  endfacet
  facet normal 0.000000e+000 -1.000000e+000 0.000000e+000
    outer loop
      vertex   1.009609e-001 -4.263882e-002 1.781000e-001
      vertex   1.249609e-001 -4.263882e-002 1.642230e-001
      vertex   1.249609e-001 -4.263882e-002 1.781000e-001
    endloop
  endfacet
  facet normal 0.000000e+000 0.000000e+000 -1.000000e+000
    outer loop
      vertex   1.249609e-001 -4.263882e-002 1.642230e-001
      vertex   1.009609e-001 -4.263882e-002 1.642230e-001
      vertex   1.249609e-001 4.133084e-002 1.642230e-001
    endloop
  endfacet
  facet normal -0.000000e+000 0.000000e+000 -1.000000e+000
    outer loop
      vertex   1.249609e-001 4.133084e-002 1.642230e-001
      vertex   1.009609e-001 -4.263882e-002 1.642230e-001
      vertex   1.009609e-001 4.133084e-002 1.642230e-001
    endloop
  endfacet
  facet normal 0.000000e+000 -0.000000e+000 1.000000e+000
    outer loop
      vertex   1.009609e-001 -4.263882e-002 1.781000e-001
      vertex   1.249609e-001 -4.263882e-002 1.781000e-001
      vertex   1.009609e-001 4.133084e-002 1.781000e-001
    endloop
  endfacet
  facet normal -0.000000e+000 0.000000e+000 1.000000e+000
    outer loop
      vertex   1.009609e-001 4.133084e-002 1.781000e-001
      vertex   1.249609e-001 -4.263882e-002 1.781000e-001
      vertex   1.249609e-001 4.133084e-002 1.781000e-001
    endloop
  endfacet
  facet normal -1.000000e+000 -3.140158e-015 0.000000e+000
    outer loop
      vertex   -1.248461e-001 3.892679e-002 1.642230e-001
      vertex   -1.248461e-001 -4.504287e-002 1.642230e-001
      vertex   -1.248461e-001 3.892679e-002 1.781000e-001
    endloop
  endfacet
  facet normal -1.000000e+000 -3.140158e-015 0.000000e+000
    outer loop
      vertex   -1.248461e-001 3.892679e-002 1.781000e-001
      vertex   -1.248461e-001 -4.504287e-002 1.642230e-001
      vertex   -1.248461e-001 -4.504287e-002 1.781000e-001
    endloop
  endfacet
  facet normal -2.891206e-015 1.000000e+000 0.000000e+000
    outer loop
      vertex   -1.008461e-001 3.892679e-002 1.642230e-001
      vertex   -1.248461e-001 3.892679e-002 1.642230e-001
      vertex   -1.008461e-001 3.892679e-002 1.781000e-001
    endloop
  endfacet
  facet normal -2.891206e-015 1.000000e+000 0.000000e+000
    outer loop
      vertex   -1.008461e-001 3.892679e-002 1.781000e-001
      vertex   -1.248461e-001 3.892679e-002 1.642230e-001
      vertex   -1.248461e-001 3.892679e-002 1.781000e-001
    endloop
  endfacet
  facet normal 1.000000e+000 3.140158e-015 0.000000e+000
    outer loop
      vertex   -1.008461e-001 -4.504287e-002 1.642230e-001
      vertex   -1.008461e-001 3.892679e-002 1.642230e-001
      vertex   -1.008461e-001 -4.504287e-002 1.781000e-001
    endloop
  endfacet
  facet normal 1.000000e+000 3.140158e-015 -0.000000e+000
    outer loop
      vertex   -1.008461e-001 -4.504287e-002 1.781000e-001
      vertex   -1.008461e-001 3.892679e-002 1.642230e-001
      vertex   -1.008461e-001 3.892679e-002 1.781000e-001
    endloop
  endfacet
  facet normal 2.891206e-015 -1.000000e+000 0.000000e+000
    outer loop
      vertex   -1.248461e-001 -4.504287e-002 1.642230e-001
      vertex   -1.008461e-001 -4.504287e-002 1.642230e-001
      vertex   -1.248461e-001 -4.504287e-002 1.781000e-001
    endloop
  endfacet
  facet normal 2.891206e-015 -1.000000e+000 0.000000e+000
    outer loop
      vertex   -1.248461e-001 -4.504287e-002 1.781000e-001
      vertex   -1.008461e-001 -4.504287e-002 1.642230e-001
      vertex   -1.008461e-001 -4.504287e-002 1.781000e-001
    endloop
  endfacet
  facet normal -0.000000e+000 0.000000e+000 -1.000000e+000
    outer loop
      vertex   -1.008461e-001 -4.504287e-002 1.642230e-001
      vertex   -1.248461e-001 -4.504287e-002 1.642230e-001
      vertex   -1.008461e-001 3.892679e-002 1.642230e-001
    endloop
  endfacet
  facet normal -0.000000e+000 0.000000e+000 -1.000000e+000
    outer loop
      vertex   -1.008461e-001 3.892679e-002 1.642230e-001
      vertex   -1.248461e-001 -4.504287e-002 1.642230e-001
      vertex   -1.248461e-001 3.892679e-002 1.642230e-001
    endloop
  endfacet
  facet normal 0.000000e+000 -0.000000e+000 1.000000e+000
    outer loop
      vertex   -1.248461e-001 -4.504287e-002 1.781000e-001
      vertex   -1.008461e-001 -4.504287e-002 1.781000e-001
      vertex   -1.248461e-001 3.892679e-002 1.781000e-001
    endloop
  endfacet
  facet normal -0.000000e+000 -0.000000e+000 1.000000e+000
    outer loop
      vertex   -1.248461e-001 3.892679e-002 1.781000e-001
      vertex   -1.008461e-001 -4.504287e-002 1.781000e-001
      vertex   -1.008461e-001 3.892679e-002 1.781000e-001
    endloop
  endfacet
endsolid
