solid ascii
  facet normal 9.989931e-001 -4.486483e-002 0.000000e+000
    outer loop
      vertex   1.537815e-001 -1.403259e-002 4.437900e-002
      vertex   1.537815e-001 -1.403259e-002 0.000000e+000
      vertex   1.544117e-001 1.917123e-017 4.437900e-002
    endloop
  endfacet
  facet normal 9.909498e-001 -1.342333e-001 0.000000e+000
    outer loop
      vertex   1.537815e-001 -1.403259e-002 4.437900e-002
      vertex   1.518959e-001 -2.795219e-002 0.000000e+000
      vertex   1.537815e-001 -1.403259e-002 0.000000e+000
    endloop
  endfacet
  facet normal 9.909498e-001 -1.342333e-001 0.000000e+000
    outer loop
      vertex   1.537815e-001 -1.403259e-002 4.437900e-002
      vertex   1.518959e-001 -2.795219e-002 4.437900e-002
      vertex   1.518959e-001 -2.795219e-002 0.000000e+000
    endloop
  endfacet
  facet normal 9.749279e-001 -2.225209e-001 0.000000e+000
    outer loop
      vertex   1.518959e-001 -2.795219e-002 0.000000e+000
      vertex   1.518959e-001 -2.795219e-002 4.437900e-002
      vertex   1.487702e-001 -4.164674e-002 0.000000e+000
    endloop
  endfacet
  facet normal 9.749279e-001 -2.225209e-001 0.000000e+000
    outer loop
      vertex   1.487702e-001 -4.164674e-002 0.000000e+000
      vertex   1.518959e-001 -2.795219e-002 4.437900e-002
      vertex   1.487702e-001 -4.164674e-002 4.437900e-002
    endloop
  endfacet
  facet normal 9.510565e-001 -3.090170e-001 0.000000e+000
    outer loop
      vertex   1.444295e-001 -5.500597e-002 0.000000e+000
      vertex   1.487702e-001 -4.164674e-002 4.437900e-002
      vertex   1.444295e-001 -5.500597e-002 4.437900e-002
    endloop
  endfacet
  facet normal 9.195278e-001 -3.930250e-001 0.000000e+000
    outer loop
      vertex   1.389088e-001 -6.792233e-002 0.000000e+000
      vertex   1.444295e-001 -5.500597e-002 4.437900e-002
      vertex   1.389088e-001 -6.792233e-002 4.437900e-002
    endloop
  endfacet
  facet normal 8.805955e-001 -4.738687e-001 0.000000e+000
    outer loop
      vertex   1.322525e-001 -8.029182e-002 0.000000e+000
      vertex   1.389088e-001 -6.792233e-002 4.437900e-002
      vertex   1.322525e-001 -8.029182e-002 4.437900e-002
    endloop
  endfacet
  facet normal 8.345733e-001 -5.508970e-001 0.000000e+000
    outer loop
      vertex   1.245142e-001 -9.201484e-002 0.000000e+000
      vertex   1.322525e-001 -8.029182e-002 4.437900e-002
      vertex   1.245142e-001 -9.201484e-002 4.437900e-002
    endloop
  endfacet
  facet normal 7.818315e-001 -6.234898e-001 0.000000e+000
    outer loop
      vertex   1.157562e-001 -1.029970e-001 0.000000e+000
      vertex   1.245142e-001 -9.201484e-002 4.437900e-002
      vertex   1.157562e-001 -1.029970e-001 4.437900e-002
    endloop
  endfacet
  facet normal 7.227949e-001 -6.910626e-001 0.000000e+000
    outer loop
      vertex   1.060491e-001 -1.131499e-001 0.000000e+000
      vertex   1.157562e-001 -1.029970e-001 4.437900e-002
      vertex   1.060491e-001 -1.131499e-001 4.437900e-002
    endloop
  endfacet
  facet normal 6.579387e-001 -7.530715e-001 0.000000e+000
    outer loop
      vertex   9.547087e-002 -1.223918e-001 0.000000e+000
      vertex   1.060491e-001 -1.131499e-001 4.437900e-002
      vertex   9.547087e-002 -1.223918e-001 4.437900e-002
    endloop
  endfacet
  facet normal 5.877853e-001 -8.090170e-001 0.000000e+000
    outer loop
      vertex   8.410682e-002 -1.306483e-001 0.000000e+000
      vertex   9.547087e-002 -1.223918e-001 4.437900e-002
      vertex   8.410682e-002 -1.306483e-001 4.437900e-002
    endloop
  endfacet
  facet normal 5.128993e-001 -8.584488e-001 0.000000e+000
    outer loop
      vertex   7.204843e-002 -1.378528e-001 0.000000e+000
      vertex   8.410682e-002 -1.306483e-001 4.437900e-002
      vertex   7.204843e-002 -1.378528e-001 4.437900e-002
    endloop
  endfacet
  facet normal 4.338837e-001 -9.009689e-001 0.000000e+000
    outer loop
      vertex   5.939276e-002 -1.439475e-001 0.000000e+000
      vertex   7.204843e-002 -1.378528e-001 4.437900e-002
      vertex   5.939276e-002 -1.439475e-001 4.437900e-002
    endloop
  endfacet
  facet normal 3.513748e-001 -9.362349e-001 0.000000e+000
    outer loop
      vertex   4.624172e-002 -1.488831e-001 0.000000e+000
      vertex   5.939276e-002 -1.439475e-001 4.437900e-002
      vertex   4.624172e-002 -1.488831e-001 4.437900e-002
    endloop
  endfacet
  facet normal 2.660368e-001 -9.639629e-001 0.000000e+000
    outer loop
      vertex   3.270120e-002 -1.526201e-001 0.000000e+000
      vertex   4.624172e-002 -1.488831e-001 4.437900e-002
      vertex   3.270120e-002 -1.526201e-001 4.437900e-002
    endloop
  endfacet
  facet normal 1.785569e-001 -9.839296e-001 0.000000e+000
    outer loop
      vertex   1.888020e-002 -1.551282e-001 0.000000e+000
      vertex   3.270120e-002 -1.526201e-001 4.437900e-002
      vertex   1.888020e-002 -1.551282e-001 4.437900e-002
    endloop
  endfacet
  facet normal 8.963931e-002 -9.959743e-001 0.000000e+000
    outer loop
      vertex   4.890020e-003 -1.563874e-001 0.000000e+000
      vertex   1.888020e-002 -1.551282e-001 4.437900e-002
      vertex   4.890020e-003 -1.563874e-001 4.437900e-002
    endloop
  endfacet
  facet normal -1.975946e-015 -1.000000e+000 0.000000e+000
    outer loop
      vertex   -9.156709e-003 -1.563874e-001 0.000000e+000
      vertex   4.890020e-003 -1.563874e-001 4.437900e-002
      vertex   -9.156709e-003 -1.563874e-001 4.437900e-002
    endloop
  endfacet
  facet normal -8.963931e-002 -9.959743e-001 0.000000e+000
    outer loop
      vertex   -2.314689e-002 -1.551282e-001 0.000000e+000
      vertex   -9.156709e-003 -1.563874e-001 4.437900e-002
      vertex   -2.314689e-002 -1.551282e-001 4.437900e-002
    endloop
  endfacet
  facet normal -1.785569e-001 -9.839296e-001 0.000000e+000
    outer loop
      vertex   -3.696788e-002 -1.526201e-001 0.000000e+000
      vertex   -2.314689e-002 -1.551282e-001 4.437900e-002
      vertex   -3.696788e-002 -1.526201e-001 4.437900e-002
    endloop
  endfacet
  facet normal -2.660368e-001 -9.639629e-001 0.000000e+000
    outer loop
      vertex   -5.050841e-002 -1.488831e-001 0.000000e+000
      vertex   -3.696788e-002 -1.526201e-001 4.437900e-002
      vertex   -5.050841e-002 -1.488831e-001 4.437900e-002
    endloop
  endfacet
  facet normal -3.513748e-001 -9.362349e-001 0.000000e+000
    outer loop
      vertex   -6.365945e-002 -1.439475e-001 0.000000e+000
      vertex   -5.050841e-002 -1.488831e-001 4.437900e-002
      vertex   -6.365945e-002 -1.439475e-001 4.437900e-002
    endloop
  endfacet
  facet normal -4.338837e-001 -9.009689e-001 0.000000e+000
    outer loop
      vertex   -7.631511e-002 -1.378528e-001 0.000000e+000
      vertex   -6.365945e-002 -1.439475e-001 4.437900e-002
      vertex   -7.631511e-002 -1.378528e-001 4.437900e-002
    endloop
  endfacet
  facet normal -5.128993e-001 -8.584488e-001 0.000000e+000
    outer loop
      vertex   -8.837351e-002 -1.306483e-001 0.000000e+000
      vertex   -7.631511e-002 -1.378528e-001 4.437900e-002
      vertex   -8.837351e-002 -1.306483e-001 4.437900e-002
    endloop
  endfacet
  facet normal -5.877853e-001 -8.090170e-001 0.000000e+000
    outer loop
      vertex   -9.973756e-002 -1.223918e-001 0.000000e+000
      vertex   -8.837351e-002 -1.306483e-001 4.437900e-002
      vertex   -9.973756e-002 -1.223918e-001 4.437900e-002
    endloop
  endfacet
  facet normal -6.579387e-001 -7.530715e-001 0.000000e+000
    outer loop
      vertex   -1.103157e-001 -1.131499e-001 0.000000e+000
      vertex   -9.973756e-002 -1.223918e-001 4.437900e-002
      vertex   -1.103157e-001 -1.131499e-001 4.437900e-002
    endloop
  endfacet
  facet normal -7.227949e-001 -6.910626e-001 0.000000e+000
    outer loop
      vertex   -1.200229e-001 -1.029970e-001 0.000000e+000
      vertex   -1.103157e-001 -1.131499e-001 4.437900e-002
      vertex   -1.200229e-001 -1.029970e-001 4.437900e-002
    endloop
  endfacet
  facet normal -7.818315e-001 -6.234898e-001 0.000000e+000
    outer loop
      vertex   -1.287809e-001 -9.201484e-002 0.000000e+000
      vertex   -1.200229e-001 -1.029970e-001 4.437900e-002
      vertex   -1.287809e-001 -9.201484e-002 4.437900e-002
    endloop
  endfacet
  facet normal -8.345733e-001 -5.508970e-001 0.000000e+000
    outer loop
      vertex   -1.365192e-001 -8.029182e-002 0.000000e+000
      vertex   -1.287809e-001 -9.201484e-002 4.437900e-002
      vertex   -1.365192e-001 -8.029182e-002 4.437900e-002
    endloop
  endfacet
  facet normal -8.805955e-001 -4.738687e-001 0.000000e+000
    outer loop
      vertex   -1.431755e-001 -6.792233e-002 0.000000e+000
      vertex   -1.365192e-001 -8.029182e-002 4.437900e-002
      vertex   -1.431755e-001 -6.792233e-002 4.437900e-002
    endloop
  endfacet
  facet normal -9.195278e-001 -3.930250e-001 0.000000e+000
    outer loop
      vertex   -1.486962e-001 -5.500597e-002 0.000000e+000
      vertex   -1.431755e-001 -6.792233e-002 4.437900e-002
      vertex   -1.486962e-001 -5.500597e-002 4.437900e-002
    endloop
  endfacet
  facet normal -9.510565e-001 -3.090170e-001 0.000000e+000
    outer loop
      vertex   -1.530369e-001 -4.164674e-002 0.000000e+000
      vertex   -1.486962e-001 -5.500597e-002 4.437900e-002
      vertex   -1.530369e-001 -4.164674e-002 4.437900e-002
    endloop
  endfacet
  facet normal -9.749279e-001 -2.225209e-001 0.000000e+000
    outer loop
      vertex   -1.561626e-001 -2.795219e-002 0.000000e+000
      vertex   -1.530369e-001 -4.164674e-002 4.437900e-002
      vertex   -1.561626e-001 -2.795219e-002 4.437900e-002
    endloop
  endfacet
  facet normal -9.909498e-001 -1.342333e-001 0.000000e+000
    outer loop
      vertex   -1.580481e-001 -1.403259e-002 0.000000e+000
      vertex   -1.561626e-001 -2.795219e-002 4.437900e-002
      vertex   -1.580481e-001 -1.403259e-002 4.437900e-002
    endloop
  endfacet
  facet normal -9.989931e-001 -4.486483e-002 0.000000e+000
    outer loop
      vertex   -1.586783e-001 0.000000e+000 0.000000e+000
      vertex   -1.580481e-001 -1.403259e-002 4.437900e-002
      vertex   -1.586783e-001 0.000000e+000 4.437900e-002
    endloop
  endfacet
  facet normal -9.989931e-001 4.486483e-002 0.000000e+000
    outer loop
      vertex   -1.580481e-001 1.403259e-002 0.000000e+000
      vertex   -1.586783e-001 0.000000e+000 4.437900e-002
      vertex   -1.580481e-001 1.403259e-002 4.437900e-002
    endloop
  endfacet
  facet normal -9.909498e-001 1.342333e-001 0.000000e+000
    outer loop
      vertex   -1.561626e-001 2.795219e-002 0.000000e+000
      vertex   -1.580481e-001 1.403259e-002 4.437900e-002
      vertex   -1.561626e-001 2.795219e-002 4.437900e-002
    endloop
  endfacet
  facet normal -9.749279e-001 2.225209e-001 0.000000e+000
    outer loop
      vertex   -1.530369e-001 4.164674e-002 0.000000e+000
      vertex   -1.561626e-001 2.795219e-002 4.437900e-002
      vertex   -1.530369e-001 4.164674e-002 4.437900e-002
    endloop
  endfacet
  facet normal -9.510565e-001 3.090170e-001 0.000000e+000
    outer loop
      vertex   -1.486962e-001 5.500597e-002 0.000000e+000
      vertex   -1.530369e-001 4.164674e-002 4.437900e-002
      vertex   -1.486962e-001 5.500597e-002 4.437900e-002
    endloop
  endfacet
  facet normal -9.195278e-001 3.930250e-001 0.000000e+000
    outer loop
      vertex   -1.431755e-001 6.792233e-002 0.000000e+000
      vertex   -1.486962e-001 5.500597e-002 4.437900e-002
      vertex   -1.431755e-001 6.792233e-002 4.437900e-002
    endloop
  endfacet
  facet normal -8.805955e-001 4.738687e-001 0.000000e+000
    outer loop
      vertex   -1.365192e-001 8.029182e-002 0.000000e+000
      vertex   -1.431755e-001 6.792233e-002 4.437900e-002
      vertex   -1.365192e-001 8.029182e-002 4.437900e-002
    endloop
  endfacet
  facet normal -8.345733e-001 5.508970e-001 0.000000e+000
    outer loop
      vertex   -1.287809e-001 9.201484e-002 0.000000e+000
      vertex   -1.365192e-001 8.029182e-002 4.437900e-002
      vertex   -1.287809e-001 9.201484e-002 4.437900e-002
    endloop
  endfacet
  facet normal -7.818315e-001 6.234898e-001 0.000000e+000
    outer loop
      vertex   -1.200229e-001 1.029970e-001 0.000000e+000
      vertex   -1.287809e-001 9.201484e-002 4.437900e-002
      vertex   -1.200229e-001 1.029970e-001 4.437900e-002
    endloop
  endfacet
  facet normal -7.227949e-001 6.910626e-001 0.000000e+000
    outer loop
      vertex   -1.103157e-001 1.131499e-001 0.000000e+000
      vertex   -1.200229e-001 1.029970e-001 4.437900e-002
      vertex   -1.103157e-001 1.131499e-001 4.437900e-002
    endloop
  endfacet
  facet normal -6.579387e-001 7.530715e-001 0.000000e+000
    outer loop
      vertex   -9.973756e-002 1.223918e-001 0.000000e+000
      vertex   -1.103157e-001 1.131499e-001 4.437900e-002
      vertex   -9.973756e-002 1.223918e-001 4.437900e-002
    endloop
  endfacet
  facet normal -5.877853e-001 8.090170e-001 0.000000e+000
    outer loop
      vertex   -8.837351e-002 1.306483e-001 0.000000e+000
      vertex   -9.973756e-002 1.223918e-001 4.437900e-002
      vertex   -8.837351e-002 1.306483e-001 4.437900e-002
    endloop
  endfacet
  facet normal -5.128993e-001 8.584488e-001 0.000000e+000
    outer loop
      vertex   -7.631511e-002 1.378528e-001 0.000000e+000
      vertex   -8.837351e-002 1.306483e-001 4.437900e-002
      vertex   -7.631511e-002 1.378528e-001 4.437900e-002
    endloop
  endfacet
  facet normal -4.338837e-001 9.009689e-001 0.000000e+000
    outer loop
      vertex   -6.365945e-002 1.439475e-001 0.000000e+000
      vertex   -7.631511e-002 1.378528e-001 4.437900e-002
      vertex   -6.365945e-002 1.439475e-001 4.437900e-002
    endloop
  endfacet
  facet normal -3.513748e-001 9.362349e-001 0.000000e+000
    outer loop
      vertex   -5.050841e-002 1.488831e-001 0.000000e+000
      vertex   -6.365945e-002 1.439475e-001 4.437900e-002
      vertex   -5.050841e-002 1.488831e-001 4.437900e-002
    endloop
  endfacet
  facet normal -2.660368e-001 9.639629e-001 0.000000e+000
    outer loop
      vertex   -3.696788e-002 1.526201e-001 0.000000e+000
      vertex   -5.050841e-002 1.488831e-001 4.437900e-002
      vertex   -3.696788e-002 1.526201e-001 4.437900e-002
    endloop
  endfacet
  facet normal -1.785569e-001 9.839296e-001 0.000000e+000
    outer loop
      vertex   -2.314689e-002 1.551282e-001 0.000000e+000
      vertex   -3.696788e-002 1.526201e-001 4.437900e-002
      vertex   -2.314689e-002 1.551282e-001 4.437900e-002
    endloop
  endfacet
  facet normal -8.963931e-002 9.959743e-001 0.000000e+000
    outer loop
      vertex   -9.156709e-003 1.563874e-001 0.000000e+000
      vertex   -2.314689e-002 1.551282e-001 4.437900e-002
      vertex   -9.156709e-003 1.563874e-001 4.437900e-002
    endloop
  endfacet
  facet normal -1.975946e-015 1.000000e+000 0.000000e+000
    outer loop
      vertex   4.890020e-003 1.563874e-001 0.000000e+000
      vertex   -9.156709e-003 1.563874e-001 4.437900e-002
      vertex   4.890020e-003 1.563874e-001 4.437900e-002
    endloop
  endfacet
  facet normal 8.963931e-002 9.959743e-001 0.000000e+000
    outer loop
      vertex   1.888020e-002 1.551282e-001 0.000000e+000
      vertex   4.890020e-003 1.563874e-001 4.437900e-002
      vertex   1.888020e-002 1.551282e-001 4.437900e-002
    endloop
  endfacet
  facet normal 1.785569e-001 9.839296e-001 0.000000e+000
    outer loop
      vertex   3.270120e-002 1.526201e-001 0.000000e+000
      vertex   1.888020e-002 1.551282e-001 4.437900e-002
      vertex   3.270120e-002 1.526201e-001 4.437900e-002
    endloop
  endfacet
  facet normal 2.660368e-001 9.639629e-001 0.000000e+000
    outer loop
      vertex   4.624172e-002 1.488831e-001 0.000000e+000
      vertex   3.270120e-002 1.526201e-001 4.437900e-002
      vertex   4.624172e-002 1.488831e-001 4.437900e-002
    endloop
  endfacet
  facet normal 3.513748e-001 9.362349e-001 0.000000e+000
    outer loop
      vertex   5.939276e-002 1.439475e-001 0.000000e+000
      vertex   4.624172e-002 1.488831e-001 4.437900e-002
      vertex   5.939276e-002 1.439475e-001 4.437900e-002
    endloop
  endfacet
  facet normal 4.338837e-001 9.009689e-001 0.000000e+000
    outer loop
      vertex   7.204843e-002 1.378528e-001 0.000000e+000
      vertex   5.939276e-002 1.439475e-001 4.437900e-002
      vertex   7.204843e-002 1.378528e-001 4.437900e-002
    endloop
  endfacet
  facet normal 5.128993e-001 8.584488e-001 0.000000e+000
    outer loop
      vertex   8.410682e-002 1.306483e-001 0.000000e+000
      vertex   7.204843e-002 1.378528e-001 4.437900e-002
      vertex   8.410682e-002 1.306483e-001 4.437900e-002
    endloop
  endfacet
  facet normal 5.877853e-001 8.090170e-001 0.000000e+000
    outer loop
      vertex   9.547087e-002 1.223918e-001 0.000000e+000
      vertex   8.410682e-002 1.306483e-001 4.437900e-002
      vertex   9.547087e-002 1.223918e-001 4.437900e-002
    endloop
  endfacet
  facet normal 6.579387e-001 7.530715e-001 0.000000e+000
    outer loop
      vertex   1.060491e-001 1.131499e-001 0.000000e+000
      vertex   9.547087e-002 1.223918e-001 4.437900e-002
      vertex   1.060491e-001 1.131499e-001 4.437900e-002
    endloop
  endfacet
  facet normal 7.227949e-001 6.910626e-001 0.000000e+000
    outer loop
      vertex   1.157562e-001 1.029970e-001 0.000000e+000
      vertex   1.060491e-001 1.131499e-001 4.437900e-002
      vertex   1.157562e-001 1.029970e-001 4.437900e-002
    endloop
  endfacet
  facet normal 7.818315e-001 6.234898e-001 0.000000e+000
    outer loop
      vertex   1.245142e-001 9.201484e-002 0.000000e+000
      vertex   1.157562e-001 1.029970e-001 4.437900e-002
      vertex   1.245142e-001 9.201484e-002 4.437900e-002
    endloop
  endfacet
  facet normal 8.345733e-001 5.508970e-001 0.000000e+000
    outer loop
      vertex   1.322525e-001 8.029182e-002 0.000000e+000
      vertex   1.245142e-001 9.201484e-002 4.437900e-002
      vertex   1.322525e-001 8.029182e-002 4.437900e-002
    endloop
  endfacet
  facet normal 8.805955e-001 4.738687e-001 0.000000e+000
    outer loop
      vertex   1.389088e-001 6.792233e-002 0.000000e+000
      vertex   1.322525e-001 8.029182e-002 4.437900e-002
      vertex   1.389088e-001 6.792233e-002 4.437900e-002
    endloop
  endfacet
  facet normal 9.195278e-001 3.930250e-001 0.000000e+000
    outer loop
      vertex   1.444295e-001 5.500597e-002 0.000000e+000
      vertex   1.389088e-001 6.792233e-002 4.437900e-002
      vertex   1.444295e-001 5.500597e-002 4.437900e-002
    endloop
  endfacet
  facet normal 9.510565e-001 3.090170e-001 0.000000e+000
    outer loop
      vertex   1.487702e-001 4.164674e-002 0.000000e+000
      vertex   1.444295e-001 5.500597e-002 4.437900e-002
      vertex   1.487702e-001 4.164674e-002 4.437900e-002
    endloop
  endfacet
  facet normal 9.749279e-001 2.225209e-001 0.000000e+000
    outer loop
      vertex   1.518959e-001 2.795219e-002 0.000000e+000
      vertex   1.487702e-001 4.164674e-002 4.437900e-002
      vertex   1.518959e-001 2.795219e-002 4.437900e-002
    endloop
  endfacet
  facet normal 9.909498e-001 1.342333e-001 0.000000e+000
    outer loop
      vertex   1.537815e-001 1.403259e-002 0.000000e+000
      vertex   1.518959e-001 2.795219e-002 4.437900e-002
      vertex   1.537815e-001 1.403259e-002 4.437900e-002
    endloop
  endfacet
  facet normal 9.989931e-001 4.486483e-002 0.000000e+000
    outer loop
      vertex   1.544117e-001 1.917123e-017 0.000000e+000
      vertex   1.537815e-001 1.403259e-002 4.437900e-002
      vertex   1.544117e-001 1.917123e-017 4.437900e-002
    endloop
  endfacet
  facet normal 9.989931e-001 -4.486483e-002 0.000000e+000
    outer loop
      vertex   1.537815e-001 -1.403259e-002 0.000000e+000
      vertex   1.544117e-001 1.917123e-017 0.000000e+000
      vertex   1.544117e-001 1.917123e-017 4.437900e-002
    endloop
  endfacet
  facet normal 9.510565e-001 -3.090170e-001 0.000000e+000
    outer loop
      vertex   1.487702e-001 -4.164674e-002 0.000000e+000
      vertex   1.487702e-001 -4.164674e-002 4.437900e-002
      vertex   1.444295e-001 -5.500597e-002 0.000000e+000
    endloop
  endfacet
  facet normal 9.195278e-001 -3.930250e-001 0.000000e+000
    outer loop
      vertex   1.444295e-001 -5.500597e-002 0.000000e+000
      vertex   1.444295e-001 -5.500597e-002 4.437900e-002
      vertex   1.389088e-001 -6.792233e-002 0.000000e+000
    endloop
  endfacet
  facet normal 8.805955e-001 -4.738687e-001 0.000000e+000
    outer loop
      vertex   1.389088e-001 -6.792233e-002 0.000000e+000
      vertex   1.389088e-001 -6.792233e-002 4.437900e-002
      vertex   1.322525e-001 -8.029182e-002 0.000000e+000
    endloop
  endfacet
  facet normal 8.345733e-001 -5.508970e-001 0.000000e+000
    outer loop
      vertex   1.322525e-001 -8.029182e-002 0.000000e+000
      vertex   1.322525e-001 -8.029182e-002 4.437900e-002
      vertex   1.245142e-001 -9.201484e-002 0.000000e+000
    endloop
  endfacet
  facet normal 7.818315e-001 -6.234898e-001 0.000000e+000
    outer loop
      vertex   1.245142e-001 -9.201484e-002 0.000000e+000
      vertex   1.245142e-001 -9.201484e-002 4.437900e-002
      vertex   1.157562e-001 -1.029970e-001 0.000000e+000
    endloop
  endfacet
  facet normal 7.227949e-001 -6.910626e-001 0.000000e+000
    outer loop
      vertex   1.157562e-001 -1.029970e-001 0.000000e+000
      vertex   1.157562e-001 -1.029970e-001 4.437900e-002
      vertex   1.060491e-001 -1.131499e-001 0.000000e+000
    endloop
  endfacet
  facet normal 6.579387e-001 -7.530715e-001 0.000000e+000
    outer loop
      vertex   1.060491e-001 -1.131499e-001 0.000000e+000
      vertex   1.060491e-001 -1.131499e-001 4.437900e-002
      vertex   9.547087e-002 -1.223918e-001 0.000000e+000
    endloop
  endfacet
  facet normal 5.877853e-001 -8.090170e-001 0.000000e+000
    outer loop
      vertex   9.547087e-002 -1.223918e-001 0.000000e+000
      vertex   9.547087e-002 -1.223918e-001 4.437900e-002
      vertex   8.410682e-002 -1.306483e-001 0.000000e+000
    endloop
  endfacet
  facet normal 5.128993e-001 -8.584488e-001 0.000000e+000
    outer loop
      vertex   8.410682e-002 -1.306483e-001 0.000000e+000
      vertex   8.410682e-002 -1.306483e-001 4.437900e-002
      vertex   7.204843e-002 -1.378528e-001 0.000000e+000
    endloop
  endfacet
  facet normal 4.338837e-001 -9.009689e-001 0.000000e+000
    outer loop
      vertex   7.204843e-002 -1.378528e-001 0.000000e+000
      vertex   7.204843e-002 -1.378528e-001 4.437900e-002
      vertex   5.939276e-002 -1.439475e-001 0.000000e+000
    endloop
  endfacet
  facet normal 3.513748e-001 -9.362349e-001 0.000000e+000
    outer loop
      vertex   5.939276e-002 -1.439475e-001 0.000000e+000
      vertex   5.939276e-002 -1.439475e-001 4.437900e-002
      vertex   4.624172e-002 -1.488831e-001 0.000000e+000
    endloop
  endfacet
  facet normal 2.660368e-001 -9.639629e-001 0.000000e+000
    outer loop
      vertex   4.624172e-002 -1.488831e-001 0.000000e+000
      vertex   4.624172e-002 -1.488831e-001 4.437900e-002
      vertex   3.270120e-002 -1.526201e-001 0.000000e+000
    endloop
  endfacet
  facet normal 1.785569e-001 -9.839296e-001 0.000000e+000
    outer loop
      vertex   3.270120e-002 -1.526201e-001 0.000000e+000
      vertex   3.270120e-002 -1.526201e-001 4.437900e-002
      vertex   1.888020e-002 -1.551282e-001 0.000000e+000
    endloop
  endfacet
  facet normal 8.963931e-002 -9.959743e-001 0.000000e+000
    outer loop
      vertex   1.888020e-002 -1.551282e-001 0.000000e+000
      vertex   1.888020e-002 -1.551282e-001 4.437900e-002
      vertex   4.890020e-003 -1.563874e-001 0.000000e+000
    endloop
  endfacet
  facet normal -1.975946e-015 -1.000000e+000 0.000000e+000
    outer loop
      vertex   4.890020e-003 -1.563874e-001 0.000000e+000
      vertex   4.890020e-003 -1.563874e-001 4.437900e-002
      vertex   -9.156709e-003 -1.563874e-001 0.000000e+000
    endloop
  endfacet
  facet normal -8.963931e-002 -9.959743e-001 0.000000e+000
    outer loop
      vertex   -9.156709e-003 -1.563874e-001 0.000000e+000
      vertex   -9.156709e-003 -1.563874e-001 4.437900e-002
      vertex   -2.314689e-002 -1.551282e-001 0.000000e+000
    endloop
  endfacet
  facet normal -1.785569e-001 -9.839296e-001 0.000000e+000
    outer loop
      vertex   -2.314689e-002 -1.551282e-001 0.000000e+000
      vertex   -2.314689e-002 -1.551282e-001 4.437900e-002
      vertex   -3.696788e-002 -1.526201e-001 0.000000e+000
    endloop
  endfacet
  facet normal -2.660368e-001 -9.639629e-001 0.000000e+000
    outer loop
      vertex   -3.696788e-002 -1.526201e-001 0.000000e+000
      vertex   -3.696788e-002 -1.526201e-001 4.437900e-002
      vertex   -5.050841e-002 -1.488831e-001 0.000000e+000
    endloop
  endfacet
  facet normal -3.513748e-001 -9.362349e-001 0.000000e+000
    outer loop
      vertex   -5.050841e-002 -1.488831e-001 0.000000e+000
      vertex   -5.050841e-002 -1.488831e-001 4.437900e-002
      vertex   -6.365945e-002 -1.439475e-001 0.000000e+000
    endloop
  endfacet
  facet normal -4.338837e-001 -9.009689e-001 0.000000e+000
    outer loop
      vertex   -6.365945e-002 -1.439475e-001 0.000000e+000
      vertex   -6.365945e-002 -1.439475e-001 4.437900e-002
      vertex   -7.631511e-002 -1.378528e-001 0.000000e+000
    endloop
  endfacet
  facet normal -5.128993e-001 -8.584488e-001 0.000000e+000
    outer loop
      vertex   -7.631511e-002 -1.378528e-001 0.000000e+000
      vertex   -7.631511e-002 -1.378528e-001 4.437900e-002
      vertex   -8.837351e-002 -1.306483e-001 0.000000e+000
    endloop
  endfacet
  facet normal -5.877853e-001 -8.090170e-001 0.000000e+000
    outer loop
      vertex   -8.837351e-002 -1.306483e-001 0.000000e+000
      vertex   -8.837351e-002 -1.306483e-001 4.437900e-002
      vertex   -9.973756e-002 -1.223918e-001 0.000000e+000
    endloop
  endfacet
  facet normal -6.579387e-001 -7.530715e-001 0.000000e+000
    outer loop
      vertex   -9.973756e-002 -1.223918e-001 0.000000e+000
      vertex   -9.973756e-002 -1.223918e-001 4.437900e-002
      vertex   -1.103157e-001 -1.131499e-001 0.000000e+000
    endloop
  endfacet
  facet normal -7.227949e-001 -6.910626e-001 0.000000e+000
    outer loop
      vertex   -1.103157e-001 -1.131499e-001 0.000000e+000
      vertex   -1.103157e-001 -1.131499e-001 4.437900e-002
      vertex   -1.200229e-001 -1.029970e-001 0.000000e+000
    endloop
  endfacet
  facet normal -7.818315e-001 -6.234898e-001 0.000000e+000
    outer loop
      vertex   -1.200229e-001 -1.029970e-001 0.000000e+000
      vertex   -1.200229e-001 -1.029970e-001 4.437900e-002
      vertex   -1.287809e-001 -9.201484e-002 0.000000e+000
    endloop
  endfacet
  facet normal -8.345733e-001 -5.508970e-001 0.000000e+000
    outer loop
      vertex   -1.287809e-001 -9.201484e-002 0.000000e+000
      vertex   -1.287809e-001 -9.201484e-002 4.437900e-002
      vertex   -1.365192e-001 -8.029182e-002 0.000000e+000
    endloop
  endfacet
  facet normal -8.805955e-001 -4.738687e-001 0.000000e+000
    outer loop
      vertex   -1.365192e-001 -8.029182e-002 0.000000e+000
      vertex   -1.365192e-001 -8.029182e-002 4.437900e-002
      vertex   -1.431755e-001 -6.792233e-002 0.000000e+000
    endloop
  endfacet
  facet normal -9.195278e-001 -3.930250e-001 0.000000e+000
    outer loop
      vertex   -1.431755e-001 -6.792233e-002 0.000000e+000
      vertex   -1.431755e-001 -6.792233e-002 4.437900e-002
      vertex   -1.486962e-001 -5.500597e-002 0.000000e+000
    endloop
  endfacet
  facet normal -9.510565e-001 -3.090170e-001 0.000000e+000
    outer loop
      vertex   -1.486962e-001 -5.500597e-002 0.000000e+000
      vertex   -1.486962e-001 -5.500597e-002 4.437900e-002
      vertex   -1.530369e-001 -4.164674e-002 0.000000e+000
    endloop
  endfacet
  facet normal -9.749279e-001 -2.225209e-001 0.000000e+000
    outer loop
      vertex   -1.530369e-001 -4.164674e-002 0.000000e+000
      vertex   -1.530369e-001 -4.164674e-002 4.437900e-002
      vertex   -1.561626e-001 -2.795219e-002 0.000000e+000
    endloop
  endfacet
  facet normal -9.909498e-001 -1.342333e-001 0.000000e+000
    outer loop
      vertex   -1.561626e-001 -2.795219e-002 0.000000e+000
      vertex   -1.561626e-001 -2.795219e-002 4.437900e-002
      vertex   -1.580481e-001 -1.403259e-002 0.000000e+000
    endloop
  endfacet
  facet normal -9.989931e-001 -4.486483e-002 0.000000e+000
    outer loop
      vertex   -1.580481e-001 -1.403259e-002 0.000000e+000
      vertex   -1.580481e-001 -1.403259e-002 4.437900e-002
      vertex   -1.586783e-001 0.000000e+000 0.000000e+000
    endloop
  endfacet
  facet normal -9.989931e-001 4.486483e-002 0.000000e+000
    outer loop
      vertex   -1.586783e-001 0.000000e+000 0.000000e+000
      vertex   -1.586783e-001 0.000000e+000 4.437900e-002
      vertex   -1.580481e-001 1.403259e-002 0.000000e+000
    endloop
  endfacet
  facet normal -9.909498e-001 1.342333e-001 0.000000e+000
    outer loop
      vertex   -1.580481e-001 1.403259e-002 0.000000e+000
      vertex   -1.580481e-001 1.403259e-002 4.437900e-002
      vertex   -1.561626e-001 2.795219e-002 0.000000e+000
    endloop
  endfacet
  facet normal -9.749279e-001 2.225209e-001 0.000000e+000
    outer loop
      vertex   -1.561626e-001 2.795219e-002 0.000000e+000
      vertex   -1.561626e-001 2.795219e-002 4.437900e-002
      vertex   -1.530369e-001 4.164674e-002 0.000000e+000
    endloop
  endfacet
  facet normal -9.510565e-001 3.090170e-001 0.000000e+000
    outer loop
      vertex   -1.530369e-001 4.164674e-002 0.000000e+000
      vertex   -1.530369e-001 4.164674e-002 4.437900e-002
      vertex   -1.486962e-001 5.500597e-002 0.000000e+000
    endloop
  endfacet
  facet normal -9.195278e-001 3.930250e-001 0.000000e+000
    outer loop
      vertex   -1.486962e-001 5.500597e-002 0.000000e+000
      vertex   -1.486962e-001 5.500597e-002 4.437900e-002
      vertex   -1.431755e-001 6.792233e-002 0.000000e+000
    endloop
  endfacet
  facet normal -8.805955e-001 4.738687e-001 0.000000e+000
    outer loop
      vertex   -1.431755e-001 6.792233e-002 0.000000e+000
      vertex   -1.431755e-001 6.792233e-002 4.437900e-002
      vertex   -1.365192e-001 8.029182e-002 0.000000e+000
    endloop
  endfacet
  facet normal -8.345733e-001 5.508970e-001 0.000000e+000
    outer loop
      vertex   -1.365192e-001 8.029182e-002 0.000000e+000
      vertex   -1.365192e-001 8.029182e-002 4.437900e-002
      vertex   -1.287809e-001 9.201484e-002 0.000000e+000
    endloop
  endfacet
  facet normal -7.818315e-001 6.234898e-001 0.000000e+000
    outer loop
      vertex   -1.287809e-001 9.201484e-002 0.000000e+000
      vertex   -1.287809e-001 9.201484e-002 4.437900e-002
      vertex   -1.200229e-001 1.029970e-001 0.000000e+000
    endloop
  endfacet
  facet normal -7.227949e-001 6.910626e-001 0.000000e+000
    outer loop
      vertex   -1.200229e-001 1.029970e-001 0.000000e+000
      vertex   -1.200229e-001 1.029970e-001 4.437900e-002
      vertex   -1.103157e-001 1.131499e-001 0.000000e+000
    endloop
  endfacet
  facet normal -6.579387e-001 7.530715e-001 0.000000e+000
    outer loop
      vertex   -1.103157e-001 1.131499e-001 0.000000e+000
      vertex   -1.103157e-001 1.131499e-001 4.437900e-002
      vertex   -9.973756e-002 1.223918e-001 0.000000e+000
    endloop
  endfacet
  facet normal -5.877853e-001 8.090170e-001 0.000000e+000
    outer loop
      vertex   -9.973756e-002 1.223918e-001 0.000000e+000
      vertex   -9.973756e-002 1.223918e-001 4.437900e-002
      vertex   -8.837351e-002 1.306483e-001 0.000000e+000
    endloop
  endfacet
  facet normal -5.128993e-001 8.584488e-001 0.000000e+000
    outer loop
      vertex   -8.837351e-002 1.306483e-001 0.000000e+000
      vertex   -8.837351e-002 1.306483e-001 4.437900e-002
      vertex   -7.631511e-002 1.378528e-001 0.000000e+000
    endloop
  endfacet
  facet normal -4.338837e-001 9.009689e-001 0.000000e+000
    outer loop
      vertex   -7.631511e-002 1.378528e-001 0.000000e+000
      vertex   -7.631511e-002 1.378528e-001 4.437900e-002
      vertex   -6.365945e-002 1.439475e-001 0.000000e+000
    endloop
  endfacet
  facet normal -3.513748e-001 9.362349e-001 0.000000e+000
    outer loop
      vertex   -6.365945e-002 1.439475e-001 0.000000e+000
      vertex   -6.365945e-002 1.439475e-001 4.437900e-002
      vertex   -5.050841e-002 1.488831e-001 0.000000e+000
    endloop
  endfacet
  facet normal -2.660368e-001 9.639629e-001 0.000000e+000
    outer loop
      vertex   -5.050841e-002 1.488831e-001 0.000000e+000
      vertex   -5.050841e-002 1.488831e-001 4.437900e-002
      vertex   -3.696788e-002 1.526201e-001 0.000000e+000
    endloop
  endfacet
  facet normal -1.785569e-001 9.839296e-001 0.000000e+000
    outer loop
      vertex   -3.696788e-002 1.526201e-001 0.000000e+000
      vertex   -3.696788e-002 1.526201e-001 4.437900e-002
      vertex   -2.314689e-002 1.551282e-001 0.000000e+000
    endloop
  endfacet
  facet normal -8.963931e-002 9.959743e-001 0.000000e+000
    outer loop
      vertex   -2.314689e-002 1.551282e-001 0.000000e+000
      vertex   -2.314689e-002 1.551282e-001 4.437900e-002
      vertex   -9.156709e-003 1.563874e-001 0.000000e+000
    endloop
  endfacet
  facet normal -1.975946e-015 1.000000e+000 0.000000e+000
    outer loop
      vertex   -9.156709e-003 1.563874e-001 0.000000e+000
      vertex   -9.156709e-003 1.563874e-001 4.437900e-002
      vertex   4.890020e-003 1.563874e-001 0.000000e+000
    endloop
  endfacet
  facet normal 8.963931e-002 9.959743e-001 -0.000000e+000
    outer loop
      vertex   4.890020e-003 1.563874e-001 0.000000e+000
      vertex   4.890020e-003 1.563874e-001 4.437900e-002
      vertex   1.888020e-002 1.551282e-001 0.000000e+000
    endloop
  endfacet
  facet normal 1.785569e-001 9.839296e-001 -0.000000e+000
    outer loop
      vertex   1.888020e-002 1.551282e-001 0.000000e+000
      vertex   1.888020e-002 1.551282e-001 4.437900e-002
      vertex   3.270120e-002 1.526201e-001 0.000000e+000
    endloop
  endfacet
  facet normal 2.660368e-001 9.639629e-001 -0.000000e+000
    outer loop
      vertex   3.270120e-002 1.526201e-001 0.000000e+000
      vertex   3.270120e-002 1.526201e-001 4.437900e-002
      vertex   4.624172e-002 1.488831e-001 0.000000e+000
    endloop
  endfacet
  facet normal 3.513748e-001 9.362349e-001 -0.000000e+000
    outer loop
      vertex   4.624172e-002 1.488831e-001 0.000000e+000
      vertex   4.624172e-002 1.488831e-001 4.437900e-002
      vertex   5.939276e-002 1.439475e-001 0.000000e+000
    endloop
  endfacet
  facet normal 4.338837e-001 9.009689e-001 -0.000000e+000
    outer loop
      vertex   5.939276e-002 1.439475e-001 0.000000e+000
      vertex   5.939276e-002 1.439475e-001 4.437900e-002
      vertex   7.204843e-002 1.378528e-001 0.000000e+000
    endloop
  endfacet
  facet normal 5.128993e-001 8.584488e-001 -0.000000e+000
    outer loop
      vertex   7.204843e-002 1.378528e-001 0.000000e+000
      vertex   7.204843e-002 1.378528e-001 4.437900e-002
      vertex   8.410682e-002 1.306483e-001 0.000000e+000
    endloop
  endfacet
  facet normal 5.877853e-001 8.090170e-001 -0.000000e+000
    outer loop
      vertex   8.410682e-002 1.306483e-001 0.000000e+000
      vertex   8.410682e-002 1.306483e-001 4.437900e-002
      vertex   9.547087e-002 1.223918e-001 0.000000e+000
    endloop
  endfacet
  facet normal 6.579387e-001 7.530715e-001 -0.000000e+000
    outer loop
      vertex   9.547087e-002 1.223918e-001 0.000000e+000
      vertex   9.547087e-002 1.223918e-001 4.437900e-002
      vertex   1.060491e-001 1.131499e-001 0.000000e+000
    endloop
  endfacet
  facet normal 7.227949e-001 6.910626e-001 -0.000000e+000
    outer loop
      vertex   1.060491e-001 1.131499e-001 0.000000e+000
      vertex   1.060491e-001 1.131499e-001 4.437900e-002
      vertex   1.157562e-001 1.029970e-001 0.000000e+000
    endloop
  endfacet
  facet normal 7.818315e-001 6.234898e-001 -0.000000e+000
    outer loop
      vertex   1.157562e-001 1.029970e-001 0.000000e+000
      vertex   1.157562e-001 1.029970e-001 4.437900e-002
      vertex   1.245142e-001 9.201484e-002 0.000000e+000
    endloop
  endfacet
  facet normal 8.345733e-001 5.508970e-001 -0.000000e+000
    outer loop
      vertex   1.245142e-001 9.201484e-002 0.000000e+000
      vertex   1.245142e-001 9.201484e-002 4.437900e-002
      vertex   1.322525e-001 8.029182e-002 0.000000e+000
    endloop
  endfacet
  facet normal 8.805955e-001 4.738687e-001 -0.000000e+000
    outer loop
      vertex   1.322525e-001 8.029182e-002 0.000000e+000
      vertex   1.322525e-001 8.029182e-002 4.437900e-002
      vertex   1.389088e-001 6.792233e-002 0.000000e+000
    endloop
  endfacet
  facet normal 9.195278e-001 3.930250e-001 -0.000000e+000
    outer loop
      vertex   1.389088e-001 6.792233e-002 0.000000e+000
      vertex   1.389088e-001 6.792233e-002 4.437900e-002
      vertex   1.444295e-001 5.500597e-002 0.000000e+000
    endloop
  endfacet
  facet normal 9.510565e-001 3.090170e-001 -0.000000e+000
    outer loop
      vertex   1.444295e-001 5.500597e-002 0.000000e+000
      vertex   1.444295e-001 5.500597e-002 4.437900e-002
      vertex   1.487702e-001 4.164674e-002 0.000000e+000
    endloop
  endfacet
  facet normal 9.749279e-001 2.225209e-001 -0.000000e+000
    outer loop
      vertex   1.487702e-001 4.164674e-002 0.000000e+000
      vertex   1.487702e-001 4.164674e-002 4.437900e-002
      vertex   1.518959e-001 2.795219e-002 0.000000e+000
    endloop
  endfacet
  facet normal 9.909498e-001 1.342333e-001 -0.000000e+000
    outer loop
      vertex   1.518959e-001 2.795219e-002 0.000000e+000
      vertex   1.518959e-001 2.795219e-002 4.437900e-002
      vertex   1.537815e-001 1.403259e-002 0.000000e+000
    endloop
  endfacet
  facet normal 9.989931e-001 4.486483e-002 -0.000000e+000
    outer loop
      vertex   1.537815e-001 1.403259e-002 0.000000e+000
      vertex   1.537815e-001 1.403259e-002 4.437900e-002
      vertex   1.544117e-001 1.917123e-017 0.000000e+000
    endloop
  endfacet
  facet normal -0.000000e+000 0.000000e+000 -1.000000e+000
    outer loop
      vertex   1.544117e-001 1.917123e-017 0.000000e+000
      vertex   1.537815e-001 -1.403259e-002 0.000000e+000
      vertex   1.537815e-001 1.403259e-002 0.000000e+000
    endloop
  endfacet
  facet normal -0.000000e+000 -0.000000e+000 -1.000000e+000
    outer loop
      vertex   1.537815e-001 1.403259e-002 0.000000e+000
      vertex   1.537815e-001 -1.403259e-002 0.000000e+000
      vertex   1.518959e-001 2.795219e-002 0.000000e+000
    endloop
  endfacet
  facet normal 0.000000e+000 -0.000000e+000 -1.000000e+000
    outer loop
      vertex   1.518959e-001 2.795219e-002 0.000000e+000
      vertex   1.537815e-001 -1.403259e-002 0.000000e+000
      vertex   1.518959e-001 -2.795219e-002 0.000000e+000
    endloop
  endfacet
  facet normal 0.000000e+000 -0.000000e+000 -1.000000e+000
    outer loop
      vertex   1.487702e-001 4.164674e-002 0.000000e+000
      vertex   1.518959e-001 -2.795219e-002 0.000000e+000
      vertex   1.487702e-001 -4.164674e-002 0.000000e+000
    endloop
  endfacet
  facet normal 0.000000e+000 -0.000000e+000 -1.000000e+000
    outer loop
      vertex   1.444295e-001 5.500597e-002 0.000000e+000
      vertex   1.487702e-001 -4.164674e-002 0.000000e+000
      vertex   1.444295e-001 -5.500597e-002 0.000000e+000
    endloop
  endfacet
  facet normal 0.000000e+000 -0.000000e+000 -1.000000e+000
    outer loop
      vertex   1.389088e-001 6.792233e-002 0.000000e+000
      vertex   1.444295e-001 -5.500597e-002 0.000000e+000
      vertex   1.389088e-001 -6.792233e-002 0.000000e+000
    endloop
  endfacet
  facet normal 0.000000e+000 -0.000000e+000 -1.000000e+000
    outer loop
      vertex   1.322525e-001 8.029182e-002 0.000000e+000
      vertex   1.389088e-001 -6.792233e-002 0.000000e+000
      vertex   1.322525e-001 -8.029182e-002 0.000000e+000
    endloop
  endfacet
  facet normal 0.000000e+000 -0.000000e+000 -1.000000e+000
    outer loop
      vertex   1.245142e-001 9.201484e-002 0.000000e+000
      vertex   1.322525e-001 -8.029182e-002 0.000000e+000
      vertex   1.245142e-001 -9.201484e-002 0.000000e+000
    endloop
  endfacet
  facet normal 0.000000e+000 -0.000000e+000 -1.000000e+000
    outer loop
      vertex   1.157562e-001 1.029970e-001 0.000000e+000
      vertex   1.245142e-001 -9.201484e-002 0.000000e+000
      vertex   1.157562e-001 -1.029970e-001 0.000000e+000
    endloop
  endfacet
  facet normal 0.000000e+000 -0.000000e+000 -1.000000e+000
    outer loop
      vertex   1.060491e-001 1.131499e-001 0.000000e+000
      vertex   1.157562e-001 -1.029970e-001 0.000000e+000
      vertex   1.060491e-001 -1.131499e-001 0.000000e+000
    endloop
  endfacet
  facet normal 0.000000e+000 -0.000000e+000 -1.000000e+000
    outer loop
      vertex   9.547087e-002 1.223918e-001 0.000000e+000
      vertex   1.060491e-001 -1.131499e-001 0.000000e+000
      vertex   9.547087e-002 -1.223918e-001 0.000000e+000
    endloop
  endfacet
  facet normal 0.000000e+000 -0.000000e+000 -1.000000e+000
    outer loop
      vertex   8.410682e-002 1.306483e-001 0.000000e+000
      vertex   9.547087e-002 -1.223918e-001 0.000000e+000
      vertex   8.410682e-002 -1.306483e-001 0.000000e+000
    endloop
  endfacet
  facet normal 0.000000e+000 -0.000000e+000 -1.000000e+000
    outer loop
      vertex   7.204843e-002 1.378528e-001 0.000000e+000
      vertex   8.410682e-002 -1.306483e-001 0.000000e+000
      vertex   7.204843e-002 -1.378528e-001 0.000000e+000
    endloop
  endfacet
  facet normal 0.000000e+000 -0.000000e+000 -1.000000e+000
    outer loop
      vertex   5.939276e-002 1.439475e-001 0.000000e+000
      vertex   7.204843e-002 -1.378528e-001 0.000000e+000
      vertex   5.939276e-002 -1.439475e-001 0.000000e+000
    endloop
  endfacet
  facet normal 0.000000e+000 -0.000000e+000 -1.000000e+000
    outer loop
      vertex   4.624172e-002 1.488831e-001 0.000000e+000
      vertex   5.939276e-002 -1.439475e-001 0.000000e+000
      vertex   4.624172e-002 -1.488831e-001 0.000000e+000
    endloop
  endfacet
  facet normal 0.000000e+000 -0.000000e+000 -1.000000e+000
    outer loop
      vertex   3.270120e-002 1.526201e-001 0.000000e+000
      vertex   4.624172e-002 -1.488831e-001 0.000000e+000
      vertex   3.270120e-002 -1.526201e-001 0.000000e+000
    endloop
  endfacet
  facet normal 0.000000e+000 -0.000000e+000 -1.000000e+000
    outer loop
      vertex   1.888020e-002 1.551282e-001 0.000000e+000
      vertex   3.270120e-002 -1.526201e-001 0.000000e+000
      vertex   1.888020e-002 -1.551282e-001 0.000000e+000
    endloop
  endfacet
  facet normal 0.000000e+000 -0.000000e+000 -1.000000e+000
    outer loop
      vertex   4.890020e-003 1.563874e-001 0.000000e+000
      vertex   1.888020e-002 -1.551282e-001 0.000000e+000
      vertex   4.890020e-003 -1.563874e-001 0.000000e+000
    endloop
  endfacet
  facet normal -0.000000e+000 -0.000000e+000 -1.000000e+000
    outer loop
      vertex   -9.156709e-003 1.563874e-001 0.000000e+000
      vertex   4.890020e-003 -1.563874e-001 0.000000e+000
      vertex   -9.156709e-003 -1.563874e-001 0.000000e+000
    endloop
  endfacet
  facet normal -0.000000e+000 -0.000000e+000 -1.000000e+000
    outer loop
      vertex   -2.314689e-002 1.551282e-001 0.000000e+000
      vertex   -9.156709e-003 -1.563874e-001 0.000000e+000
      vertex   -2.314689e-002 -1.551282e-001 0.000000e+000
    endloop
  endfacet
  facet normal -0.000000e+000 -0.000000e+000 -1.000000e+000
    outer loop
      vertex   -3.696788e-002 1.526201e-001 0.000000e+000
      vertex   -2.314689e-002 -1.551282e-001 0.000000e+000
      vertex   -3.696788e-002 -1.526201e-001 0.000000e+000
    endloop
  endfacet
  facet normal -0.000000e+000 -0.000000e+000 -1.000000e+000
    outer loop
      vertex   -5.050841e-002 1.488831e-001 0.000000e+000
      vertex   -3.696788e-002 -1.526201e-001 0.000000e+000
      vertex   -5.050841e-002 -1.488831e-001 0.000000e+000
    endloop
  endfacet
  facet normal -0.000000e+000 -0.000000e+000 -1.000000e+000
    outer loop
      vertex   -6.365945e-002 1.439475e-001 0.000000e+000
      vertex   -5.050841e-002 -1.488831e-001 0.000000e+000
      vertex   -6.365945e-002 -1.439475e-001 0.000000e+000
    endloop
  endfacet
  facet normal -0.000000e+000 -0.000000e+000 -1.000000e+000
    outer loop
      vertex   -7.631511e-002 1.378528e-001 0.000000e+000
      vertex   -6.365945e-002 -1.439475e-001 0.000000e+000
      vertex   -7.631511e-002 -1.378528e-001 0.000000e+000
    endloop
  endfacet
  facet normal -0.000000e+000 -0.000000e+000 -1.000000e+000
    outer loop
      vertex   -8.837351e-002 1.306483e-001 0.000000e+000
      vertex   -7.631511e-002 -1.378528e-001 0.000000e+000
      vertex   -8.837351e-002 -1.306483e-001 0.000000e+000
    endloop
  endfacet
  facet normal -0.000000e+000 -0.000000e+000 -1.000000e+000
    outer loop
      vertex   -9.973756e-002 1.223918e-001 0.000000e+000
      vertex   -8.837351e-002 -1.306483e-001 0.000000e+000
      vertex   -9.973756e-002 -1.223918e-001 0.000000e+000
    endloop
  endfacet
  facet normal -0.000000e+000 -0.000000e+000 -1.000000e+000
    outer loop
      vertex   -1.103157e-001 1.131499e-001 0.000000e+000
      vertex   -9.973756e-002 -1.223918e-001 0.000000e+000
      vertex   -1.103157e-001 -1.131499e-001 0.000000e+000
    endloop
  endfacet
  facet normal -0.000000e+000 -0.000000e+000 -1.000000e+000
    outer loop
      vertex   -1.200229e-001 1.029970e-001 0.000000e+000
      vertex   -1.103157e-001 -1.131499e-001 0.000000e+000
      vertex   -1.200229e-001 -1.029970e-001 0.000000e+000
    endloop
  endfacet
  facet normal -0.000000e+000 -0.000000e+000 -1.000000e+000
    outer loop
      vertex   -1.287809e-001 9.201484e-002 0.000000e+000
      vertex   -1.200229e-001 -1.029970e-001 0.000000e+000
      vertex   -1.287809e-001 -9.201484e-002 0.000000e+000
    endloop
  endfacet
  facet normal -0.000000e+000 -0.000000e+000 -1.000000e+000
    outer loop
      vertex   -1.365192e-001 8.029182e-002 0.000000e+000
      vertex   -1.287809e-001 -9.201484e-002 0.000000e+000
      vertex   -1.365192e-001 -8.029182e-002 0.000000e+000
    endloop
  endfacet
  facet normal -0.000000e+000 -0.000000e+000 -1.000000e+000
    outer loop
      vertex   -1.431755e-001 6.792233e-002 0.000000e+000
      vertex   -1.365192e-001 -8.029182e-002 0.000000e+000
      vertex   -1.431755e-001 -6.792233e-002 0.000000e+000
    endloop
  endfacet
  facet normal -0.000000e+000 -0.000000e+000 -1.000000e+000
    outer loop
      vertex   -1.486962e-001 5.500597e-002 0.000000e+000
      vertex   -1.431755e-001 -6.792233e-002 0.000000e+000
      vertex   -1.486962e-001 -5.500597e-002 0.000000e+000
    endloop
  endfacet
  facet normal -0.000000e+000 -0.000000e+000 -1.000000e+000
    outer loop
      vertex   -1.530369e-001 4.164674e-002 0.000000e+000
      vertex   -1.486962e-001 -5.500597e-002 0.000000e+000
      vertex   -1.530369e-001 -4.164674e-002 0.000000e+000
    endloop
  endfacet
  facet normal -0.000000e+000 -0.000000e+000 -1.000000e+000
    outer loop
      vertex   -1.561626e-001 2.795219e-002 0.000000e+000
      vertex   -1.530369e-001 -4.164674e-002 0.000000e+000
      vertex   -1.561626e-001 -2.795219e-002 0.000000e+000
    endloop
  endfacet
  facet normal -0.000000e+000 -0.000000e+000 -1.000000e+000
    outer loop
      vertex   -1.580481e-001 1.403259e-002 0.000000e+000
      vertex   -1.561626e-001 -2.795219e-002 0.000000e+000
      vertex   -1.580481e-001 -1.403259e-002 0.000000e+000
    endloop
  endfacet
  facet normal 0.000000e+000 0.000000e+000 -1.000000e+000
    outer loop
      vertex   -1.586783e-001 0.000000e+000 0.000000e+000
      vertex   -1.580481e-001 1.403259e-002 0.000000e+000
      vertex   -1.580481e-001 -1.403259e-002 0.000000e+000
    endloop
  endfacet
  facet normal -0.000000e+000 -0.000000e+000 -1.000000e+000
    outer loop
      vertex   1.518959e-001 2.795219e-002 0.000000e+000
      vertex   1.518959e-001 -2.795219e-002 0.000000e+000
      vertex   1.487702e-001 4.164674e-002 0.000000e+000
    endloop
  endfacet
  facet normal -0.000000e+000 -0.000000e+000 -1.000000e+000
    outer loop
      vertex   1.487702e-001 4.164674e-002 0.000000e+000
      vertex   1.487702e-001 -4.164674e-002 0.000000e+000
      vertex   1.444295e-001 5.500597e-002 0.000000e+000
    endloop
  endfacet
  facet normal -0.000000e+000 -0.000000e+000 -1.000000e+000
    outer loop
      vertex   1.444295e-001 5.500597e-002 0.000000e+000
      vertex   1.444295e-001 -5.500597e-002 0.000000e+000
      vertex   1.389088e-001 6.792233e-002 0.000000e+000
    endloop
  endfacet
  facet normal -0.000000e+000 -0.000000e+000 -1.000000e+000
    outer loop
      vertex   1.389088e-001 6.792233e-002 0.000000e+000
      vertex   1.389088e-001 -6.792233e-002 0.000000e+000
      vertex   1.322525e-001 8.029182e-002 0.000000e+000
    endloop
  endfacet
  facet normal -0.000000e+000 -0.000000e+000 -1.000000e+000
    outer loop
      vertex   1.322525e-001 8.029182e-002 0.000000e+000
      vertex   1.322525e-001 -8.029182e-002 0.000000e+000
      vertex   1.245142e-001 9.201484e-002 0.000000e+000
    endloop
  endfacet
  facet normal -0.000000e+000 -0.000000e+000 -1.000000e+000
    outer loop
      vertex   1.245142e-001 9.201484e-002 0.000000e+000
      vertex   1.245142e-001 -9.201484e-002 0.000000e+000
      vertex   1.157562e-001 1.029970e-001 0.000000e+000
    endloop
  endfacet
  facet normal -0.000000e+000 -0.000000e+000 -1.000000e+000
    outer loop
      vertex   1.157562e-001 1.029970e-001 0.000000e+000
      vertex   1.157562e-001 -1.029970e-001 0.000000e+000
      vertex   1.060491e-001 1.131499e-001 0.000000e+000
    endloop
  endfacet
  facet normal -0.000000e+000 -0.000000e+000 -1.000000e+000
    outer loop
      vertex   1.060491e-001 1.131499e-001 0.000000e+000
      vertex   1.060491e-001 -1.131499e-001 0.000000e+000
      vertex   9.547087e-002 1.223918e-001 0.000000e+000
    endloop
  endfacet
  facet normal -0.000000e+000 -0.000000e+000 -1.000000e+000
    outer loop
      vertex   9.547087e-002 1.223918e-001 0.000000e+000
      vertex   9.547087e-002 -1.223918e-001 0.000000e+000
      vertex   8.410682e-002 1.306483e-001 0.000000e+000
    endloop
  endfacet
  facet normal -0.000000e+000 -0.000000e+000 -1.000000e+000
    outer loop
      vertex   8.410682e-002 1.306483e-001 0.000000e+000
      vertex   8.410682e-002 -1.306483e-001 0.000000e+000
      vertex   7.204843e-002 1.378528e-001 0.000000e+000
    endloop
  endfacet
  facet normal -0.000000e+000 -0.000000e+000 -1.000000e+000
    outer loop
      vertex   7.204843e-002 1.378528e-001 0.000000e+000
      vertex   7.204843e-002 -1.378528e-001 0.000000e+000
      vertex   5.939276e-002 1.439475e-001 0.000000e+000
    endloop
  endfacet
  facet normal -0.000000e+000 -0.000000e+000 -1.000000e+000
    outer loop
      vertex   5.939276e-002 1.439475e-001 0.000000e+000
      vertex   5.939276e-002 -1.439475e-001 0.000000e+000
      vertex   4.624172e-002 1.488831e-001 0.000000e+000
    endloop
  endfacet
  facet normal -0.000000e+000 -0.000000e+000 -1.000000e+000
    outer loop
      vertex   4.624172e-002 1.488831e-001 0.000000e+000
      vertex   4.624172e-002 -1.488831e-001 0.000000e+000
      vertex   3.270120e-002 1.526201e-001 0.000000e+000
    endloop
  endfacet
  facet normal -0.000000e+000 -0.000000e+000 -1.000000e+000
    outer loop
      vertex   3.270120e-002 1.526201e-001 0.000000e+000
      vertex   3.270120e-002 -1.526201e-001 0.000000e+000
      vertex   1.888020e-002 1.551282e-001 0.000000e+000
    endloop
  endfacet
  facet normal -0.000000e+000 -0.000000e+000 -1.000000e+000
    outer loop
      vertex   1.888020e-002 1.551282e-001 0.000000e+000
      vertex   1.888020e-002 -1.551282e-001 0.000000e+000
      vertex   4.890020e-003 1.563874e-001 0.000000e+000
    endloop
  endfacet
  facet normal -0.000000e+000 -0.000000e+000 -1.000000e+000
    outer loop
      vertex   4.890020e-003 1.563874e-001 0.000000e+000
      vertex   4.890020e-003 -1.563874e-001 0.000000e+000
      vertex   -9.156709e-003 1.563874e-001 0.000000e+000
    endloop
  endfacet
  facet normal -0.000000e+000 -0.000000e+000 -1.000000e+000
    outer loop
      vertex   -9.156709e-003 1.563874e-001 0.000000e+000
      vertex   -9.156709e-003 -1.563874e-001 0.000000e+000
      vertex   -2.314689e-002 1.551282e-001 0.000000e+000
    endloop
  endfacet
  facet normal -0.000000e+000 -0.000000e+000 -1.000000e+000
    outer loop
      vertex   -2.314689e-002 1.551282e-001 0.000000e+000
      vertex   -2.314689e-002 -1.551282e-001 0.000000e+000
      vertex   -3.696788e-002 1.526201e-001 0.000000e+000
    endloop
  endfacet
  facet normal -0.000000e+000 -0.000000e+000 -1.000000e+000
    outer loop
      vertex   -3.696788e-002 1.526201e-001 0.000000e+000
      vertex   -3.696788e-002 -1.526201e-001 0.000000e+000
      vertex   -5.050841e-002 1.488831e-001 0.000000e+000
    endloop
  endfacet
  facet normal -0.000000e+000 -0.000000e+000 -1.000000e+000
    outer loop
      vertex   -5.050841e-002 1.488831e-001 0.000000e+000
      vertex   -5.050841e-002 -1.488831e-001 0.000000e+000
      vertex   -6.365945e-002 1.439475e-001 0.000000e+000
    endloop
  endfacet
  facet normal -0.000000e+000 -0.000000e+000 -1.000000e+000
    outer loop
      vertex   -6.365945e-002 1.439475e-001 0.000000e+000
      vertex   -6.365945e-002 -1.439475e-001 0.000000e+000
      vertex   -7.631511e-002 1.378528e-001 0.000000e+000
    endloop
  endfacet
  facet normal -0.000000e+000 -0.000000e+000 -1.000000e+000
    outer loop
      vertex   -7.631511e-002 1.378528e-001 0.000000e+000
      vertex   -7.631511e-002 -1.378528e-001 0.000000e+000
      vertex   -8.837351e-002 1.306483e-001 0.000000e+000
    endloop
  endfacet
  facet normal -0.000000e+000 -0.000000e+000 -1.000000e+000
    outer loop
      vertex   -8.837351e-002 1.306483e-001 0.000000e+000
      vertex   -8.837351e-002 -1.306483e-001 0.000000e+000
      vertex   -9.973756e-002 1.223918e-001 0.000000e+000
    endloop
  endfacet
  facet normal -0.000000e+000 -0.000000e+000 -1.000000e+000
    outer loop
      vertex   -9.973756e-002 1.223918e-001 0.000000e+000
      vertex   -9.973756e-002 -1.223918e-001 0.000000e+000
      vertex   -1.103157e-001 1.131499e-001 0.000000e+000
    endloop
  endfacet
  facet normal -0.000000e+000 -0.000000e+000 -1.000000e+000
    outer loop
      vertex   -1.103157e-001 1.131499e-001 0.000000e+000
      vertex   -1.103157e-001 -1.131499e-001 0.000000e+000
      vertex   -1.200229e-001 1.029970e-001 0.000000e+000
    endloop
  endfacet
  facet normal -0.000000e+000 -0.000000e+000 -1.000000e+000
    outer loop
      vertex   -1.200229e-001 1.029970e-001 0.000000e+000
      vertex   -1.200229e-001 -1.029970e-001 0.000000e+000
      vertex   -1.287809e-001 9.201484e-002 0.000000e+000
    endloop
  endfacet
  facet normal -0.000000e+000 -0.000000e+000 -1.000000e+000
    outer loop
      vertex   -1.287809e-001 9.201484e-002 0.000000e+000
      vertex   -1.287809e-001 -9.201484e-002 0.000000e+000
      vertex   -1.365192e-001 8.029182e-002 0.000000e+000
    endloop
  endfacet
  facet normal -0.000000e+000 -0.000000e+000 -1.000000e+000
    outer loop
      vertex   -1.365192e-001 8.029182e-002 0.000000e+000
      vertex   -1.365192e-001 -8.029182e-002 0.000000e+000
      vertex   -1.431755e-001 6.792233e-002 0.000000e+000
    endloop
  endfacet
  facet normal -0.000000e+000 -0.000000e+000 -1.000000e+000
    outer loop
      vertex   -1.431755e-001 6.792233e-002 0.000000e+000
      vertex   -1.431755e-001 -6.792233e-002 0.000000e+000
      vertex   -1.486962e-001 5.500597e-002 0.000000e+000
    endloop
  endfacet
  facet normal -0.000000e+000 -0.000000e+000 -1.000000e+000
    outer loop
      vertex   -1.486962e-001 5.500597e-002 0.000000e+000
      vertex   -1.486962e-001 -5.500597e-002 0.000000e+000
      vertex   -1.530369e-001 4.164674e-002 0.000000e+000
    endloop
  endfacet
  facet normal -0.000000e+000 -0.000000e+000 -1.000000e+000
    outer loop
      vertex   -1.530369e-001 4.164674e-002 0.000000e+000
      vertex   -1.530369e-001 -4.164674e-002 0.000000e+000
      vertex   -1.561626e-001 2.795219e-002 0.000000e+000
    endloop
  endfacet
  facet normal -0.000000e+000 -0.000000e+000 -1.000000e+000
    outer loop
      vertex   -1.561626e-001 2.795219e-002 0.000000e+000
      vertex   -1.561626e-001 -2.795219e-002 0.000000e+000
      vertex   -1.580481e-001 1.403259e-002 0.000000e+000
    endloop
  endfacet
  facet normal 0.000000e+000 0.000000e+000 1.000000e+000
    outer loop
      vertex   1.544117e-001 1.917123e-017 4.437900e-002
      vertex   1.537815e-001 1.403259e-002 4.437900e-002
      vertex   1.537815e-001 -1.403259e-002 4.437900e-002
    endloop
  endfacet
  facet normal 0.000000e+000 -0.000000e+000 1.000000e+000
    outer loop
      vertex   1.537815e-001 -1.403259e-002 4.437900e-002
      vertex   1.537815e-001 1.403259e-002 4.437900e-002
      vertex   1.518959e-001 -2.795219e-002 4.437900e-002
    endloop
  endfacet
  facet normal 0.000000e+000 -0.000000e+000 1.000000e+000
    outer loop
      vertex   1.518959e-001 -2.795219e-002 4.437900e-002
      vertex   1.537815e-001 1.403259e-002 4.437900e-002
      vertex   1.518959e-001 2.795219e-002 4.437900e-002
    endloop
  endfacet
  facet normal 0.000000e+000 -0.000000e+000 1.000000e+000
    outer loop
      vertex   1.487702e-001 -4.164674e-002 4.437900e-002
      vertex   1.518959e-001 2.795219e-002 4.437900e-002
      vertex   1.487702e-001 4.164674e-002 4.437900e-002
    endloop
  endfacet
  facet normal 0.000000e+000 -0.000000e+000 1.000000e+000
    outer loop
      vertex   1.444295e-001 -5.500597e-002 4.437900e-002
      vertex   1.487702e-001 4.164674e-002 4.437900e-002
      vertex   1.444295e-001 5.500597e-002 4.437900e-002
    endloop
  endfacet
  facet normal 0.000000e+000 -0.000000e+000 1.000000e+000
    outer loop
      vertex   1.389088e-001 -6.792233e-002 4.437900e-002
      vertex   1.444295e-001 5.500597e-002 4.437900e-002
      vertex   1.389088e-001 6.792233e-002 4.437900e-002
    endloop
  endfacet
  facet normal 0.000000e+000 -0.000000e+000 1.000000e+000
    outer loop
      vertex   1.322525e-001 -8.029182e-002 4.437900e-002
      vertex   1.389088e-001 6.792233e-002 4.437900e-002
      vertex   1.322525e-001 8.029182e-002 4.437900e-002
    endloop
  endfacet
  facet normal 0.000000e+000 -0.000000e+000 1.000000e+000
    outer loop
      vertex   1.245142e-001 -9.201484e-002 4.437900e-002
      vertex   1.322525e-001 8.029182e-002 4.437900e-002
      vertex   1.245142e-001 9.201484e-002 4.437900e-002
    endloop
  endfacet
  facet normal 0.000000e+000 -0.000000e+000 1.000000e+000
    outer loop
      vertex   1.157562e-001 -1.029970e-001 4.437900e-002
      vertex   1.245142e-001 9.201484e-002 4.437900e-002
      vertex   1.157562e-001 1.029970e-001 4.437900e-002
    endloop
  endfacet
  facet normal 0.000000e+000 -0.000000e+000 1.000000e+000
    outer loop
      vertex   1.060491e-001 -1.131499e-001 4.437900e-002
      vertex   1.157562e-001 1.029970e-001 4.437900e-002
      vertex   1.060491e-001 1.131499e-001 4.437900e-002
    endloop
  endfacet
  facet normal 0.000000e+000 -0.000000e+000 1.000000e+000
    outer loop
      vertex   9.547087e-002 -1.223918e-001 4.437900e-002
      vertex   1.060491e-001 1.131499e-001 4.437900e-002
      vertex   9.547087e-002 1.223918e-001 4.437900e-002
    endloop
  endfacet
  facet normal 0.000000e+000 -0.000000e+000 1.000000e+000
    outer loop
      vertex   8.410682e-002 -1.306483e-001 4.437900e-002
      vertex   9.547087e-002 1.223918e-001 4.437900e-002
      vertex   8.410682e-002 1.306483e-001 4.437900e-002
    endloop
  endfacet
  facet normal 0.000000e+000 -0.000000e+000 1.000000e+000
    outer loop
      vertex   7.204843e-002 -1.378528e-001 4.437900e-002
      vertex   8.410682e-002 1.306483e-001 4.437900e-002
      vertex   7.204843e-002 1.378528e-001 4.437900e-002
    endloop
  endfacet
  facet normal 0.000000e+000 -0.000000e+000 1.000000e+000
    outer loop
      vertex   5.939276e-002 -1.439475e-001 4.437900e-002
      vertex   7.204843e-002 1.378528e-001 4.437900e-002
      vertex   5.939276e-002 1.439475e-001 4.437900e-002
    endloop
  endfacet
  facet normal 0.000000e+000 -0.000000e+000 1.000000e+000
    outer loop
      vertex   4.624172e-002 -1.488831e-001 4.437900e-002
      vertex   5.939276e-002 1.439475e-001 4.437900e-002
      vertex   4.624172e-002 1.488831e-001 4.437900e-002
    endloop
  endfacet
  facet normal 0.000000e+000 -0.000000e+000 1.000000e+000
    outer loop
      vertex   3.270120e-002 -1.526201e-001 4.437900e-002
      vertex   4.624172e-002 1.488831e-001 4.437900e-002
      vertex   3.270120e-002 1.526201e-001 4.437900e-002
    endloop
  endfacet
  facet normal 0.000000e+000 -0.000000e+000 1.000000e+000
    outer loop
      vertex   1.888020e-002 -1.551282e-001 4.437900e-002
      vertex   3.270120e-002 1.526201e-001 4.437900e-002
      vertex   1.888020e-002 1.551282e-001 4.437900e-002
    endloop
  endfacet
  facet normal 0.000000e+000 -0.000000e+000 1.000000e+000
    outer loop
      vertex   4.890020e-003 -1.563874e-001 4.437900e-002
      vertex   1.888020e-002 1.551282e-001 4.437900e-002
      vertex   4.890020e-003 1.563874e-001 4.437900e-002
    endloop
  endfacet
  facet normal 0.000000e+000 -0.000000e+000 1.000000e+000
    outer loop
      vertex   -9.156709e-003 -1.563874e-001 4.437900e-002
      vertex   4.890020e-003 1.563874e-001 4.437900e-002
      vertex   -9.156709e-003 1.563874e-001 4.437900e-002
    endloop
  endfacet
  facet normal 0.000000e+000 -0.000000e+000 1.000000e+000
    outer loop
      vertex   -2.314689e-002 -1.551282e-001 4.437900e-002
      vertex   -9.156709e-003 1.563874e-001 4.437900e-002
      vertex   -2.314689e-002 1.551282e-001 4.437900e-002
    endloop
  endfacet
  facet normal 0.000000e+000 -0.000000e+000 1.000000e+000
    outer loop
      vertex   -3.696788e-002 -1.526201e-001 4.437900e-002
      vertex   -2.314689e-002 1.551282e-001 4.437900e-002
      vertex   -3.696788e-002 1.526201e-001 4.437900e-002
    endloop
  endfacet
  facet normal 0.000000e+000 -0.000000e+000 1.000000e+000
    outer loop
      vertex   -5.050841e-002 -1.488831e-001 4.437900e-002
      vertex   -3.696788e-002 1.526201e-001 4.437900e-002
      vertex   -5.050841e-002 1.488831e-001 4.437900e-002
    endloop
  endfacet
  facet normal 0.000000e+000 -0.000000e+000 1.000000e+000
    outer loop
      vertex   -6.365945e-002 -1.439475e-001 4.437900e-002
      vertex   -5.050841e-002 1.488831e-001 4.437900e-002
      vertex   -6.365945e-002 1.439475e-001 4.437900e-002
    endloop
  endfacet
  facet normal 0.000000e+000 -0.000000e+000 1.000000e+000
    outer loop
      vertex   -7.631511e-002 -1.378528e-001 4.437900e-002
      vertex   -6.365945e-002 1.439475e-001 4.437900e-002
      vertex   -7.631511e-002 1.378528e-001 4.437900e-002
    endloop
  endfacet
  facet normal 0.000000e+000 -0.000000e+000 1.000000e+000
    outer loop
      vertex   -8.837351e-002 -1.306483e-001 4.437900e-002
      vertex   -7.631511e-002 1.378528e-001 4.437900e-002
      vertex   -8.837351e-002 1.306483e-001 4.437900e-002
    endloop
  endfacet
  facet normal 0.000000e+000 -0.000000e+000 1.000000e+000
    outer loop
      vertex   -9.973756e-002 -1.223918e-001 4.437900e-002
      vertex   -8.837351e-002 1.306483e-001 4.437900e-002
      vertex   -9.973756e-002 1.223918e-001 4.437900e-002
    endloop
  endfacet
  facet normal 0.000000e+000 -0.000000e+000 1.000000e+000
    outer loop
      vertex   -1.103157e-001 -1.131499e-001 4.437900e-002
      vertex   -9.973756e-002 1.223918e-001 4.437900e-002
      vertex   -1.103157e-001 1.131499e-001 4.437900e-002
    endloop
  endfacet
  facet normal 0.000000e+000 -0.000000e+000 1.000000e+000
    outer loop
      vertex   -1.200229e-001 -1.029970e-001 4.437900e-002
      vertex   -1.103157e-001 1.131499e-001 4.437900e-002
      vertex   -1.200229e-001 1.029970e-001 4.437900e-002
    endloop
  endfacet
  facet normal 0.000000e+000 -0.000000e+000 1.000000e+000
    outer loop
      vertex   -1.287809e-001 -9.201484e-002 4.437900e-002
      vertex   -1.200229e-001 1.029970e-001 4.437900e-002
      vertex   -1.287809e-001 9.201484e-002 4.437900e-002
    endloop
  endfacet
  facet normal 0.000000e+000 -0.000000e+000 1.000000e+000
    outer loop
      vertex   -1.365192e-001 -8.029182e-002 4.437900e-002
      vertex   -1.287809e-001 9.201484e-002 4.437900e-002
      vertex   -1.365192e-001 8.029182e-002 4.437900e-002
    endloop
  endfacet
  facet normal 0.000000e+000 -0.000000e+000 1.000000e+000
    outer loop
      vertex   -1.431755e-001 -6.792233e-002 4.437900e-002
      vertex   -1.365192e-001 8.029182e-002 4.437900e-002
      vertex   -1.431755e-001 6.792233e-002 4.437900e-002
    endloop
  endfacet
  facet normal 0.000000e+000 -0.000000e+000 1.000000e+000
    outer loop
      vertex   -1.486962e-001 -5.500597e-002 4.437900e-002
      vertex   -1.431755e-001 6.792233e-002 4.437900e-002
      vertex   -1.486962e-001 5.500597e-002 4.437900e-002
    endloop
  endfacet
  facet normal 0.000000e+000 -0.000000e+000 1.000000e+000
    outer loop
      vertex   -1.530369e-001 -4.164674e-002 4.437900e-002
      vertex   -1.486962e-001 5.500597e-002 4.437900e-002
      vertex   -1.530369e-001 4.164674e-002 4.437900e-002
    endloop
  endfacet
  facet normal 0.000000e+000 -0.000000e+000 1.000000e+000
    outer loop
      vertex   -1.561626e-001 -2.795219e-002 4.437900e-002
      vertex   -1.530369e-001 4.164674e-002 4.437900e-002
      vertex   -1.561626e-001 2.795219e-002 4.437900e-002
    endloop
  endfacet
  facet normal 0.000000e+000 -0.000000e+000 1.000000e+000
    outer loop
      vertex   -1.580481e-001 -1.403259e-002 4.437900e-002
      vertex   -1.561626e-001 2.795219e-002 4.437900e-002
      vertex   -1.580481e-001 1.403259e-002 4.437900e-002
    endloop
  endfacet
  facet normal -0.000000e+000 0.000000e+000 1.000000e+000
    outer loop
      vertex   -1.586783e-001 0.000000e+000 4.437900e-002
      vertex   -1.580481e-001 -1.403259e-002 4.437900e-002
      vertex   -1.580481e-001 1.403259e-002 4.437900e-002
    endloop
  endfacet
  facet normal 0.000000e+000 -0.000000e+000 1.000000e+000
    outer loop
      vertex   1.518959e-001 -2.795219e-002 4.437900e-002
      vertex   1.518959e-001 2.795219e-002 4.437900e-002
      vertex   1.487702e-001 -4.164674e-002 4.437900e-002
    endloop
  endfacet
  facet normal 0.000000e+000 -0.000000e+000 1.000000e+000
    outer loop
      vertex   1.487702e-001 -4.164674e-002 4.437900e-002
      vertex   1.487702e-001 4.164674e-002 4.437900e-002
      vertex   1.444295e-001 -5.500597e-002 4.437900e-002
    endloop
  endfacet
  facet normal 0.000000e+000 -0.000000e+000 1.000000e+000
    outer loop
      vertex   1.444295e-001 -5.500597e-002 4.437900e-002
      vertex   1.444295e-001 5.500597e-002 4.437900e-002
      vertex   1.389088e-001 -6.792233e-002 4.437900e-002
    endloop
  endfacet
  facet normal 0.000000e+000 -0.000000e+000 1.000000e+000
    outer loop
      vertex   1.389088e-001 -6.792233e-002 4.437900e-002
      vertex   1.389088e-001 6.792233e-002 4.437900e-002
      vertex   1.322525e-001 -8.029182e-002 4.437900e-002
    endloop
  endfacet
  facet normal 0.000000e+000 -0.000000e+000 1.000000e+000
    outer loop
      vertex   1.322525e-001 -8.029182e-002 4.437900e-002
      vertex   1.322525e-001 8.029182e-002 4.437900e-002
      vertex   1.245142e-001 -9.201484e-002 4.437900e-002
    endloop
  endfacet
  facet normal 0.000000e+000 -0.000000e+000 1.000000e+000
    outer loop
      vertex   1.245142e-001 -9.201484e-002 4.437900e-002
      vertex   1.245142e-001 9.201484e-002 4.437900e-002
      vertex   1.157562e-001 -1.029970e-001 4.437900e-002
    endloop
  endfacet
  facet normal 0.000000e+000 -0.000000e+000 1.000000e+000
    outer loop
      vertex   1.157562e-001 -1.029970e-001 4.437900e-002
      vertex   1.157562e-001 1.029970e-001 4.437900e-002
      vertex   1.060491e-001 -1.131499e-001 4.437900e-002
    endloop
  endfacet
  facet normal 0.000000e+000 -0.000000e+000 1.000000e+000
    outer loop
      vertex   1.060491e-001 -1.131499e-001 4.437900e-002
      vertex   1.060491e-001 1.131499e-001 4.437900e-002
      vertex   9.547087e-002 -1.223918e-001 4.437900e-002
    endloop
  endfacet
  facet normal 0.000000e+000 -0.000000e+000 1.000000e+000
    outer loop
      vertex   9.547087e-002 -1.223918e-001 4.437900e-002
      vertex   9.547087e-002 1.223918e-001 4.437900e-002
      vertex   8.410682e-002 -1.306483e-001 4.437900e-002
    endloop
  endfacet
  facet normal 0.000000e+000 -0.000000e+000 1.000000e+000
    outer loop
      vertex   8.410682e-002 -1.306483e-001 4.437900e-002
      vertex   8.410682e-002 1.306483e-001 4.437900e-002
      vertex   7.204843e-002 -1.378528e-001 4.437900e-002
    endloop
  endfacet
  facet normal 0.000000e+000 -0.000000e+000 1.000000e+000
    outer loop
      vertex   7.204843e-002 -1.378528e-001 4.437900e-002
      vertex   7.204843e-002 1.378528e-001 4.437900e-002
      vertex   5.939276e-002 -1.439475e-001 4.437900e-002
    endloop
  endfacet
  facet normal 0.000000e+000 -0.000000e+000 1.000000e+000
    outer loop
      vertex   5.939276e-002 -1.439475e-001 4.437900e-002
      vertex   5.939276e-002 1.439475e-001 4.437900e-002
      vertex   4.624172e-002 -1.488831e-001 4.437900e-002
    endloop
  endfacet
  facet normal 0.000000e+000 -0.000000e+000 1.000000e+000
    outer loop
      vertex   4.624172e-002 -1.488831e-001 4.437900e-002
      vertex   4.624172e-002 1.488831e-001 4.437900e-002
      vertex   3.270120e-002 -1.526201e-001 4.437900e-002
    endloop
  endfacet
  facet normal 0.000000e+000 -0.000000e+000 1.000000e+000
    outer loop
      vertex   3.270120e-002 -1.526201e-001 4.437900e-002
      vertex   3.270120e-002 1.526201e-001 4.437900e-002
      vertex   1.888020e-002 -1.551282e-001 4.437900e-002
    endloop
  endfacet
  facet normal 0.000000e+000 -0.000000e+000 1.000000e+000
    outer loop
      vertex   1.888020e-002 -1.551282e-001 4.437900e-002
      vertex   1.888020e-002 1.551282e-001 4.437900e-002
      vertex   4.890020e-003 -1.563874e-001 4.437900e-002
    endloop
  endfacet
  facet normal 0.000000e+000 -0.000000e+000 1.000000e+000
    outer loop
      vertex   4.890020e-003 -1.563874e-001 4.437900e-002
      vertex   4.890020e-003 1.563874e-001 4.437900e-002
      vertex   -9.156709e-003 -1.563874e-001 4.437900e-002
    endloop
  endfacet
  facet normal 0.000000e+000 -0.000000e+000 1.000000e+000
    outer loop
      vertex   -9.156709e-003 -1.563874e-001 4.437900e-002
      vertex   -9.156709e-003 1.563874e-001 4.437900e-002
      vertex   -2.314689e-002 -1.551282e-001 4.437900e-002
    endloop
  endfacet
  facet normal 0.000000e+000 -0.000000e+000 1.000000e+000
    outer loop
      vertex   -2.314689e-002 -1.551282e-001 4.437900e-002
      vertex   -2.314689e-002 1.551282e-001 4.437900e-002
      vertex   -3.696788e-002 -1.526201e-001 4.437900e-002
    endloop
  endfacet
  facet normal 0.000000e+000 -0.000000e+000 1.000000e+000
    outer loop
      vertex   -3.696788e-002 -1.526201e-001 4.437900e-002
      vertex   -3.696788e-002 1.526201e-001 4.437900e-002
      vertex   -5.050841e-002 -1.488831e-001 4.437900e-002
    endloop
  endfacet
  facet normal 0.000000e+000 -0.000000e+000 1.000000e+000
    outer loop
      vertex   -5.050841e-002 -1.488831e-001 4.437900e-002
      vertex   -5.050841e-002 1.488831e-001 4.437900e-002
      vertex   -6.365945e-002 -1.439475e-001 4.437900e-002
    endloop
  endfacet
  facet normal 0.000000e+000 -0.000000e+000 1.000000e+000
    outer loop
      vertex   -6.365945e-002 -1.439475e-001 4.437900e-002
      vertex   -6.365945e-002 1.439475e-001 4.437900e-002
      vertex   -7.631511e-002 -1.378528e-001 4.437900e-002
    endloop
  endfacet
  facet normal 0.000000e+000 -0.000000e+000 1.000000e+000
    outer loop
      vertex   -7.631511e-002 -1.378528e-001 4.437900e-002
      vertex   -7.631511e-002 1.378528e-001 4.437900e-002
      vertex   -8.837351e-002 -1.306483e-001 4.437900e-002
    endloop
  endfacet
  facet normal 0.000000e+000 -0.000000e+000 1.000000e+000
    outer loop
      vertex   -8.837351e-002 -1.306483e-001 4.437900e-002
      vertex   -8.837351e-002 1.306483e-001 4.437900e-002
      vertex   -9.973756e-002 -1.223918e-001 4.437900e-002
    endloop
  endfacet
  facet normal 0.000000e+000 -0.000000e+000 1.000000e+000
    outer loop
      vertex   -9.973756e-002 -1.223918e-001 4.437900e-002
      vertex   -9.973756e-002 1.223918e-001 4.437900e-002
      vertex   -1.103157e-001 -1.131499e-001 4.437900e-002
    endloop
  endfacet
  facet normal 0.000000e+000 -0.000000e+000 1.000000e+000
    outer loop
      vertex   -1.103157e-001 -1.131499e-001 4.437900e-002
      vertex   -1.103157e-001 1.131499e-001 4.437900e-002
      vertex   -1.200229e-001 -1.029970e-001 4.437900e-002
    endloop
  endfacet
  facet normal 0.000000e+000 -0.000000e+000 1.000000e+000
    outer loop
      vertex   -1.200229e-001 -1.029970e-001 4.437900e-002
      vertex   -1.200229e-001 1.029970e-001 4.437900e-002
      vertex   -1.287809e-001 -9.201484e-002 4.437900e-002
    endloop
  endfacet
  facet normal 0.000000e+000 -0.000000e+000 1.000000e+000
    outer loop
      vertex   -1.287809e-001 -9.201484e-002 4.437900e-002
      vertex   -1.287809e-001 9.201484e-002 4.437900e-002
      vertex   -1.365192e-001 -8.029182e-002 4.437900e-002
    endloop
  endfacet
  facet normal 0.000000e+000 -0.000000e+000 1.000000e+000
    outer loop
      vertex   -1.365192e-001 -8.029182e-002 4.437900e-002
      vertex   -1.365192e-001 8.029182e-002 4.437900e-002
      vertex   -1.431755e-001 -6.792233e-002 4.437900e-002
    endloop
  endfacet
  facet normal 0.000000e+000 -0.000000e+000 1.000000e+000
    outer loop
      vertex   -1.431755e-001 -6.792233e-002 4.437900e-002
      vertex   -1.431755e-001 6.792233e-002 4.437900e-002
      vertex   -1.486962e-001 -5.500597e-002 4.437900e-002
    endloop
  endfacet
  facet normal 0.000000e+000 -0.000000e+000 1.000000e+000
    outer loop
      vertex   -1.486962e-001 -5.500597e-002 4.437900e-002
      vertex   -1.486962e-001 5.500597e-002 4.437900e-002
      vertex   -1.530369e-001 -4.164674e-002 4.437900e-002
    endloop
  endfacet
  facet normal 0.000000e+000 -0.000000e+000 1.000000e+000
    outer loop
      vertex   -1.530369e-001 -4.164674e-002 4.437900e-002
      vertex   -1.530369e-001 4.164674e-002 4.437900e-002
      vertex   -1.561626e-001 -2.795219e-002 4.437900e-002
    endloop
  endfacet
  facet normal 0.000000e+000 -0.000000e+000 1.000000e+000
    outer loop
      vertex   -1.561626e-001 -2.795219e-002 4.437900e-002
      vertex   -1.561626e-001 2.795219e-002 4.437900e-002
      vertex   -1.580481e-001 -1.403259e-002 4.437900e-002
    endloop
  endfacet
  facet normal 0.000000e+000 1.000000e+000 -0.000000e+000
    outer loop
      vertex   1.115096e-002 3.706972e-001 2.753400e-002
      vertex   -1.632204e-002 3.706972e-001 2.753400e-002
      vertex   1.115096e-002 3.706972e-001 4.067400e-002
    endloop
  endfacet
  facet normal 0.000000e+000 1.000000e+000 0.000000e+000
    outer loop
      vertex   1.115096e-002 3.706972e-001 4.067400e-002
      vertex   -1.632204e-002 3.706972e-001 2.753400e-002
      vertex   -1.632204e-002 3.706972e-001 4.067400e-002
    endloop
  endfacet
  facet normal 1.000000e+000 6.103657e-016 1.188167e-015
    outer loop
      vertex   1.115096e-002 1.546972e-001 2.753400e-002
      vertex   1.115096e-002 3.706972e-001 2.753400e-002
      vertex   1.115096e-002 1.546972e-001 4.067400e-002
    endloop
  endfacet
  facet normal 1.000000e+000 6.103657e-016 1.188167e-015
    outer loop
      vertex   1.115096e-002 1.546972e-001 4.067400e-002
      vertex   1.115096e-002 3.706972e-001 2.753400e-002
      vertex   1.115096e-002 3.706972e-001 4.067400e-002
    endloop
  endfacet
  facet normal 0.000000e+000 -1.000000e+000 0.000000e+000
    outer loop
      vertex   -1.632204e-002 1.546972e-001 2.753400e-002
      vertex   1.115096e-002 1.546972e-001 2.753400e-002
      vertex   -1.632204e-002 1.546972e-001 4.067400e-002
    endloop
  endfacet
  facet normal 1.010286e-015 -1.000000e+000 2.112296e-015
    outer loop
      vertex   -1.632204e-002 1.546972e-001 4.067400e-002
      vertex   1.115096e-002 1.546972e-001 2.753400e-002
      vertex   1.115096e-002 1.546972e-001 4.067400e-002
    endloop
  endfacet
  facet normal -1.000000e+000 -6.103657e-016 -1.056148e-015
    outer loop
      vertex   -1.632204e-002 3.706972e-001 2.753400e-002
      vertex   -1.632204e-002 1.546972e-001 2.753400e-002
      vertex   -1.632204e-002 3.706972e-001 4.067400e-002
    endloop
  endfacet
  facet normal -1.000000e+000 -5.943034e-016 -1.320185e-015
    outer loop
      vertex   -1.632204e-002 3.706972e-001 4.067400e-002
      vertex   -1.632204e-002 1.546972e-001 2.753400e-002
      vertex   -1.632204e-002 1.546972e-001 4.067400e-002
    endloop
  endfacet
  facet normal -1.262857e-015 1.927471e-016 1.000000e+000
    outer loop
      vertex   -1.632204e-002 3.706972e-001 4.067400e-002
      vertex   -1.632204e-002 1.546972e-001 4.067400e-002
      vertex   1.115096e-002 3.706972e-001 4.067400e-002
    endloop
  endfacet
  facet normal -1.262857e-015 1.927471e-016 1.000000e+000
    outer loop
      vertex   1.115096e-002 3.706972e-001 4.067400e-002
      vertex   -1.632204e-002 1.546972e-001 4.067400e-002
      vertex   1.115096e-002 1.546972e-001 4.067400e-002
    endloop
  endfacet
  facet normal 1.010286e-015 -1.927471e-016 -1.000000e+000
    outer loop
      vertex   -1.632204e-002 1.546972e-001 2.753400e-002
      vertex   -1.632204e-002 3.706972e-001 2.753400e-002
      vertex   1.115096e-002 1.546972e-001 2.753400e-002
    endloop
  endfacet
  facet normal 1.136571e-015 -1.766848e-016 -1.000000e+000
    outer loop
      vertex   1.115096e-002 1.546972e-001 2.753400e-002
      vertex   -1.632204e-002 3.706972e-001 2.753400e-002
      vertex   1.115096e-002 3.706972e-001 2.753400e-002
    endloop
  endfacet
endsolid
