solid ascii
  facet normal 1.305262e-001 -9.914449e-001 0.000000e+000
    outer loop
      vertex   2.079000e+000 0.000000e+000 1.000000e-001
      vertex   2.079000e+000 0.000000e+000 0.000000e+000
      vertex   2.110058e+000 4.088901e-003 1.000000e-001
    endloop
  endfacet
  facet normal 1.305262e-001 -9.914449e-001 0.000000e+000
    outer loop
      vertex   2.110058e+000 4.088901e-003 1.000000e-001
      vertex   2.079000e+000 0.000000e+000 0.000000e+000
      vertex   2.110058e+000 4.088901e-003 0.000000e+000
    endloop
  endfacet
  facet normal 3.826834e-001 -9.238795e-001 0.000000e+000
    outer loop
      vertex   2.139000e+000 1.607695e-002 0.000000e+000
      vertex   2.110058e+000 4.088901e-003 1.000000e-001
      vertex   2.110058e+000 4.088901e-003 0.000000e+000
    endloop
  endfacet
  facet normal 3.826834e-001 -9.238795e-001 0.000000e+000
    outer loop
      vertex   2.139000e+000 1.607695e-002 0.000000e+000
      vertex   2.139000e+000 1.607695e-002 1.000000e-001
      vertex   2.110058e+000 4.088901e-003 1.000000e-001
    endloop
  endfacet
  facet normal 6.087614e-001 -7.933533e-001 0.000000e+000
    outer loop
      vertex   2.139000e+000 1.607695e-002 0.000000e+000
      vertex   2.163853e+000 3.514719e-002 0.000000e+000
      vertex   2.139000e+000 1.607695e-002 1.000000e-001
    endloop
  endfacet
  facet normal 6.087614e-001 -7.933533e-001 0.000000e+000
    outer loop
      vertex   2.139000e+000 1.607695e-002 1.000000e-001
      vertex   2.163853e+000 3.514719e-002 0.000000e+000
      vertex   2.163853e+000 3.514719e-002 1.000000e-001
    endloop
  endfacet
  facet normal 7.933533e-001 -6.087614e-001 0.000000e+000
    outer loop
      vertex   2.163853e+000 3.514719e-002 1.000000e-001
      vertex   2.163853e+000 3.514719e-002 0.000000e+000
      vertex   2.182923e+000 6.000000e-002 0.000000e+000
    endloop
  endfacet
  facet normal 9.238795e-001 -3.826834e-001 -2.124320e-016
    outer loop
      vertex   2.182923e+000 6.000000e-002 1.000000e-001
      vertex   2.182923e+000 6.000000e-002 0.000000e+000
      vertex   2.194911e+000 8.894171e-002 0.000000e+000
    endloop
  endfacet
  facet normal 9.914449e-001 -1.305262e-001 4.348557e-015
    outer loop
      vertex   2.194911e+000 8.894171e-002 1.000000e-001
      vertex   2.194911e+000 8.894171e-002 0.000000e+000
      vertex   2.199000e+000 1.200000e-001 0.000000e+000
    endloop
  endfacet
  facet normal 9.914449e-001 -1.305262e-001 1.730499e-017
    outer loop
      vertex   2.199000e+000 1.200000e-001 1.000000e-001
      vertex   2.194911e+000 8.894171e-002 1.000000e-001
      vertex   2.199000e+000 1.200000e-001 0.000000e+000
    endloop
  endfacet
  facet normal 7.933533e-001 -6.087614e-001 -3.379305e-016
    outer loop
      vertex   2.163853e+000 3.514719e-002 1.000000e-001
      vertex   2.182923e+000 6.000000e-002 0.000000e+000
      vertex   2.182923e+000 6.000000e-002 1.000000e-001
    endloop
  endfacet
  facet normal 9.238795e-001 -3.826834e-001 3.943525e-015
    outer loop
      vertex   2.182923e+000 6.000000e-002 1.000000e-001
      vertex   2.194911e+000 8.894171e-002 0.000000e+000
      vertex   2.194911e+000 8.894171e-002 1.000000e-001
    endloop
  endfacet
  facet normal 0.000000e+000 -1.000000e+000 0.000000e+000
    outer loop
      vertex   1.200000e-001 0.000000e+000 0.000000e+000
      vertex   2.079000e+000 0.000000e+000 0.000000e+000
      vertex   1.200000e-001 0.000000e+000 1.000000e-001
    endloop
  endfacet
  facet normal 0.000000e+000 -1.000000e+000 0.000000e+000
    outer loop
      vertex   1.200000e-001 0.000000e+000 1.000000e-001
      vertex   2.079000e+000 0.000000e+000 0.000000e+000
      vertex   2.079000e+000 0.000000e+000 1.000000e-001
    endloop
  endfacet
  facet normal -9.914449e-001 -1.305262e-001 -0.000000e+000
    outer loop
      vertex   0.000000e+000 1.200000e-001 1.000000e-001
      vertex   0.000000e+000 1.200000e-001 0.000000e+000
      vertex   4.088901e-003 8.894171e-002 1.000000e-001
    endloop
  endfacet
  facet normal -9.914449e-001 -1.305262e-001 0.000000e+000
    outer loop
      vertex   4.088901e-003 8.894171e-002 1.000000e-001
      vertex   0.000000e+000 1.200000e-001 0.000000e+000
      vertex   4.088901e-003 8.894171e-002 0.000000e+000
    endloop
  endfacet
  facet normal -9.238795e-001 -3.826834e-001 -0.000000e+000
    outer loop
      vertex   1.607695e-002 6.000000e-002 0.000000e+000
      vertex   4.088901e-003 8.894171e-002 1.000000e-001
      vertex   4.088901e-003 8.894171e-002 0.000000e+000
    endloop
  endfacet
  facet normal -9.238795e-001 -3.826834e-001 2.561043e-017
    outer loop
      vertex   1.607695e-002 6.000000e-002 0.000000e+000
      vertex   1.607695e-002 6.000000e-002 1.000000e-001
      vertex   4.088901e-003 8.894171e-002 1.000000e-001
    endloop
  endfacet
  facet normal -7.933533e-001 -6.087614e-001 1.557449e-016
    outer loop
      vertex   1.607695e-002 6.000000e-002 0.000000e+000
      vertex   3.514719e-002 3.514719e-002 0.000000e+000
      vertex   1.607695e-002 6.000000e-002 1.000000e-001
    endloop
  endfacet
  facet normal -7.933533e-001 -6.087614e-001 0.000000e+000
    outer loop
      vertex   1.607695e-002 6.000000e-002 1.000000e-001
      vertex   3.514719e-002 3.514719e-002 0.000000e+000
      vertex   3.514719e-002 3.514719e-002 1.000000e-001
    endloop
  endfacet
  facet normal -6.087614e-001 -7.933533e-001 -0.000000e+000
    outer loop
      vertex   3.514719e-002 3.514719e-002 1.000000e-001
      vertex   3.514719e-002 3.514719e-002 0.000000e+000
      vertex   6.000000e-002 1.607695e-002 0.000000e+000
    endloop
  endfacet
  facet normal -3.826834e-001 -9.238795e-001 -1.858780e-016
    outer loop
      vertex   6.000000e-002 1.607695e-002 1.000000e-001
      vertex   6.000000e-002 1.607695e-002 0.000000e+000
      vertex   8.894171e-002 4.088901e-003 0.000000e+000
    endloop
  endfacet
  facet normal -1.305262e-001 -9.914449e-001 -5.434244e-017
    outer loop
      vertex   8.894171e-002 4.088901e-003 1.000000e-001
      vertex   8.894171e-002 4.088901e-003 0.000000e+000
      vertex   1.200000e-001 0.000000e+000 0.000000e+000
    endloop
  endfacet
  facet normal -1.305262e-001 -9.914449e-001 0.000000e+000
    outer loop
      vertex   1.200000e-001 0.000000e+000 1.000000e-001
      vertex   8.894171e-002 4.088901e-003 1.000000e-001
      vertex   1.200000e-001 0.000000e+000 0.000000e+000
    endloop
  endfacet
  facet normal -6.087614e-001 -7.933533e-001 -2.956892e-016
    outer loop
      vertex   3.514719e-002 3.514719e-002 1.000000e-001
      vertex   6.000000e-002 1.607695e-002 0.000000e+000
      vertex   6.000000e-002 1.607695e-002 1.000000e-001
    endloop
  endfacet
  facet normal -3.826834e-001 -9.238795e-001 -1.593240e-016
    outer loop
      vertex   6.000000e-002 1.607695e-002 1.000000e-001
      vertex   8.894171e-002 4.088901e-003 0.000000e+000
      vertex   8.894171e-002 4.088901e-003 1.000000e-001
    endloop
  endfacet
  facet normal -1.000000e+000 0.000000e+000 0.000000e+000
    outer loop
      vertex   0.000000e+000 1.941000e+000 0.000000e+000
      vertex   0.000000e+000 1.200000e-001 0.000000e+000
      vertex   0.000000e+000 1.941000e+000 1.000000e-001
    endloop
  endfacet
  facet normal -1.000000e+000 -0.000000e+000 0.000000e+000
    outer loop
      vertex   0.000000e+000 1.941000e+000 1.000000e-001
      vertex   0.000000e+000 1.200000e-001 0.000000e+000
      vertex   0.000000e+000 1.200000e-001 1.000000e-001
    endloop
  endfacet
  facet normal 0.000000e+000 1.000000e+000 -0.000000e+000
    outer loop
      vertex   1.300000e-001 1.941000e+000 0.000000e+000
      vertex   0.000000e+000 1.941000e+000 0.000000e+000
      vertex   1.300000e-001 1.941000e+000 1.000000e-001
    endloop
  endfacet
  facet normal 0.000000e+000 1.000000e+000 -0.000000e+000
    outer loop
      vertex   1.300000e-001 1.941000e+000 1.000000e-001
      vertex   0.000000e+000 1.941000e+000 0.000000e+000
      vertex   0.000000e+000 1.941000e+000 1.000000e-001
    endloop
  endfacet
  facet normal 1.000000e+000 0.000000e+000 -0.000000e+000
    outer loop
      vertex   1.300000e-001 2.500000e-001 0.000000e+000
      vertex   1.300000e-001 1.941000e+000 0.000000e+000
      vertex   1.300000e-001 2.500000e-001 1.000000e-001
    endloop
  endfacet
  facet normal 1.000000e+000 -0.000000e+000 0.000000e+000
    outer loop
      vertex   1.300000e-001 2.500000e-001 1.000000e-001
      vertex   1.300000e-001 1.941000e+000 0.000000e+000
      vertex   1.300000e-001 1.941000e+000 1.000000e-001
    endloop
  endfacet
  facet normal 1.305262e-001 9.914449e-001 2.768798e-016
    outer loop
      vertex   2.500000e-001 1.300000e-001 0.000000e+000
      vertex   2.189417e-001 1.340889e-001 0.000000e+000
      vertex   2.500000e-001 1.300000e-001 1.000000e-001
    endloop
  endfacet
  facet normal 1.305262e-001 9.914449e-001 -2.027246e-016
    outer loop
      vertex   2.500000e-001 1.300000e-001 1.000000e-001
      vertex   2.189417e-001 1.340889e-001 0.000000e+000
      vertex   2.189417e-001 1.340889e-001 1.000000e-001
    endloop
  endfacet
  facet normal 3.826834e-001 9.238795e-001 -4.399610e-017
    outer loop
      vertex   2.189417e-001 1.340889e-001 1.000000e-001
      vertex   2.189417e-001 1.340889e-001 0.000000e+000
      vertex   1.900000e-001 1.460770e-001 1.000000e-001
    endloop
  endfacet
  facet normal 3.826834e-001 9.238795e-001 -1.557449e-016
    outer loop
      vertex   1.900000e-001 1.460770e-001 1.000000e-001
      vertex   2.189417e-001 1.340889e-001 0.000000e+000
      vertex   1.900000e-001 1.460770e-001 0.000000e+000
    endloop
  endfacet
  facet normal 6.087614e-001 7.933533e-001 0.000000e+000
    outer loop
      vertex   1.651472e-001 1.651472e-001 1.000000e-001
      vertex   1.900000e-001 1.460770e-001 0.000000e+000
      vertex   1.651472e-001 1.651472e-001 0.000000e+000
    endloop
  endfacet
  facet normal 7.933533e-001 6.087614e-001 0.000000e+000
    outer loop
      vertex   1.460770e-001 1.900000e-001 0.000000e+000
      vertex   1.651472e-001 1.651472e-001 1.000000e-001
      vertex   1.651472e-001 1.651472e-001 0.000000e+000
    endloop
  endfacet
  facet normal 7.933533e-001 6.087614e-001 -1.689652e-016
    outer loop
      vertex   1.460770e-001 1.900000e-001 0.000000e+000
      vertex   1.460770e-001 1.900000e-001 1.000000e-001
      vertex   1.651472e-001 1.651472e-001 1.000000e-001
    endloop
  endfacet
  facet normal 9.238795e-001 3.826834e-001 -1.038299e-016
    outer loop
      vertex   1.460770e-001 1.900000e-001 0.000000e+000
      vertex   1.340889e-001 2.189417e-001 0.000000e+000
      vertex   1.460770e-001 1.900000e-001 1.000000e-001
    endloop
  endfacet
  facet normal 9.238795e-001 3.826834e-001 -1.062160e-016
    outer loop
      vertex   1.460770e-001 1.900000e-001 1.000000e-001
      vertex   1.340889e-001 2.189417e-001 0.000000e+000
      vertex   1.340889e-001 2.189417e-001 1.000000e-001
    endloop
  endfacet
  facet normal 9.914449e-001 1.305262e-001 -3.622830e-017
    outer loop
      vertex   1.340889e-001 2.189417e-001 1.000000e-001
      vertex   1.340889e-001 2.189417e-001 0.000000e+000
      vertex   1.300000e-001 2.500000e-001 0.000000e+000
    endloop
  endfacet
  facet normal 9.914449e-001 1.305262e-001 0.000000e+000
    outer loop
      vertex   1.300000e-001 2.500000e-001 1.000000e-001
      vertex   1.340889e-001 2.189417e-001 1.000000e-001
      vertex   1.300000e-001 2.500000e-001 0.000000e+000
    endloop
  endfacet
  facet normal 6.087614e-001 7.933533e-001 -5.123455e-017
    outer loop
      vertex   1.900000e-001 1.460770e-001 1.000000e-001
      vertex   1.900000e-001 1.460770e-001 0.000000e+000
      vertex   1.651472e-001 1.651472e-001 1.000000e-001
    endloop
  endfacet
  facet normal -1.633642e-017 1.000000e+000 5.551115e-016
    outer loop
      vertex   1.949000e+000 1.300000e-001 0.000000e+000
      vertex   2.500000e-001 1.300000e-001 0.000000e+000
      vertex   1.949000e+000 1.300000e-001 1.000000e-001
    endloop
  endfacet
  facet normal 0.000000e+000 1.000000e+000 2.775558e-016
    outer loop
      vertex   1.949000e+000 1.300000e-001 1.000000e-001
      vertex   2.500000e-001 1.300000e-001 0.000000e+000
      vertex   2.500000e-001 1.300000e-001 1.000000e-001
    endloop
  endfacet
  facet normal -9.914449e-001 1.305262e-001 0.000000e+000
    outer loop
      vertex   2.069000e+000 2.500000e-001 0.000000e+000
      vertex   2.064911e+000 2.189417e-001 0.000000e+000
      vertex   2.069000e+000 2.500000e-001 1.000000e-001
    endloop
  endfacet
  facet normal -9.914449e-001 1.305262e-001 3.622830e-017
    outer loop
      vertex   2.069000e+000 2.500000e-001 1.000000e-001
      vertex   2.064911e+000 2.189417e-001 0.000000e+000
      vertex   2.064911e+000 2.189417e-001 1.000000e-001
    endloop
  endfacet
  facet normal -9.238795e-001 3.826834e-001 1.062160e-016
    outer loop
      vertex   2.064911e+000 2.189417e-001 1.000000e-001
      vertex   2.064911e+000 2.189417e-001 0.000000e+000
      vertex   2.052923e+000 1.900000e-001 1.000000e-001
    endloop
  endfacet
  facet normal -9.238795e-001 3.826834e-001 2.076599e-016
    outer loop
      vertex   2.052923e+000 1.900000e-001 1.000000e-001
      vertex   2.064911e+000 2.189417e-001 0.000000e+000
      vertex   2.052923e+000 1.900000e-001 0.000000e+000
    endloop
  endfacet
  facet normal -7.933533e-001 6.087614e-001 0.000000e+000
    outer loop
      vertex   2.033853e+000 1.651472e-001 1.000000e-001
      vertex   2.052923e+000 1.900000e-001 0.000000e+000
      vertex   2.033853e+000 1.651472e-001 0.000000e+000
    endloop
  endfacet
  facet normal -6.087614e-001 7.933533e-001 0.000000e+000
    outer loop
      vertex   2.009000e+000 1.460770e-001 0.000000e+000
      vertex   2.033853e+000 1.651472e-001 1.000000e-001
      vertex   2.033853e+000 1.651472e-001 0.000000e+000
    endloop
  endfacet
  facet normal -6.087614e-001 7.933533e-001 0.000000e+000
    outer loop
      vertex   2.009000e+000 1.460770e-001 0.000000e+000
      vertex   2.009000e+000 1.460770e-001 1.000000e-001
      vertex   2.033853e+000 1.651472e-001 1.000000e-001
    endloop
  endfacet
  facet normal -3.826834e-001 9.238795e-001 0.000000e+000
    outer loop
      vertex   2.009000e+000 1.460770e-001 0.000000e+000
      vertex   1.980058e+000 1.340889e-001 0.000000e+000
      vertex   2.009000e+000 1.460770e-001 1.000000e-001
    endloop
  endfacet
  facet normal -3.826834e-001 9.238795e-001 0.000000e+000
    outer loop
      vertex   2.009000e+000 1.460770e-001 1.000000e-001
      vertex   1.980058e+000 1.340889e-001 0.000000e+000
      vertex   1.980058e+000 1.340889e-001 1.000000e-001
    endloop
  endfacet
  facet normal -1.305262e-001 9.914449e-001 0.000000e+000
    outer loop
      vertex   1.980058e+000 1.340889e-001 1.000000e-001
      vertex   1.980058e+000 1.340889e-001 0.000000e+000
      vertex   1.949000e+000 1.300000e-001 0.000000e+000
    endloop
  endfacet
  facet normal -1.305262e-001 9.914449e-001 5.451072e-016
    outer loop
      vertex   1.949000e+000 1.300000e-001 1.000000e-001
      vertex   1.980058e+000 1.340889e-001 1.000000e-001
      vertex   1.949000e+000 1.300000e-001 0.000000e+000
    endloop
  endfacet
  facet normal -7.933533e-001 6.087614e-001 3.379305e-016
    outer loop
      vertex   2.052923e+000 1.900000e-001 1.000000e-001
      vertex   2.052923e+000 1.900000e-001 0.000000e+000
      vertex   2.033853e+000 1.651472e-001 1.000000e-001
    endloop
  endfacet
  facet normal -1.000000e+000 0.000000e+000 0.000000e+000
    outer loop
      vertex   2.069000e+000 2.531000e+000 0.000000e+000
      vertex   2.069000e+000 2.500000e-001 0.000000e+000
      vertex   2.069000e+000 2.531000e+000 1.000000e-001
    endloop
  endfacet
  facet normal -1.000000e+000 -0.000000e+000 0.000000e+000
    outer loop
      vertex   2.069000e+000 2.531000e+000 1.000000e-001
      vertex   2.069000e+000 2.500000e-001 0.000000e+000
      vertex   2.069000e+000 2.500000e-001 1.000000e-001
    endloop
  endfacet
  facet normal 0.000000e+000 1.000000e+000 -0.000000e+000
    outer loop
      vertex   2.199000e+000 2.531000e+000 0.000000e+000
      vertex   2.069000e+000 2.531000e+000 0.000000e+000
      vertex   2.199000e+000 2.531000e+000 1.000000e-001
    endloop
  endfacet
  facet normal 0.000000e+000 1.000000e+000 -0.000000e+000
    outer loop
      vertex   2.199000e+000 2.531000e+000 1.000000e-001
      vertex   2.069000e+000 2.531000e+000 0.000000e+000
      vertex   2.069000e+000 2.531000e+000 1.000000e-001
    endloop
  endfacet
  facet normal 1.000000e+000 0.000000e+000 -0.000000e+000
    outer loop
      vertex   2.199000e+000 1.200000e-001 0.000000e+000
      vertex   2.199000e+000 2.531000e+000 0.000000e+000
      vertex   2.199000e+000 1.200000e-001 1.000000e-001
    endloop
  endfacet
  facet normal 1.000000e+000 -0.000000e+000 0.000000e+000
    outer loop
      vertex   2.199000e+000 1.200000e-001 1.000000e-001
      vertex   2.199000e+000 2.531000e+000 0.000000e+000
      vertex   2.199000e+000 2.531000e+000 1.000000e-001
    endloop
  endfacet
  facet normal 0.000000e+000 -0.000000e+000 -1.000000e+000
    outer loop
      vertex   2.069000e+000 2.531000e+000 0.000000e+000
      vertex   2.199000e+000 2.531000e+000 0.000000e+000
      vertex   2.069000e+000 2.500000e-001 0.000000e+000
    endloop
  endfacet
  facet normal 0.000000e+000 0.000000e+000 -1.000000e+000
    outer loop
      vertex   2.069000e+000 2.500000e-001 0.000000e+000
      vertex   2.199000e+000 2.531000e+000 0.000000e+000
      vertex   2.199000e+000 1.200000e-001 0.000000e+000
    endloop
  endfacet
  facet normal -0.000000e+000 -0.000000e+000 -1.000000e+000
    outer loop
      vertex   2.064911e+000 2.189417e-001 0.000000e+000
      vertex   2.199000e+000 1.200000e-001 0.000000e+000
      vertex   2.052923e+000 1.900000e-001 0.000000e+000
    endloop
  endfacet
  facet normal 0.000000e+000 0.000000e+000 -1.000000e+000
    outer loop
      vertex   2.064911e+000 2.189417e-001 0.000000e+000
      vertex   2.069000e+000 2.500000e-001 0.000000e+000
      vertex   2.199000e+000 1.200000e-001 0.000000e+000
    endloop
  endfacet
  facet normal -0.000000e+000 0.000000e+000 -1.000000e+000
    outer loop
      vertex   2.199000e+000 1.200000e-001 0.000000e+000
      vertex   2.194911e+000 8.894171e-002 0.000000e+000
      vertex   2.052923e+000 1.900000e-001 0.000000e+000
    endloop
  endfacet
  facet normal 0.000000e+000 -0.000000e+000 -1.000000e+000
    outer loop
      vertex   2.052923e+000 1.900000e-001 0.000000e+000
      vertex   2.194911e+000 8.894171e-002 0.000000e+000
      vertex   2.182923e+000 6.000000e-002 0.000000e+000
    endloop
  endfacet
  facet normal 0.000000e+000 0.000000e+000 -1.000000e+000
    outer loop
      vertex   2.163853e+000 3.514719e-002 0.000000e+000
      vertex   2.052923e+000 1.900000e-001 0.000000e+000
      vertex   2.182923e+000 6.000000e-002 0.000000e+000
    endloop
  endfacet
  facet normal 0.000000e+000 0.000000e+000 -1.000000e+000
    outer loop
      vertex   2.163853e+000 3.514719e-002 0.000000e+000
      vertex   2.033853e+000 1.651472e-001 0.000000e+000
      vertex   2.052923e+000 1.900000e-001 0.000000e+000
    endloop
  endfacet
  facet normal -0.000000e+000 0.000000e+000 -1.000000e+000
    outer loop
      vertex   2.163853e+000 3.514719e-002 0.000000e+000
      vertex   2.139000e+000 1.607695e-002 0.000000e+000
      vertex   2.033853e+000 1.651472e-001 0.000000e+000
    endloop
  endfacet
  facet normal 0.000000e+000 -0.000000e+000 -1.000000e+000
    outer loop
      vertex   2.033853e+000 1.651472e-001 0.000000e+000
      vertex   2.139000e+000 1.607695e-002 0.000000e+000
      vertex   2.110058e+000 4.088901e-003 0.000000e+000
    endloop
  endfacet
  facet normal 0.000000e+000 0.000000e+000 -1.000000e+000
    outer loop
      vertex   2.079000e+000 0.000000e+000 0.000000e+000
      vertex   2.033853e+000 1.651472e-001 0.000000e+000
      vertex   2.110058e+000 4.088901e-003 0.000000e+000
    endloop
  endfacet
  facet normal 0.000000e+000 0.000000e+000 -1.000000e+000
    outer loop
      vertex   2.079000e+000 0.000000e+000 0.000000e+000
      vertex   2.009000e+000 1.460770e-001 0.000000e+000
      vertex   2.033853e+000 1.651472e-001 0.000000e+000
    endloop
  endfacet
  facet normal 0.000000e+000 0.000000e+000 -1.000000e+000
    outer loop
      vertex   2.079000e+000 0.000000e+000 0.000000e+000
      vertex   1.980058e+000 1.340889e-001 0.000000e+000
      vertex   2.009000e+000 1.460770e-001 0.000000e+000
    endloop
  endfacet
  facet normal 0.000000e+000 0.000000e+000 -1.000000e+000
    outer loop
      vertex   2.079000e+000 0.000000e+000 0.000000e+000
      vertex   1.949000e+000 1.300000e-001 0.000000e+000
      vertex   1.980058e+000 1.340889e-001 0.000000e+000
    endloop
  endfacet
  facet normal 0.000000e+000 0.000000e+000 -1.000000e+000
    outer loop
      vertex   2.079000e+000 0.000000e+000 0.000000e+000
      vertex   1.200000e-001 0.000000e+000 0.000000e+000
      vertex   1.949000e+000 1.300000e-001 0.000000e+000
    endloop
  endfacet
  facet normal -0.000000e+000 0.000000e+000 -1.000000e+000
    outer loop
      vertex   1.949000e+000 1.300000e-001 0.000000e+000
      vertex   1.200000e-001 0.000000e+000 0.000000e+000
      vertex   2.500000e-001 1.300000e-001 0.000000e+000
    endloop
  endfacet
  facet normal -0.000000e+000 0.000000e+000 -1.000000e+000
    outer loop
      vertex   2.500000e-001 1.300000e-001 0.000000e+000
      vertex   1.200000e-001 0.000000e+000 0.000000e+000
      vertex   2.189417e-001 1.340889e-001 0.000000e+000
    endloop
  endfacet
  facet normal -0.000000e+000 0.000000e+000 -1.000000e+000
    outer loop
      vertex   2.189417e-001 1.340889e-001 0.000000e+000
      vertex   1.200000e-001 0.000000e+000 0.000000e+000
      vertex   1.900000e-001 1.460770e-001 0.000000e+000
    endloop
  endfacet
  facet normal -0.000000e+000 0.000000e+000 -1.000000e+000
    outer loop
      vertex   1.900000e-001 1.460770e-001 0.000000e+000
      vertex   1.200000e-001 0.000000e+000 0.000000e+000
      vertex   1.651472e-001 1.651472e-001 0.000000e+000
    endloop
  endfacet
  facet normal -0.000000e+000 0.000000e+000 -1.000000e+000
    outer loop
      vertex   1.651472e-001 1.651472e-001 0.000000e+000
      vertex   1.200000e-001 0.000000e+000 0.000000e+000
      vertex   8.894171e-002 4.088901e-003 0.000000e+000
    endloop
  endfacet
  facet normal 0.000000e+000 -0.000000e+000 -1.000000e+000
    outer loop
      vertex   6.000000e-002 1.607695e-002 0.000000e+000
      vertex   1.651472e-001 1.651472e-001 0.000000e+000
      vertex   8.894171e-002 4.088901e-003 0.000000e+000
    endloop
  endfacet
  facet normal 0.000000e+000 0.000000e+000 -1.000000e+000
    outer loop
      vertex   6.000000e-002 1.607695e-002 0.000000e+000
      vertex   3.514719e-002 3.514719e-002 0.000000e+000
      vertex   1.651472e-001 1.651472e-001 0.000000e+000
    endloop
  endfacet
  facet normal -0.000000e+000 0.000000e+000 -1.000000e+000
    outer loop
      vertex   1.651472e-001 1.651472e-001 0.000000e+000
      vertex   3.514719e-002 3.514719e-002 0.000000e+000
      vertex   1.460770e-001 1.900000e-001 0.000000e+000
    endloop
  endfacet
  facet normal -0.000000e+000 0.000000e+000 -1.000000e+000
    outer loop
      vertex   1.460770e-001 1.900000e-001 0.000000e+000
      vertex   3.514719e-002 3.514719e-002 0.000000e+000
      vertex   1.607695e-002 6.000000e-002 0.000000e+000
    endloop
  endfacet
  facet normal 0.000000e+000 -0.000000e+000 -1.000000e+000
    outer loop
      vertex   4.088901e-003 8.894171e-002 0.000000e+000
      vertex   1.460770e-001 1.900000e-001 0.000000e+000
      vertex   1.607695e-002 6.000000e-002 0.000000e+000
    endloop
  endfacet
  facet normal 0.000000e+000 0.000000e+000 -1.000000e+000
    outer loop
      vertex   4.088901e-003 8.894171e-002 0.000000e+000
      vertex   0.000000e+000 1.200000e-001 0.000000e+000
      vertex   1.460770e-001 1.900000e-001 0.000000e+000
    endloop
  endfacet
  facet normal -0.000000e+000 0.000000e+000 -1.000000e+000
    outer loop
      vertex   1.460770e-001 1.900000e-001 0.000000e+000
      vertex   0.000000e+000 1.200000e-001 0.000000e+000
      vertex   1.340889e-001 2.189417e-001 0.000000e+000
    endloop
  endfacet
  facet normal -0.000000e+000 0.000000e+000 -1.000000e+000
    outer loop
      vertex   1.340889e-001 2.189417e-001 0.000000e+000
      vertex   0.000000e+000 1.200000e-001 0.000000e+000
      vertex   1.300000e-001 2.500000e-001 0.000000e+000
    endloop
  endfacet
  facet normal -0.000000e+000 0.000000e+000 -1.000000e+000
    outer loop
      vertex   1.300000e-001 2.500000e-001 0.000000e+000
      vertex   0.000000e+000 1.200000e-001 0.000000e+000
      vertex   0.000000e+000 1.941000e+000 0.000000e+000
    endloop
  endfacet
  facet normal -0.000000e+000 -0.000000e+000 -1.000000e+000
    outer loop
      vertex   1.300000e-001 1.941000e+000 0.000000e+000
      vertex   1.300000e-001 2.500000e-001 0.000000e+000
      vertex   0.000000e+000 1.941000e+000 0.000000e+000
    endloop
  endfacet
  facet normal 0.000000e+000 0.000000e+000 1.000000e+000
    outer loop
      vertex   2.199000e+000 2.531000e+000 1.000000e-001
      vertex   2.069000e+000 2.500000e-001 1.000000e-001
      vertex   2.199000e+000 1.200000e-001 1.000000e-001
    endloop
  endfacet
  facet normal 0.000000e+000 0.000000e+000 1.000000e+000
    outer loop
      vertex   2.199000e+000 2.531000e+000 1.000000e-001
      vertex   2.069000e+000 2.531000e+000 1.000000e-001
      vertex   2.069000e+000 2.500000e-001 1.000000e-001
    endloop
  endfacet
  facet normal 0.000000e+000 0.000000e+000 1.000000e+000
    outer loop
      vertex   2.069000e+000 2.500000e-001 1.000000e-001
      vertex   2.064911e+000 2.189417e-001 1.000000e-001
      vertex   2.199000e+000 1.200000e-001 1.000000e-001
    endloop
  endfacet
  facet normal 0.000000e+000 0.000000e+000 1.000000e+000
    outer loop
      vertex   2.199000e+000 1.200000e-001 1.000000e-001
      vertex   2.064911e+000 2.189417e-001 1.000000e-001
      vertex   2.052923e+000 1.900000e-001 1.000000e-001
    endloop
  endfacet
  facet normal 0.000000e+000 0.000000e+000 1.000000e+000
    outer loop
      vertex   2.194911e+000 8.894171e-002 1.000000e-001
      vertex   2.052923e+000 1.900000e-001 1.000000e-001
      vertex   2.182923e+000 6.000000e-002 1.000000e-001
    endloop
  endfacet
  facet normal 0.000000e+000 -0.000000e+000 1.000000e+000
    outer loop
      vertex   2.194911e+000 8.894171e-002 1.000000e-001
      vertex   2.199000e+000 1.200000e-001 1.000000e-001
      vertex   2.052923e+000 1.900000e-001 1.000000e-001
    endloop
  endfacet
  facet normal 0.000000e+000 0.000000e+000 1.000000e+000
    outer loop
      vertex   2.182923e+000 6.000000e-002 1.000000e-001
      vertex   2.052923e+000 1.900000e-001 1.000000e-001
      vertex   2.163853e+000 3.514719e-002 1.000000e-001
    endloop
  endfacet
  facet normal 0.000000e+000 0.000000e+000 1.000000e+000
    outer loop
      vertex   2.163853e+000 3.514719e-002 1.000000e-001
      vertex   2.052923e+000 1.900000e-001 1.000000e-001
      vertex   2.033853e+000 1.651472e-001 1.000000e-001
    endloop
  endfacet
  facet normal 0.000000e+000 0.000000e+000 1.000000e+000
    outer loop
      vertex   2.139000e+000 1.607695e-002 1.000000e-001
      vertex   2.033853e+000 1.651472e-001 1.000000e-001
      vertex   2.110058e+000 4.088901e-003 1.000000e-001
    endloop
  endfacet
  facet normal 0.000000e+000 -0.000000e+000 1.000000e+000
    outer loop
      vertex   2.139000e+000 1.607695e-002 1.000000e-001
      vertex   2.163853e+000 3.514719e-002 1.000000e-001
      vertex   2.033853e+000 1.651472e-001 1.000000e-001
    endloop
  endfacet
  facet normal 0.000000e+000 0.000000e+000 1.000000e+000
    outer loop
      vertex   2.110058e+000 4.088901e-003 1.000000e-001
      vertex   2.033853e+000 1.651472e-001 1.000000e-001
      vertex   2.079000e+000 0.000000e+000 1.000000e-001
    endloop
  endfacet
  facet normal 0.000000e+000 0.000000e+000 1.000000e+000
    outer loop
      vertex   2.079000e+000 0.000000e+000 1.000000e-001
      vertex   2.033853e+000 1.651472e-001 1.000000e-001
      vertex   2.009000e+000 1.460770e-001 1.000000e-001
    endloop
  endfacet
  facet normal -0.000000e+000 -0.000000e+000 1.000000e+000
    outer loop
      vertex   1.980058e+000 1.340889e-001 1.000000e-001
      vertex   2.079000e+000 0.000000e+000 1.000000e-001
      vertex   2.009000e+000 1.460770e-001 1.000000e-001
    endloop
  endfacet
  facet normal 0.000000e+000 0.000000e+000 1.000000e+000
    outer loop
      vertex   1.980058e+000 1.340889e-001 1.000000e-001
      vertex   1.949000e+000 1.300000e-001 1.000000e-001
      vertex   2.079000e+000 0.000000e+000 1.000000e-001
    endloop
  endfacet
  facet normal 0.000000e+000 0.000000e+000 1.000000e+000
    outer loop
      vertex   2.079000e+000 0.000000e+000 1.000000e-001
      vertex   1.949000e+000 1.300000e-001 1.000000e-001
      vertex   2.500000e-001 1.300000e-001 1.000000e-001
    endloop
  endfacet
  facet normal 0.000000e+000 -0.000000e+000 1.000000e+000
    outer loop
      vertex   1.200000e-001 0.000000e+000 1.000000e-001
      vertex   2.500000e-001 1.300000e-001 1.000000e-001
      vertex   2.189417e-001 1.340889e-001 1.000000e-001
    endloop
  endfacet
  facet normal -0.000000e+000 0.000000e+000 1.000000e+000
    outer loop
      vertex   1.900000e-001 1.460770e-001 1.000000e-001
      vertex   1.200000e-001 0.000000e+000 1.000000e-001
      vertex   2.189417e-001 1.340889e-001 1.000000e-001
    endloop
  endfacet
  facet normal 0.000000e+000 0.000000e+000 1.000000e+000
    outer loop
      vertex   1.900000e-001 1.460770e-001 1.000000e-001
      vertex   1.651472e-001 1.651472e-001 1.000000e-001
      vertex   1.200000e-001 0.000000e+000 1.000000e-001
    endloop
  endfacet
  facet normal 0.000000e+000 -0.000000e+000 1.000000e+000
    outer loop
      vertex   1.200000e-001 0.000000e+000 1.000000e-001
      vertex   1.651472e-001 1.651472e-001 1.000000e-001
      vertex   8.894171e-002 4.088901e-003 1.000000e-001
    endloop
  endfacet
  facet normal 0.000000e+000 -0.000000e+000 1.000000e+000
    outer loop
      vertex   8.894171e-002 4.088901e-003 1.000000e-001
      vertex   1.651472e-001 1.651472e-001 1.000000e-001
      vertex   6.000000e-002 1.607695e-002 1.000000e-001
    endloop
  endfacet
  facet normal 0.000000e+000 -0.000000e+000 1.000000e+000
    outer loop
      vertex   6.000000e-002 1.607695e-002 1.000000e-001
      vertex   1.651472e-001 1.651472e-001 1.000000e-001
      vertex   3.514719e-002 3.514719e-002 1.000000e-001
    endloop
  endfacet
  facet normal 0.000000e+000 -0.000000e+000 1.000000e+000
    outer loop
      vertex   3.514719e-002 3.514719e-002 1.000000e-001
      vertex   1.651472e-001 1.651472e-001 1.000000e-001
      vertex   1.460770e-001 1.900000e-001 1.000000e-001
    endloop
  endfacet
  facet normal 0.000000e+000 -0.000000e+000 1.000000e+000
    outer loop
      vertex   1.607695e-002 6.000000e-002 1.000000e-001
      vertex   1.460770e-001 1.900000e-001 1.000000e-001
      vertex   4.088901e-003 8.894171e-002 1.000000e-001
    endloop
  endfacet
  facet normal -0.000000e+000 0.000000e+000 1.000000e+000
    outer loop
      vertex   1.607695e-002 6.000000e-002 1.000000e-001
      vertex   3.514719e-002 3.514719e-002 1.000000e-001
      vertex   1.460770e-001 1.900000e-001 1.000000e-001
    endloop
  endfacet
  facet normal 0.000000e+000 0.000000e+000 1.000000e+000
    outer loop
      vertex   2.079000e+000 0.000000e+000 1.000000e-001
      vertex   2.500000e-001 1.300000e-001 1.000000e-001
      vertex   1.200000e-001 0.000000e+000 1.000000e-001
    endloop
  endfacet
  facet normal 0.000000e+000 -0.000000e+000 1.000000e+000
    outer loop
      vertex   4.088901e-003 8.894171e-002 1.000000e-001
      vertex   1.460770e-001 1.900000e-001 1.000000e-001
      vertex   0.000000e+000 1.200000e-001 1.000000e-001
    endloop
  endfacet
  facet normal 0.000000e+000 -0.000000e+000 1.000000e+000
    outer loop
      vertex   0.000000e+000 1.200000e-001 1.000000e-001
      vertex   1.460770e-001 1.900000e-001 1.000000e-001
      vertex   1.340889e-001 2.189417e-001 1.000000e-001
    endloop
  endfacet
  facet normal -0.000000e+000 0.000000e+000 1.000000e+000
    outer loop
      vertex   1.300000e-001 2.500000e-001 1.000000e-001
      vertex   0.000000e+000 1.200000e-001 1.000000e-001
      vertex   1.340889e-001 2.189417e-001 1.000000e-001
    endloop
  endfacet
  facet normal 0.000000e+000 0.000000e+000 1.000000e+000
    outer loop
      vertex   1.300000e-001 2.500000e-001 1.000000e-001
      vertex   0.000000e+000 1.941000e+000 1.000000e-001
      vertex   0.000000e+000 1.200000e-001 1.000000e-001
    endloop
  endfacet
  facet normal 0.000000e+000 -0.000000e+000 1.000000e+000
    outer loop
      vertex   1.300000e-001 2.500000e-001 1.000000e-001
      vertex   1.300000e-001 1.941000e+000 1.000000e-001
      vertex   0.000000e+000 1.941000e+000 1.000000e-001
    endloop
  endfacet
endsolid
