solid ascii
  facet normal -5.147875e-002 -9.986741e-001 -0.000000e+000
    outer loop
      vertex   -1.059056e-002 -1.024541e-001 2.290000e-001
      vertex   -1.059056e-002 -1.024541e-001 0.000000e+000
      vertex   1.261386e-017 -1.030000e-001 2.290000e-001
    endloop
  endfacet
  facet normal -1.538906e-001 -9.880879e-001 0.000000e+000
    outer loop
      vertex   -1.059056e-002 -1.024541e-001 2.290000e-001
      vertex   -2.106886e-002 -1.008221e-001 0.000000e+000
      vertex   -1.059056e-002 -1.024541e-001 0.000000e+000
    endloop
  endfacet
  facet normal -1.538906e-001 -9.880879e-001 -3.030960e-017
    outer loop
      vertex   -1.059056e-002 -1.024541e-001 2.290000e-001
      vertex   -2.106886e-002 -1.008221e-001 2.290000e-001
      vertex   -2.106886e-002 -1.008221e-001 0.000000e+000
    endloop
  endfacet
  facet normal -2.546711e-001 -9.670277e-001 -5.015888e-017
    outer loop
      vertex   -2.106886e-002 -1.008221e-001 0.000000e+000
      vertex   -2.106886e-002 -1.008221e-001 2.290000e-001
      vertex   -3.132383e-002 -9.812144e-002 0.000000e+000
    endloop
  endfacet
  facet normal -2.546711e-001 -9.670277e-001 4.185533e-018
    outer loop
      vertex   -3.132383e-002 -9.812144e-002 0.000000e+000
      vertex   -2.106886e-002 -1.008221e-001 2.290000e-001
      vertex   -3.132383e-002 -9.812144e-002 2.290000e-001
    endloop
  endfacet
  facet normal -3.527521e-001 -9.357168e-001 5.301676e-017
    outer loop
      vertex   -4.124675e-002 -9.438064e-002 0.000000e+000
      vertex   -3.132383e-002 -9.812144e-002 2.290000e-001
      vertex   -4.124675e-002 -9.438064e-002 2.290000e-001
    endloop
  endfacet
  facet normal -4.470938e-001 -8.944871e-001 0.000000e+000
    outer loop
      vertex   -5.073245e-002 -8.963938e-002 0.000000e+000
      vertex   -4.124675e-002 -9.438064e-002 2.290000e-001
      vertex   -5.073245e-002 -8.963938e-002 2.290000e-001
    endloop
  endfacet
  facet normal -5.366962e-001 -8.437756e-001 0.000000e+000
    outer loop
      vertex   -5.968037e-002 -8.394792e-002 0.000000e+000
      vertex   -5.073245e-002 -8.963938e-002 2.290000e-001
      vertex   -5.968037e-002 -8.394792e-002 2.290000e-001
    endloop
  endfacet
  facet normal -6.206095e-001 -7.841198e-001 0.000000e+000
    outer loop
      vertex   -6.799567e-002 -7.736659e-002 0.000000e+000
      vertex   -5.968037e-002 -8.394792e-002 2.290000e-001
      vertex   -6.799567e-002 -7.736659e-002 2.290000e-001
    endloop
  endfacet
  facet normal -6.979442e-001 -7.161522e-001 4.464569e-017
    outer loop
      vertex   -7.559019e-002 -6.996515e-002 0.000000e+000
      vertex   -6.799567e-002 -7.736659e-002 2.290000e-001
      vertex   -7.559019e-002 -6.996515e-002 2.290000e-001
    endloop
  endfacet
  facet normal -7.678804e-001 -6.405932e-001 4.743605e-017
    outer loop
      vertex   -8.238344e-002 -6.182207e-002 0.000000e+000
      vertex   -7.559019e-002 -6.996515e-002 2.290000e-001
      vertex   -8.238344e-002 -6.182207e-002 2.290000e-001
    endloop
  endfacet
  facet normal -8.296770e-001 -5.582437e-001 -3.069391e-017
    outer loop
      vertex   -8.830341e-002 -5.302366e-002 0.000000e+000
      vertex   -8.238344e-002 -6.182207e-002 2.290000e-001
      vertex   -8.830341e-002 -5.302366e-002 2.290000e-001
    endloop
  endfacet
  facet normal -8.826788e-001 -4.699767e-001 0.000000e+000
    outer loop
      vertex   -9.328733e-002 -4.366318e-002 0.000000e+000
      vertex   -8.830341e-002 -5.302366e-002 2.290000e-001
      vertex   -9.328733e-002 -4.366318e-002 2.290000e-001
    endloop
  endfacet
  facet normal -9.263240e-001 -3.767279e-001 -1.116142e-017
    outer loop
      vertex   -9.728239e-002 -3.383987e-002 0.000000e+000
      vertex   -9.328733e-002 -4.366318e-002 2.290000e-001
      vertex   -9.728239e-002 -3.383987e-002 2.290000e-001
    endloop
  endfacet
  facet normal -9.601499e-001 -2.794856e-001 -1.255660e-017
    outer loop
      vertex   -1.002462e-001 -2.365784e-002 0.000000e+000
      vertex   -9.728239e-002 -3.383987e-002 2.290000e-001
      vertex   -1.002462e-001 -2.365784e-002 2.290000e-001
    endloop
  endfacet
  facet normal -9.837980e-001 -1.792808e-001 3.348427e-017
    outer loop
      vertex   -1.021474e-001 -1.322503e-002 0.000000e+000
      vertex   -1.002462e-001 -2.365784e-002 2.290000e-001
      vertex   -1.021474e-001 -1.322503e-002 2.290000e-001
    endloop
  endfacet
  facet normal -9.970175e-001 -7.717546e-002 -3.766980e-017
    outer loop
      vertex   -1.029659e-001 -2.652035e-003 0.000000e+000
      vertex   -1.021474e-001 -1.322503e-002 2.290000e-001
      vertex   -1.029659e-001 -2.652035e-003 2.290000e-001
    endloop
  endfacet
  facet normal -9.996685e-001 2.574791e-002 0.000000e+000
    outer loop
      vertex   -1.026928e-001 7.949073e-003 0.000000e+000
      vertex   -1.029659e-001 -2.652035e-003 2.290000e-001
      vertex   -1.026928e-001 7.949073e-003 2.290000e-001
    endloop
  endfacet
  facet normal -9.917227e-001 1.283984e-001 -1.185901e-017
    outer loop
      vertex   -1.013312e-001 1.846592e-002 0.000000e+000
      vertex   -1.026928e-001 7.949073e-003 2.290000e-001
      vertex   -1.013312e-001 1.846592e-002 2.290000e-001
    endloop
  endfacet
  facet normal -9.732644e-001 2.296877e-001 7.254925e-017
    outer loop
      vertex   -9.889544e-002 2.878702e-002 0.000000e+000
      vertex   -1.013312e-001 1.846592e-002 2.290000e-001
      vertex   -9.889544e-002 2.878702e-002 2.290000e-001
    endloop
  endfacet
  facet normal -9.444892e-001 3.285424e-001 6.417818e-017
    outer loop
      vertex   -9.541137e-002 3.880297e-002 0.000000e+000
      vertex   -9.889544e-002 2.878702e-002 2.290000e-001
      vertex   -9.541137e-002 3.880297e-002 2.290000e-001
    endloop
  endfacet
  facet normal -9.057023e-001 4.239144e-001 6.417818e-017
    outer loop
      vertex   -9.091592e-002 4.840760e-002 0.000000e+000
      vertex   -9.541137e-002 3.880297e-002 2.290000e-001
      vertex   -9.091592e-002 4.840760e-002 2.290000e-001
    endloop
  endfacet
  facet normal -8.573146e-001 5.147928e-001 1.199853e-016
    outer loop
      vertex   -8.545673e-002 5.749910e-002 0.000000e+000
      vertex   -9.091592e-002 4.840760e-002 2.290000e-001
      vertex   -8.545673e-002 5.749910e-002 2.290000e-001
    endloop
  endfacet
  facet normal -7.998392e-001 6.002143e-001 0.000000e+000
    outer loop
      vertex   -7.909169e-002 6.598110e-002 0.000000e+000
      vertex   -8.545673e-002 5.749910e-002 2.290000e-001
      vertex   -7.909169e-002 6.598110e-002 2.290000e-001
    endloop
  endfacet
  facet normal -7.338854e-001 6.792733e-001 -3.627462e-017
    outer loop
      vertex   -7.188825e-002 7.376368e-002 0.000000e+000
      vertex   -7.909169e-002 6.598110e-002 2.290000e-001
      vertex   -7.188825e-002 7.376368e-002 2.290000e-001
    endloop
  endfacet
  facet normal -6.601521e-001 7.511319e-001 2.790356e-017
    outer loop
      vertex   -6.392278e-002 8.076434e-002 0.000000e+000
      vertex   -7.188825e-002 7.376368e-002 2.290000e-001
      vertex   -6.392278e-002 8.076434e-002 2.290000e-001
    endloop
  endfacet
  facet normal -5.794211e-001 8.150283e-001 -1.116142e-017
    outer loop
      vertex   -5.527971e-002 8.690888e-002 0.000000e+000
      vertex   -6.392278e-002 8.076434e-002 2.290000e-001
      vertex   -5.527971e-002 8.690888e-002 2.290000e-001
    endloop
  endfacet
  facet normal -4.925481e-001 8.702852e-001 2.232284e-017
    outer loop
      vertex   -4.605066e-002 9.213217e-002 0.000000e+000
      vertex   -5.527971e-002 8.690888e-002 2.290000e-001
      vertex   -4.605066e-002 9.213217e-002 2.290000e-001
    endloop
  endfacet
  facet normal -4.004539e-001 9.163169e-001 2.790356e-017
    outer loop
      vertex   -3.633346e-002 9.637883e-002 0.000000e+000
      vertex   -4.605066e-002 9.213217e-002 2.290000e-001
      vertex   -3.633346e-002 9.637883e-002 2.290000e-001
    endloop
  endfacet
  facet normal -3.041148e-001 9.526354e-001 0.000000e+000
    outer loop
      vertex   -2.623113e-002 9.960386e-002 0.000000e+000
      vertex   -3.633346e-002 9.637883e-002 2.290000e-001
      vertex   -2.623113e-002 9.960386e-002 2.290000e-001
    endloop
  endfacet
  facet normal -2.045521e-001 9.788557e-001 4.046016e-017
    outer loop
      vertex   -1.585073e-002 1.017731e-001 0.000000e+000
      vertex   -2.623113e-002 9.960386e-002 2.290000e-001
      vertex   -1.585073e-002 1.017731e-001 2.290000e-001
    endloop
  endfacet
  facet normal -1.028210e-001 9.946999e-001 2.092767e-017
    outer loop
      vertex   -5.302312e-003 1.028634e-001 0.000000e+000
      vertex   -1.585073e-002 1.017731e-001 2.290000e-001
      vertex   -5.302312e-003 1.028634e-001 2.290000e-001
    endloop
  endfacet
  facet normal 0.000000e+000 1.000000e+000 -0.000000e+000
    outer loop
      vertex   5.302312e-003 1.028634e-001 0.000000e+000
      vertex   -5.302312e-003 1.028634e-001 2.290000e-001
      vertex   5.302312e-003 1.028634e-001 2.290000e-001
    endloop
  endfacet
  facet normal 1.028210e-001 9.946999e-001 -2.023008e-017
    outer loop
      vertex   1.585073e-002 1.017731e-001 0.000000e+000
      vertex   5.302312e-003 1.028634e-001 2.290000e-001
      vertex   1.585073e-002 1.017731e-001 2.290000e-001
    endloop
  endfacet
  facet normal 2.045521e-001 9.788557e-001 0.000000e+000
    outer loop
      vertex   2.623113e-002 9.960386e-002 0.000000e+000
      vertex   1.585073e-002 1.017731e-001 2.290000e-001
      vertex   2.623113e-002 9.960386e-002 2.290000e-001
    endloop
  endfacet
  facet normal 3.041148e-001 9.526354e-001 -5.580711e-018
    outer loop
      vertex   3.633346e-002 9.637883e-002 0.000000e+000
      vertex   2.623113e-002 9.960386e-002 2.290000e-001
      vertex   3.633346e-002 9.637883e-002 2.290000e-001
    endloop
  endfacet
  facet normal 4.004539e-001 9.163169e-001 -2.790356e-018
    outer loop
      vertex   4.605066e-002 9.213217e-002 0.000000e+000
      vertex   3.633346e-002 9.637883e-002 2.290000e-001
      vertex   4.605066e-002 9.213217e-002 2.290000e-001
    endloop
  endfacet
  facet normal 4.925481e-001 8.702852e-001 3.069391e-017
    outer loop
      vertex   5.527971e-002 8.690888e-002 0.000000e+000
      vertex   4.605066e-002 9.213217e-002 2.290000e-001
      vertex   5.527971e-002 8.690888e-002 2.290000e-001
    endloop
  endfacet
  facet normal 5.794211e-001 8.150283e-001 -5.580711e-018
    outer loop
      vertex   6.392278e-002 8.076434e-002 0.000000e+000
      vertex   5.527971e-002 8.690888e-002 2.290000e-001
      vertex   6.392278e-002 8.076434e-002 2.290000e-001
    endloop
  endfacet
  facet normal 6.601521e-001 7.511319e-001 5.301676e-017
    outer loop
      vertex   7.188825e-002 7.376368e-002 0.000000e+000
      vertex   6.392278e-002 8.076434e-002 2.290000e-001
      vertex   7.188825e-002 7.376368e-002 2.290000e-001
    endloop
  endfacet
  facet normal 7.338854e-001 6.792733e-001 0.000000e+000
    outer loop
      vertex   7.909169e-002 6.598110e-002 0.000000e+000
      vertex   7.188825e-002 7.376368e-002 2.290000e-001
      vertex   7.909169e-002 6.598110e-002 2.290000e-001
    endloop
  endfacet
  facet normal 7.998392e-001 6.002143e-001 -8.092031e-017
    outer loop
      vertex   8.545673e-002 5.749910e-002 0.000000e+000
      vertex   7.909169e-002 6.598110e-002 2.290000e-001
      vertex   8.545673e-002 5.749910e-002 2.290000e-001
    endloop
  endfacet
  facet normal 8.573146e-001 5.147928e-001 -2.232284e-017
    outer loop
      vertex   9.091592e-002 4.840760e-002 0.000000e+000
      vertex   8.545673e-002 5.749910e-002 2.290000e-001
      vertex   9.091592e-002 4.840760e-002 2.290000e-001
    endloop
  endfacet
  facet normal 9.057023e-001 4.239144e-001 -4.464569e-017
    outer loop
      vertex   9.541137e-002 3.880297e-002 0.000000e+000
      vertex   9.091592e-002 4.840760e-002 2.290000e-001
      vertex   9.541137e-002 3.880297e-002 2.290000e-001
    endloop
  endfacet
  facet normal 9.444892e-001 3.285424e-001 -4.743605e-017
    outer loop
      vertex   9.889544e-002 2.878702e-002 0.000000e+000
      vertex   9.541137e-002 3.880297e-002 2.290000e-001
      vertex   9.889544e-002 2.878702e-002 2.290000e-001
    endloop
  endfacet
  facet normal 9.732644e-001 2.296877e-001 2.092767e-017
    outer loop
      vertex   1.013312e-001 1.846592e-002 0.000000e+000
      vertex   9.889544e-002 2.878702e-002 2.290000e-001
      vertex   1.013312e-001 1.846592e-002 2.290000e-001
    endloop
  endfacet
  facet normal 9.917227e-001 1.283984e-001 0.000000e+000
    outer loop
      vertex   1.026928e-001 7.949073e-003 0.000000e+000
      vertex   1.013312e-001 1.846592e-002 2.290000e-001
      vertex   1.026928e-001 7.949073e-003 2.290000e-001
    endloop
  endfacet
  facet normal 9.996685e-001 2.574791e-002 6.818932e-017
    outer loop
      vertex   1.029659e-001 -2.652035e-003 0.000000e+000
      vertex   1.026928e-001 7.949073e-003 2.290000e-001
      vertex   1.029659e-001 -2.652035e-003 2.290000e-001
    endloop
  endfacet
  facet normal 9.970175e-001 -7.717546e-002 -1.464937e-017
    outer loop
      vertex   1.021474e-001 -1.322503e-002 0.000000e+000
      vertex   1.029659e-001 -2.652035e-003 2.290000e-001
      vertex   1.021474e-001 -1.322503e-002 2.290000e-001
    endloop
  endfacet
  facet normal 9.837980e-001 -1.792808e-001 3.069391e-017
    outer loop
      vertex   1.002462e-001 -2.365784e-002 0.000000e+000
      vertex   1.021474e-001 -1.322503e-002 2.290000e-001
      vertex   1.002462e-001 -2.365784e-002 2.290000e-001
    endloop
  endfacet
  facet normal 9.601499e-001 -2.794856e-001 2.511320e-017
    outer loop
      vertex   9.728239e-002 -3.383987e-002 0.000000e+000
      vertex   1.002462e-001 -2.365784e-002 2.290000e-001
      vertex   9.728239e-002 -3.383987e-002 2.290000e-001
    endloop
  endfacet
  facet normal 9.263240e-001 -3.767279e-001 0.000000e+000
    outer loop
      vertex   9.328733e-002 -4.366318e-002 0.000000e+000
      vertex   9.728239e-002 -3.383987e-002 2.290000e-001
      vertex   9.328733e-002 -4.366318e-002 2.290000e-001
    endloop
  endfacet
  facet normal 8.826788e-001 -4.699767e-001 6.975889e-017
    outer loop
      vertex   8.830341e-002 -5.302366e-002 0.000000e+000
      vertex   9.328733e-002 -4.366318e-002 2.290000e-001
      vertex   8.830341e-002 -5.302366e-002 2.290000e-001
    endloop
  endfacet
  facet normal 8.296770e-001 -5.582437e-001 -2.790356e-018
    outer loop
      vertex   8.238344e-002 -6.182207e-002 0.000000e+000
      vertex   8.830341e-002 -5.302366e-002 2.290000e-001
      vertex   8.238344e-002 -6.182207e-002 2.290000e-001
    endloop
  endfacet
  facet normal 7.678804e-001 -6.405932e-001 -2.232284e-017
    outer loop
      vertex   7.559019e-002 -6.996515e-002 0.000000e+000
      vertex   8.238344e-002 -6.182207e-002 2.290000e-001
      vertex   7.559019e-002 -6.996515e-002 2.290000e-001
    endloop
  endfacet
  facet normal 6.979442e-001 -7.161522e-001 0.000000e+000
    outer loop
      vertex   6.799567e-002 -7.736659e-002 0.000000e+000
      vertex   7.559019e-002 -6.996515e-002 2.290000e-001
      vertex   6.799567e-002 -7.736659e-002 2.290000e-001
    endloop
  endfacet
  facet normal 6.206095e-001 -7.841198e-001 0.000000e+000
    outer loop
      vertex   5.968037e-002 -8.394792e-002 0.000000e+000
      vertex   6.799567e-002 -7.736659e-002 2.290000e-001
      vertex   5.968037e-002 -8.394792e-002 2.290000e-001
    endloop
  endfacet
  facet normal 5.366962e-001 -8.437756e-001 0.000000e+000
    outer loop
      vertex   5.073245e-002 -8.963938e-002 0.000000e+000
      vertex   5.968037e-002 -8.394792e-002 2.290000e-001
      vertex   5.073245e-002 -8.963938e-002 2.290000e-001
    endloop
  endfacet
  facet normal 4.470938e-001 -8.944871e-001 -1.395178e-017
    outer loop
      vertex   4.124675e-002 -9.438064e-002 0.000000e+000
      vertex   5.073245e-002 -8.963938e-002 2.290000e-001
      vertex   4.124675e-002 -9.438064e-002 2.290000e-001
    endloop
  endfacet
  facet normal 3.527521e-001 -9.357168e-001 1.674213e-017
    outer loop
      vertex   3.132383e-002 -9.812144e-002 0.000000e+000
      vertex   4.124675e-002 -9.438064e-002 2.290000e-001
      vertex   3.132383e-002 -9.812144e-002 2.290000e-001
    endloop
  endfacet
  facet normal 2.546711e-001 -9.670277e-001 5.022640e-017
    outer loop
      vertex   2.106886e-002 -1.008221e-001 0.000000e+000
      vertex   3.132383e-002 -9.812144e-002 2.290000e-001
      vertex   2.106886e-002 -1.008221e-001 2.290000e-001
    endloop
  endfacet
  facet normal 1.538906e-001 -9.880879e-001 0.000000e+000
    outer loop
      vertex   1.059056e-002 -1.024541e-001 0.000000e+000
      vertex   2.106886e-002 -1.008221e-001 2.290000e-001
      vertex   1.059056e-002 -1.024541e-001 2.290000e-001
    endloop
  endfacet
  facet normal 5.147875e-002 -9.986741e-001 0.000000e+000
    outer loop
      vertex   1.261386e-017 -1.030000e-001 0.000000e+000
      vertex   1.059056e-002 -1.024541e-001 2.290000e-001
      vertex   1.261386e-017 -1.030000e-001 2.290000e-001
    endloop
  endfacet
  facet normal -5.147875e-002 -9.986741e-001 0.000000e+000
    outer loop
      vertex   -1.059056e-002 -1.024541e-001 0.000000e+000
      vertex   1.261386e-017 -1.030000e-001 0.000000e+000
      vertex   1.261386e-017 -1.030000e-001 2.290000e-001
    endloop
  endfacet
  facet normal -3.527521e-001 -9.357168e-001 -1.811478e-017
    outer loop
      vertex   -3.132383e-002 -9.812144e-002 0.000000e+000
      vertex   -3.132383e-002 -9.812144e-002 2.290000e-001
      vertex   -4.124675e-002 -9.438064e-002 0.000000e+000
    endloop
  endfacet
  facet normal -4.470938e-001 -8.944871e-001 1.360177e-017
    outer loop
      vertex   -4.124675e-002 -9.438064e-002 0.000000e+000
      vertex   -4.124675e-002 -9.438064e-002 2.290000e-001
      vertex   -5.073245e-002 -8.963938e-002 0.000000e+000
    endloop
  endfacet
  facet normal -5.366962e-001 -8.437756e-001 0.000000e+000
    outer loop
      vertex   -5.073245e-002 -8.963938e-002 0.000000e+000
      vertex   -5.073245e-002 -8.963938e-002 2.290000e-001
      vertex   -5.968037e-002 -8.394792e-002 0.000000e+000
    endloop
  endfacet
  facet normal -6.206095e-001 -7.841198e-001 0.000000e+000
    outer loop
      vertex   -5.968037e-002 -8.394792e-002 0.000000e+000
      vertex   -5.968037e-002 -8.394792e-002 2.290000e-001
      vertex   -6.799567e-002 -7.736659e-002 0.000000e+000
    endloop
  endfacet
  facet normal -6.979442e-001 -7.161522e-001 0.000000e+000
    outer loop
      vertex   -6.799567e-002 -7.736659e-002 0.000000e+000
      vertex   -6.799567e-002 -7.736659e-002 2.290000e-001
      vertex   -7.559019e-002 -6.996515e-002 0.000000e+000
    endloop
  endfacet
  facet normal -7.678804e-001 -6.405932e-001 2.339338e-017
    outer loop
      vertex   -7.559019e-002 -6.996515e-002 0.000000e+000
      vertex   -7.559019e-002 -6.996515e-002 2.290000e-001
      vertex   -8.238344e-002 -6.182207e-002 0.000000e+000
    endloop
  endfacet
  facet normal -8.296770e-001 -5.582437e-001 1.863761e-018
    outer loop
      vertex   -8.238344e-002 -6.182207e-002 0.000000e+000
      vertex   -8.238344e-002 -6.182207e-002 2.290000e-001
      vertex   -8.830341e-002 -5.302366e-002 0.000000e+000
    endloop
  endfacet
  facet normal -8.826788e-001 -4.699767e-001 -7.156039e-017
    outer loop
      vertex   -8.830341e-002 -5.302366e-002 0.000000e+000
      vertex   -8.830341e-002 -5.302366e-002 2.290000e-001
      vertex   -9.328733e-002 -4.366318e-002 0.000000e+000
    endloop
  endfacet
  facet normal -9.263240e-001 -3.767279e-001 0.000000e+000
    outer loop
      vertex   -9.328733e-002 -4.366318e-002 0.000000e+000
      vertex   -9.328733e-002 -4.366318e-002 2.290000e-001
      vertex   -9.728239e-002 -3.383987e-002 0.000000e+000
    endloop
  endfacet
  facet normal -9.601499e-001 -2.794856e-001 -2.431210e-017
    outer loop
      vertex   -9.728239e-002 -3.383987e-002 0.000000e+000
      vertex   -9.728239e-002 -3.383987e-002 2.290000e-001
      vertex   -1.002462e-001 -2.365784e-002 0.000000e+000
    endloop
  endfacet
  facet normal -9.837980e-001 -1.792808e-001 -2.974185e-017
    outer loop
      vertex   -1.002462e-001 -2.365784e-002 0.000000e+000
      vertex   -1.002462e-001 -2.365784e-002 2.290000e-001
      vertex   -1.021474e-001 -1.322503e-002 0.000000e+000
    endloop
  endfacet
  facet normal -9.970175e-001 -7.717546e-002 1.461551e-017
    outer loop
      vertex   -1.021474e-001 -1.322503e-002 0.000000e+000
      vertex   -1.021474e-001 -1.322503e-002 2.290000e-001
      vertex   -1.029659e-001 -2.652035e-003 0.000000e+000
    endloop
  endfacet
  facet normal -9.996685e-001 2.574791e-002 -6.823715e-017
    outer loop
      vertex   -1.029659e-001 -2.652035e-003 0.000000e+000
      vertex   -1.029659e-001 -2.652035e-003 2.290000e-001
      vertex   -1.026928e-001 7.949073e-003 0.000000e+000
    endloop
  endfacet
  facet normal -9.917227e-001 1.283984e-001 0.000000e+000
    outer loop
      vertex   -1.026928e-001 7.949073e-003 0.000000e+000
      vertex   -1.026928e-001 7.949073e-003 2.290000e-001
      vertex   -1.013312e-001 1.846592e-002 0.000000e+000
    endloop
  endfacet
  facet normal -9.732644e-001 2.296877e-001 -2.087920e-017
    outer loop
      vertex   -1.013312e-001 1.846592e-002 0.000000e+000
      vertex   -1.013312e-001 1.846592e-002 2.290000e-001
      vertex   -9.889544e-002 2.878702e-002 0.000000e+000
    endloop
  endfacet
  facet normal -9.444892e-001 3.285424e-001 4.976706e-017
    outer loop
      vertex   -9.889544e-002 2.878702e-002 0.000000e+000
      vertex   -9.889544e-002 2.878702e-002 2.290000e-001
      vertex   -9.541137e-002 3.880297e-002 0.000000e+000
    endloop
  endfacet
  facet normal -9.057023e-001 4.239144e-001 4.554936e-017
    outer loop
      vertex   -9.541137e-002 3.880297e-002 0.000000e+000
      vertex   -9.541137e-002 3.880297e-002 2.290000e-001
      vertex   -9.091592e-002 4.840760e-002 0.000000e+000
    endloop
  endfacet
  facet normal -8.573146e-001 5.147928e-001 2.063498e-017
    outer loop
      vertex   -9.091592e-002 4.840760e-002 0.000000e+000
      vertex   -9.091592e-002 4.840760e-002 2.290000e-001
      vertex   -8.545673e-002 5.749910e-002 0.000000e+000
    endloop
  endfacet
  facet normal -7.998392e-001 6.002143e-001 7.867506e-017
    outer loop
      vertex   -8.545673e-002 5.749910e-002 0.000000e+000
      vertex   -8.545673e-002 5.749910e-002 2.290000e-001
      vertex   -7.909169e-002 6.598110e-002 0.000000e+000
    endloop
  endfacet
  facet normal -7.338854e-001 6.792733e-001 0.000000e+000
    outer loop
      vertex   -7.909169e-002 6.598110e-002 0.000000e+000
      vertex   -7.909169e-002 6.598110e-002 2.290000e-001
      vertex   -7.188825e-002 7.376368e-002 0.000000e+000
    endloop
  endfacet
  facet normal -6.601521e-001 7.511319e-001 -5.103340e-017
    outer loop
      vertex   -7.188825e-002 7.376368e-002 0.000000e+000
      vertex   -7.188825e-002 7.376368e-002 2.290000e-001
      vertex   -6.392278e-002 8.076434e-002 0.000000e+000
    endloop
  endfacet
  facet normal -5.794211e-001 8.150283e-001 6.557504e-018
    outer loop
      vertex   -6.392278e-002 8.076434e-002 0.000000e+000
      vertex   -6.392278e-002 8.076434e-002 2.290000e-001
      vertex   -5.527971e-002 8.690888e-002 0.000000e+000
    endloop
  endfacet
  facet normal -4.925481e-001 8.702852e-001 -3.085840e-017
    outer loop
      vertex   -5.527971e-002 8.690888e-002 0.000000e+000
      vertex   -5.527971e-002 8.690888e-002 2.290000e-001
      vertex   -4.605066e-002 9.213217e-002 0.000000e+000
    endloop
  endfacet
  facet normal -4.004539e-001 9.163169e-001 5.140106e-018
    outer loop
      vertex   -4.605066e-002 9.213217e-002 0.000000e+000
      vertex   -4.605066e-002 9.213217e-002 2.290000e-001
      vertex   -3.633346e-002 9.637883e-002 0.000000e+000
    endloop
  endfacet
  facet normal -3.041148e-001 9.526354e-001 6.773241e-018
    outer loop
      vertex   -3.633346e-002 9.637883e-002 0.000000e+000
      vertex   -3.633346e-002 9.637883e-002 2.290000e-001
      vertex   -2.623113e-002 9.960386e-002 0.000000e+000
    endloop
  endfacet
  facet normal -2.045521e-001 9.788557e-001 0.000000e+000
    outer loop
      vertex   -2.623113e-002 9.960386e-002 0.000000e+000
      vertex   -2.623113e-002 9.960386e-002 2.290000e-001
      vertex   -1.585073e-002 1.017731e-001 0.000000e+000
    endloop
  endfacet
  facet normal -1.028210e-001 9.946999e-001 2.025116e-017
    outer loop
      vertex   -1.585073e-002 1.017731e-001 0.000000e+000
      vertex   -1.585073e-002 1.017731e-001 2.290000e-001
      vertex   -5.302312e-003 1.028634e-001 0.000000e+000
    endloop
  endfacet
  facet normal -0.000000e+000 1.000000e+000 0.000000e+000
    outer loop
      vertex   -5.302312e-003 1.028634e-001 0.000000e+000
      vertex   -5.302312e-003 1.028634e-001 2.290000e-001
      vertex   5.302312e-003 1.028634e-001 0.000000e+000
    endloop
  endfacet
  facet normal 1.028210e-001 9.946999e-001 -2.103005e-017
    outer loop
      vertex   5.302312e-003 1.028634e-001 0.000000e+000
      vertex   5.302312e-003 1.028634e-001 2.290000e-001
      vertex   1.585073e-002 1.017731e-001 0.000000e+000
    endloop
  endfacet
  facet normal 2.045521e-001 9.788557e-001 -4.028766e-017
    outer loop
      vertex   1.585073e-002 1.017731e-001 0.000000e+000
      vertex   1.585073e-002 1.017731e-001 2.290000e-001
      vertex   2.623113e-002 9.960386e-002 0.000000e+000
    endloop
  endfacet
  facet normal 3.041148e-001 9.526354e-001 -0.000000e+000
    outer loop
      vertex   2.623113e-002 9.960386e-002 0.000000e+000
      vertex   2.623113e-002 9.960386e-002 2.290000e-001
      vertex   3.633346e-002 9.637883e-002 0.000000e+000
    endloop
  endfacet
  facet normal 4.004539e-001 9.163169e-001 -2.940829e-017
    outer loop
      vertex   3.633346e-002 9.637883e-002 0.000000e+000
      vertex   3.633346e-002 9.637883e-002 2.290000e-001
      vertex   4.605066e-002 9.213217e-002 0.000000e+000
    endloop
  endfacet
  facet normal 4.925481e-001 8.702852e-001 -2.188236e-017
    outer loop
      vertex   4.605066e-002 9.213217e-002 0.000000e+000
      vertex   4.605066e-002 9.213217e-002 2.290000e-001
      vertex   5.527971e-002 8.690888e-002 0.000000e+000
    endloop
  endfacet
  facet normal 5.794211e-001 8.150283e-001 1.099945e-017
    outer loop
      vertex   5.527971e-002 8.690888e-002 0.000000e+000
      vertex   5.527971e-002 8.690888e-002 2.290000e-001
      vertex   6.392278e-002 8.076434e-002 0.000000e+000
    endloop
  endfacet
  facet normal 6.601521e-001 7.511319e-001 -2.897928e-017
    outer loop
      vertex   6.392278e-002 8.076434e-002 0.000000e+000
      vertex   6.392278e-002 8.076434e-002 2.290000e-001
      vertex   7.188825e-002 7.376368e-002 0.000000e+000
    endloop
  endfacet
  facet normal 7.338854e-001 6.792733e-001 3.785553e-017
    outer loop
      vertex   7.188825e-002 7.376368e-002 0.000000e+000
      vertex   7.188825e-002 7.376368e-002 2.290000e-001
      vertex   7.909169e-002 6.598110e-002 0.000000e+000
    endloop
  endfacet
  facet normal 7.998392e-001 6.002143e-001 -0.000000e+000
    outer loop
      vertex   7.909169e-002 6.598110e-002 0.000000e+000
      vertex   7.909169e-002 6.598110e-002 2.290000e-001
      vertex   8.545673e-002 5.749910e-002 0.000000e+000
    endloop
  endfacet
  facet normal 8.573146e-001 5.147928e-001 -1.193857e-016
    outer loop
      vertex   8.545673e-002 5.749910e-002 0.000000e+000
      vertex   8.545673e-002 5.749910e-002 2.290000e-001
      vertex   9.091592e-002 4.840760e-002 0.000000e+000
    endloop
  endfacet
  facet normal 9.057023e-001 4.239144e-001 -6.540878e-017
    outer loop
      vertex   9.091592e-002 4.840760e-002 0.000000e+000
      vertex   9.091592e-002 4.840760e-002 2.290000e-001
      vertex   9.541137e-002 3.880297e-002 0.000000e+000
    endloop
  endfacet
  facet normal 9.444892e-001 3.285424e-001 -6.469973e-017
    outer loop
      vertex   9.541137e-002 3.880297e-002 0.000000e+000
      vertex   9.541137e-002 3.880297e-002 2.290000e-001
      vertex   9.889544e-002 2.878702e-002 0.000000e+000
    endloop
  endfacet
  facet normal 9.732644e-001 2.296877e-001 -7.272467e-017
    outer loop
      vertex   9.889544e-002 2.878702e-002 0.000000e+000
      vertex   9.889544e-002 2.878702e-002 2.290000e-001
      vertex   1.013312e-001 1.846592e-002 0.000000e+000
    endloop
  endfacet
  facet normal 9.917227e-001 1.283984e-001 1.167174e-017
    outer loop
      vertex   1.013312e-001 1.846592e-002 0.000000e+000
      vertex   1.013312e-001 1.846592e-002 2.290000e-001
      vertex   1.026928e-001 7.949073e-003 0.000000e+000
    endloop
  endfacet
  facet normal 9.996685e-001 2.574791e-002 -0.000000e+000
    outer loop
      vertex   1.026928e-001 7.949073e-003 0.000000e+000
      vertex   1.026928e-001 7.949073e-003 2.290000e-001
      vertex   1.029659e-001 -2.652035e-003 0.000000e+000
    endloop
  endfacet
  facet normal 9.970175e-001 -7.717546e-002 3.747460e-017
    outer loop
      vertex   1.029659e-001 -2.652035e-003 0.000000e+000
      vertex   1.029659e-001 -2.652035e-003 2.290000e-001
      vertex   1.021474e-001 -1.322503e-002 0.000000e+000
    endloop
  endfacet
  facet normal 9.837980e-001 -1.792808e-001 -3.395224e-017
    outer loop
      vertex   1.021474e-001 -1.322503e-002 0.000000e+000
      vertex   1.021474e-001 -1.322503e-002 2.290000e-001
      vertex   1.002462e-001 -2.365784e-002 0.000000e+000
    endloop
  endfacet
  facet normal 9.601499e-001 -2.794856e-001 1.160913e-017
    outer loop
      vertex   1.002462e-001 -2.365784e-002 0.000000e+000
      vertex   1.002462e-001 -2.365784e-002 2.290000e-001
      vertex   9.728239e-002 -3.383987e-002 0.000000e+000
    endloop
  endfacet
  facet normal 9.263240e-001 -3.767279e-001 1.047610e-017
    outer loop
      vertex   9.728239e-002 -3.383987e-002 0.000000e+000
      vertex   9.728239e-002 -3.383987e-002 2.290000e-001
      vertex   9.328733e-002 -4.366318e-002 0.000000e+000
    endloop
  endfacet
  facet normal 8.826788e-001 -4.699767e-001 0.000000e+000
    outer loop
      vertex   9.328733e-002 -4.366318e-002 0.000000e+000
      vertex   9.328733e-002 -4.366318e-002 2.290000e-001
      vertex   8.830341e-002 -5.302366e-002 0.000000e+000
    endloop
  endfacet
  facet normal 8.296770e-001 -5.582437e-001 3.196675e-017
    outer loop
      vertex   8.830341e-002 -5.302366e-002 0.000000e+000
      vertex   8.830341e-002 -5.302366e-002 2.290000e-001
      vertex   8.238344e-002 -6.182207e-002 0.000000e+000
    endloop
  endfacet
  facet normal 7.678804e-001 -6.405932e-001 -4.678677e-017
    outer loop
      vertex   8.238344e-002 -6.182207e-002 0.000000e+000
      vertex   8.238344e-002 -6.182207e-002 2.290000e-001
      vertex   7.559019e-002 -6.996515e-002 0.000000e+000
    endloop
  endfacet
  facet normal 6.979442e-001 -7.161522e-001 -4.560691e-017
    outer loop
      vertex   7.559019e-002 -6.996515e-002 0.000000e+000
      vertex   7.559019e-002 -6.996515e-002 2.290000e-001
      vertex   6.799567e-002 -7.736659e-002 0.000000e+000
    endloop
  endfacet
  facet normal 6.206095e-001 -7.841198e-001 0.000000e+000
    outer loop
      vertex   6.799567e-002 -7.736659e-002 0.000000e+000
      vertex   6.799567e-002 -7.736659e-002 2.290000e-001
      vertex   5.968037e-002 -8.394792e-002 0.000000e+000
    endloop
  endfacet
  facet normal 5.366962e-001 -8.437756e-001 0.000000e+000
    outer loop
      vertex   5.968037e-002 -8.394792e-002 0.000000e+000
      vertex   5.968037e-002 -8.394792e-002 2.290000e-001
      vertex   5.073245e-002 -8.963938e-002 0.000000e+000
    endloop
  endfacet
  facet normal 4.470938e-001 -8.944871e-001 0.000000e+000
    outer loop
      vertex   5.073245e-002 -8.963938e-002 0.000000e+000
      vertex   5.073245e-002 -8.963938e-002 2.290000e-001
      vertex   4.124675e-002 -9.438064e-002 0.000000e+000
    endloop
  endfacet
  facet normal 3.527521e-001 -9.357168e-001 -5.254252e-017
    outer loop
      vertex   4.124675e-002 -9.438064e-002 0.000000e+000
      vertex   4.124675e-002 -9.438064e-002 2.290000e-001
      vertex   3.132383e-002 -9.812144e-002 0.000000e+000
    endloop
  endfacet
  facet normal 2.546711e-001 -9.670277e-001 -4.586264e-018
    outer loop
      vertex   3.132383e-002 -9.812144e-002 0.000000e+000
      vertex   3.132383e-002 -9.812144e-002 2.290000e-001
      vertex   2.106886e-002 -1.008221e-001 0.000000e+000
    endloop
  endfacet
  facet normal 1.538906e-001 -9.880879e-001 3.030960e-017
    outer loop
      vertex   2.106886e-002 -1.008221e-001 0.000000e+000
      vertex   2.106886e-002 -1.008221e-001 2.290000e-001
      vertex   1.059056e-002 -1.024541e-001 0.000000e+000
    endloop
  endfacet
  facet normal 5.147875e-002 -9.986741e-001 0.000000e+000
    outer loop
      vertex   1.059056e-002 -1.024541e-001 0.000000e+000
      vertex   1.059056e-002 -1.024541e-001 2.290000e-001
      vertex   1.261386e-017 -1.030000e-001 0.000000e+000
    endloop
  endfacet
  facet normal 0.000000e+000 0.000000e+000 -1.000000e+000
    outer loop
      vertex   -1.059056e-002 -1.024541e-001 0.000000e+000
      vertex   -5.302312e-003 1.028634e-001 0.000000e+000
      vertex   1.261386e-017 -1.030000e-001 0.000000e+000
    endloop
  endfacet
  facet normal 0.000000e+000 0.000000e+000 -1.000000e+000
    outer loop
      vertex   -1.059056e-002 -1.024541e-001 0.000000e+000
      vertex   -1.585073e-002 1.017731e-001 0.000000e+000
      vertex   -5.302312e-003 1.028634e-001 0.000000e+000
    endloop
  endfacet
  facet normal 0.000000e+000 0.000000e+000 -1.000000e+000
    outer loop
      vertex   -1.059056e-002 -1.024541e-001 0.000000e+000
      vertex   -2.106886e-002 -1.008221e-001 0.000000e+000
      vertex   -1.585073e-002 1.017731e-001 0.000000e+000
    endloop
  endfacet
  facet normal -0.000000e+000 0.000000e+000 -1.000000e+000
    outer loop
      vertex   -1.585073e-002 1.017731e-001 0.000000e+000
      vertex   -2.106886e-002 -1.008221e-001 0.000000e+000
      vertex   -2.623113e-002 9.960386e-002 0.000000e+000
    endloop
  endfacet
  facet normal -0.000000e+000 -0.000000e+000 -1.000000e+000
    outer loop
      vertex   -2.623113e-002 9.960386e-002 0.000000e+000
      vertex   -2.106886e-002 -1.008221e-001 0.000000e+000
      vertex   -3.132383e-002 -9.812144e-002 0.000000e+000
    endloop
  endfacet
  facet normal -0.000000e+000 -0.000000e+000 -1.000000e+000
    outer loop
      vertex   -3.633346e-002 9.637883e-002 0.000000e+000
      vertex   -3.132383e-002 -9.812144e-002 0.000000e+000
      vertex   -4.124675e-002 -9.438064e-002 0.000000e+000
    endloop
  endfacet
  facet normal -0.000000e+000 -0.000000e+000 -1.000000e+000
    outer loop
      vertex   -4.605066e-002 9.213217e-002 0.000000e+000
      vertex   -4.124675e-002 -9.438064e-002 0.000000e+000
      vertex   -5.073245e-002 -8.963938e-002 0.000000e+000
    endloop
  endfacet
  facet normal -0.000000e+000 -0.000000e+000 -1.000000e+000
    outer loop
      vertex   -5.527971e-002 8.690888e-002 0.000000e+000
      vertex   -5.073245e-002 -8.963938e-002 0.000000e+000
      vertex   -5.968037e-002 -8.394792e-002 0.000000e+000
    endloop
  endfacet
  facet normal -0.000000e+000 -0.000000e+000 -1.000000e+000
    outer loop
      vertex   -6.392278e-002 8.076434e-002 0.000000e+000
      vertex   -5.968037e-002 -8.394792e-002 0.000000e+000
      vertex   -6.799567e-002 -7.736659e-002 0.000000e+000
    endloop
  endfacet
  facet normal -0.000000e+000 -0.000000e+000 -1.000000e+000
    outer loop
      vertex   -7.188825e-002 7.376368e-002 0.000000e+000
      vertex   -6.799567e-002 -7.736659e-002 0.000000e+000
      vertex   -7.559019e-002 -6.996515e-002 0.000000e+000
    endloop
  endfacet
  facet normal -0.000000e+000 -0.000000e+000 -1.000000e+000
    outer loop
      vertex   -7.909169e-002 6.598110e-002 0.000000e+000
      vertex   -7.559019e-002 -6.996515e-002 0.000000e+000
      vertex   -8.238344e-002 -6.182207e-002 0.000000e+000
    endloop
  endfacet
  facet normal -0.000000e+000 -0.000000e+000 -1.000000e+000
    outer loop
      vertex   -8.545673e-002 5.749910e-002 0.000000e+000
      vertex   -8.238344e-002 -6.182207e-002 0.000000e+000
      vertex   -8.830341e-002 -5.302366e-002 0.000000e+000
    endloop
  endfacet
  facet normal -0.000000e+000 -0.000000e+000 -1.000000e+000
    outer loop
      vertex   -9.091592e-002 4.840760e-002 0.000000e+000
      vertex   -8.830341e-002 -5.302366e-002 0.000000e+000
      vertex   -9.328733e-002 -4.366318e-002 0.000000e+000
    endloop
  endfacet
  facet normal -0.000000e+000 -0.000000e+000 -1.000000e+000
    outer loop
      vertex   -9.541137e-002 3.880297e-002 0.000000e+000
      vertex   -9.328733e-002 -4.366318e-002 0.000000e+000
      vertex   -9.728239e-002 -3.383987e-002 0.000000e+000
    endloop
  endfacet
  facet normal -0.000000e+000 -0.000000e+000 -1.000000e+000
    outer loop
      vertex   -9.889544e-002 2.878702e-002 0.000000e+000
      vertex   -9.728239e-002 -3.383987e-002 0.000000e+000
      vertex   -1.002462e-001 -2.365784e-002 0.000000e+000
    endloop
  endfacet
  facet normal -0.000000e+000 -0.000000e+000 -1.000000e+000
    outer loop
      vertex   -1.013312e-001 1.846592e-002 0.000000e+000
      vertex   -1.002462e-001 -2.365784e-002 0.000000e+000
      vertex   -1.021474e-001 -1.322503e-002 0.000000e+000
    endloop
  endfacet
  facet normal -0.000000e+000 -0.000000e+000 -1.000000e+000
    outer loop
      vertex   -1.026928e-001 7.949073e-003 0.000000e+000
      vertex   -1.021474e-001 -1.322503e-002 0.000000e+000
      vertex   -1.029659e-001 -2.652035e-003 0.000000e+000
    endloop
  endfacet
  facet normal 0.000000e+000 -0.000000e+000 -1.000000e+000
    outer loop
      vertex   -1.026928e-001 7.949073e-003 0.000000e+000
      vertex   -1.013312e-001 1.846592e-002 0.000000e+000
      vertex   -1.021474e-001 -1.322503e-002 0.000000e+000
    endloop
  endfacet
  facet normal -0.000000e+000 0.000000e+000 -1.000000e+000
    outer loop
      vertex   -2.623113e-002 9.960386e-002 0.000000e+000
      vertex   -3.132383e-002 -9.812144e-002 0.000000e+000
      vertex   -3.633346e-002 9.637883e-002 0.000000e+000
    endloop
  endfacet
  facet normal -0.000000e+000 0.000000e+000 -1.000000e+000
    outer loop
      vertex   -3.633346e-002 9.637883e-002 0.000000e+000
      vertex   -4.124675e-002 -9.438064e-002 0.000000e+000
      vertex   -4.605066e-002 9.213217e-002 0.000000e+000
    endloop
  endfacet
  facet normal -0.000000e+000 0.000000e+000 -1.000000e+000
    outer loop
      vertex   -4.605066e-002 9.213217e-002 0.000000e+000
      vertex   -5.073245e-002 -8.963938e-002 0.000000e+000
      vertex   -5.527971e-002 8.690888e-002 0.000000e+000
    endloop
  endfacet
  facet normal -0.000000e+000 0.000000e+000 -1.000000e+000
    outer loop
      vertex   -5.527971e-002 8.690888e-002 0.000000e+000
      vertex   -5.968037e-002 -8.394792e-002 0.000000e+000
      vertex   -6.392278e-002 8.076434e-002 0.000000e+000
    endloop
  endfacet
  facet normal -0.000000e+000 0.000000e+000 -1.000000e+000
    outer loop
      vertex   -6.392278e-002 8.076434e-002 0.000000e+000
      vertex   -6.799567e-002 -7.736659e-002 0.000000e+000
      vertex   -7.188825e-002 7.376368e-002 0.000000e+000
    endloop
  endfacet
  facet normal -0.000000e+000 0.000000e+000 -1.000000e+000
    outer loop
      vertex   -7.188825e-002 7.376368e-002 0.000000e+000
      vertex   -7.559019e-002 -6.996515e-002 0.000000e+000
      vertex   -7.909169e-002 6.598110e-002 0.000000e+000
    endloop
  endfacet
  facet normal -0.000000e+000 0.000000e+000 -1.000000e+000
    outer loop
      vertex   -7.909169e-002 6.598110e-002 0.000000e+000
      vertex   -8.238344e-002 -6.182207e-002 0.000000e+000
      vertex   -8.545673e-002 5.749910e-002 0.000000e+000
    endloop
  endfacet
  facet normal -0.000000e+000 0.000000e+000 -1.000000e+000
    outer loop
      vertex   -8.545673e-002 5.749910e-002 0.000000e+000
      vertex   -8.830341e-002 -5.302366e-002 0.000000e+000
      vertex   -9.091592e-002 4.840760e-002 0.000000e+000
    endloop
  endfacet
  facet normal -0.000000e+000 0.000000e+000 -1.000000e+000
    outer loop
      vertex   -9.091592e-002 4.840760e-002 0.000000e+000
      vertex   -9.328733e-002 -4.366318e-002 0.000000e+000
      vertex   -9.541137e-002 3.880297e-002 0.000000e+000
    endloop
  endfacet
  facet normal -0.000000e+000 0.000000e+000 -1.000000e+000
    outer loop
      vertex   -9.541137e-002 3.880297e-002 0.000000e+000
      vertex   -9.728239e-002 -3.383987e-002 0.000000e+000
      vertex   -9.889544e-002 2.878702e-002 0.000000e+000
    endloop
  endfacet
  facet normal -0.000000e+000 0.000000e+000 -1.000000e+000
    outer loop
      vertex   -9.889544e-002 2.878702e-002 0.000000e+000
      vertex   -1.002462e-001 -2.365784e-002 0.000000e+000
      vertex   -1.013312e-001 1.846592e-002 0.000000e+000
    endloop
  endfacet
  facet normal 0.000000e+000 -0.000000e+000 -1.000000e+000
    outer loop
      vertex   -5.302312e-003 1.028634e-001 0.000000e+000
      vertex   5.302312e-003 1.028634e-001 0.000000e+000
      vertex   1.261386e-017 -1.030000e-001 0.000000e+000
    endloop
  endfacet
  facet normal 0.000000e+000 0.000000e+000 -1.000000e+000
    outer loop
      vertex   1.261386e-017 -1.030000e-001 0.000000e+000
      vertex   5.302312e-003 1.028634e-001 0.000000e+000
      vertex   1.059056e-002 -1.024541e-001 0.000000e+000
    endloop
  endfacet
  facet normal 0.000000e+000 0.000000e+000 -1.000000e+000
    outer loop
      vertex   1.059056e-002 -1.024541e-001 0.000000e+000
      vertex   5.302312e-003 1.028634e-001 0.000000e+000
      vertex   1.585073e-002 1.017731e-001 0.000000e+000
    endloop
  endfacet
  facet normal 0.000000e+000 0.000000e+000 -1.000000e+000
    outer loop
      vertex   2.106886e-002 -1.008221e-001 0.000000e+000
      vertex   1.585073e-002 1.017731e-001 0.000000e+000
      vertex   2.623113e-002 9.960386e-002 0.000000e+000
    endloop
  endfacet
  facet normal 0.000000e+000 0.000000e+000 -1.000000e+000
    outer loop
      vertex   3.132383e-002 -9.812144e-002 0.000000e+000
      vertex   2.623113e-002 9.960386e-002 0.000000e+000
      vertex   3.633346e-002 9.637883e-002 0.000000e+000
    endloop
  endfacet
  facet normal 0.000000e+000 0.000000e+000 -1.000000e+000
    outer loop
      vertex   4.124675e-002 -9.438064e-002 0.000000e+000
      vertex   3.633346e-002 9.637883e-002 0.000000e+000
      vertex   4.605066e-002 9.213217e-002 0.000000e+000
    endloop
  endfacet
  facet normal 0.000000e+000 0.000000e+000 -1.000000e+000
    outer loop
      vertex   5.073245e-002 -8.963938e-002 0.000000e+000
      vertex   4.605066e-002 9.213217e-002 0.000000e+000
      vertex   5.527971e-002 8.690888e-002 0.000000e+000
    endloop
  endfacet
  facet normal 0.000000e+000 0.000000e+000 -1.000000e+000
    outer loop
      vertex   5.968037e-002 -8.394792e-002 0.000000e+000
      vertex   5.527971e-002 8.690888e-002 0.000000e+000
      vertex   6.392278e-002 8.076434e-002 0.000000e+000
    endloop
  endfacet
  facet normal 0.000000e+000 0.000000e+000 -1.000000e+000
    outer loop
      vertex   6.799567e-002 -7.736659e-002 0.000000e+000
      vertex   6.392278e-002 8.076434e-002 0.000000e+000
      vertex   7.188825e-002 7.376368e-002 0.000000e+000
    endloop
  endfacet
  facet normal 0.000000e+000 0.000000e+000 -1.000000e+000
    outer loop
      vertex   7.559019e-002 -6.996515e-002 0.000000e+000
      vertex   7.188825e-002 7.376368e-002 0.000000e+000
      vertex   7.909169e-002 6.598110e-002 0.000000e+000
    endloop
  endfacet
  facet normal 0.000000e+000 0.000000e+000 -1.000000e+000
    outer loop
      vertex   8.238344e-002 -6.182207e-002 0.000000e+000
      vertex   7.909169e-002 6.598110e-002 0.000000e+000
      vertex   8.545673e-002 5.749910e-002 0.000000e+000
    endloop
  endfacet
  facet normal 0.000000e+000 0.000000e+000 -1.000000e+000
    outer loop
      vertex   8.830341e-002 -5.302366e-002 0.000000e+000
      vertex   8.545673e-002 5.749910e-002 0.000000e+000
      vertex   9.091592e-002 4.840760e-002 0.000000e+000
    endloop
  endfacet
  facet normal 0.000000e+000 0.000000e+000 -1.000000e+000
    outer loop
      vertex   9.328733e-002 -4.366318e-002 0.000000e+000
      vertex   9.091592e-002 4.840760e-002 0.000000e+000
      vertex   9.541137e-002 3.880297e-002 0.000000e+000
    endloop
  endfacet
  facet normal 0.000000e+000 0.000000e+000 -1.000000e+000
    outer loop
      vertex   9.728239e-002 -3.383987e-002 0.000000e+000
      vertex   9.541137e-002 3.880297e-002 0.000000e+000
      vertex   9.889544e-002 2.878702e-002 0.000000e+000
    endloop
  endfacet
  facet normal 0.000000e+000 0.000000e+000 -1.000000e+000
    outer loop
      vertex   1.002462e-001 -2.365784e-002 0.000000e+000
      vertex   9.889544e-002 2.878702e-002 0.000000e+000
      vertex   1.013312e-001 1.846592e-002 0.000000e+000
    endloop
  endfacet
  facet normal 0.000000e+000 0.000000e+000 -1.000000e+000
    outer loop
      vertex   1.021474e-001 -1.322503e-002 0.000000e+000
      vertex   1.013312e-001 1.846592e-002 0.000000e+000
      vertex   1.026928e-001 7.949073e-003 0.000000e+000
    endloop
  endfacet
  facet normal -0.000000e+000 0.000000e+000 -1.000000e+000
    outer loop
      vertex   1.029659e-001 -2.652035e-003 0.000000e+000
      vertex   1.021474e-001 -1.322503e-002 0.000000e+000
      vertex   1.026928e-001 7.949073e-003 0.000000e+000
    endloop
  endfacet
  facet normal 0.000000e+000 0.000000e+000 -1.000000e+000
    outer loop
      vertex   1.059056e-002 -1.024541e-001 0.000000e+000
      vertex   1.585073e-002 1.017731e-001 0.000000e+000
      vertex   2.106886e-002 -1.008221e-001 0.000000e+000
    endloop
  endfacet
  facet normal 0.000000e+000 0.000000e+000 -1.000000e+000
    outer loop
      vertex   2.106886e-002 -1.008221e-001 0.000000e+000
      vertex   2.623113e-002 9.960386e-002 0.000000e+000
      vertex   3.132383e-002 -9.812144e-002 0.000000e+000
    endloop
  endfacet
  facet normal 0.000000e+000 0.000000e+000 -1.000000e+000
    outer loop
      vertex   3.132383e-002 -9.812144e-002 0.000000e+000
      vertex   3.633346e-002 9.637883e-002 0.000000e+000
      vertex   4.124675e-002 -9.438064e-002 0.000000e+000
    endloop
  endfacet
  facet normal 0.000000e+000 0.000000e+000 -1.000000e+000
    outer loop
      vertex   4.124675e-002 -9.438064e-002 0.000000e+000
      vertex   4.605066e-002 9.213217e-002 0.000000e+000
      vertex   5.073245e-002 -8.963938e-002 0.000000e+000
    endloop
  endfacet
  facet normal 0.000000e+000 0.000000e+000 -1.000000e+000
    outer loop
      vertex   5.073245e-002 -8.963938e-002 0.000000e+000
      vertex   5.527971e-002 8.690888e-002 0.000000e+000
      vertex   5.968037e-002 -8.394792e-002 0.000000e+000
    endloop
  endfacet
  facet normal 0.000000e+000 0.000000e+000 -1.000000e+000
    outer loop
      vertex   5.968037e-002 -8.394792e-002 0.000000e+000
      vertex   6.392278e-002 8.076434e-002 0.000000e+000
      vertex   6.799567e-002 -7.736659e-002 0.000000e+000
    endloop
  endfacet
  facet normal 0.000000e+000 0.000000e+000 -1.000000e+000
    outer loop
      vertex   6.799567e-002 -7.736659e-002 0.000000e+000
      vertex   7.188825e-002 7.376368e-002 0.000000e+000
      vertex   7.559019e-002 -6.996515e-002 0.000000e+000
    endloop
  endfacet
  facet normal 0.000000e+000 0.000000e+000 -1.000000e+000
    outer loop
      vertex   7.559019e-002 -6.996515e-002 0.000000e+000
      vertex   7.909169e-002 6.598110e-002 0.000000e+000
      vertex   8.238344e-002 -6.182207e-002 0.000000e+000
    endloop
  endfacet
  facet normal 0.000000e+000 0.000000e+000 -1.000000e+000
    outer loop
      vertex   8.238344e-002 -6.182207e-002 0.000000e+000
      vertex   8.545673e-002 5.749910e-002 0.000000e+000
      vertex   8.830341e-002 -5.302366e-002 0.000000e+000
    endloop
  endfacet
  facet normal 0.000000e+000 0.000000e+000 -1.000000e+000
    outer loop
      vertex   8.830341e-002 -5.302366e-002 0.000000e+000
      vertex   9.091592e-002 4.840760e-002 0.000000e+000
      vertex   9.328733e-002 -4.366318e-002 0.000000e+000
    endloop
  endfacet
  facet normal 0.000000e+000 0.000000e+000 -1.000000e+000
    outer loop
      vertex   9.328733e-002 -4.366318e-002 0.000000e+000
      vertex   9.541137e-002 3.880297e-002 0.000000e+000
      vertex   9.728239e-002 -3.383987e-002 0.000000e+000
    endloop
  endfacet
  facet normal 0.000000e+000 0.000000e+000 -1.000000e+000
    outer loop
      vertex   9.728239e-002 -3.383987e-002 0.000000e+000
      vertex   9.889544e-002 2.878702e-002 0.000000e+000
      vertex   1.002462e-001 -2.365784e-002 0.000000e+000
    endloop
  endfacet
  facet normal 0.000000e+000 0.000000e+000 -1.000000e+000
    outer loop
      vertex   1.002462e-001 -2.365784e-002 0.000000e+000
      vertex   1.013312e-001 1.846592e-002 0.000000e+000
      vertex   1.021474e-001 -1.322503e-002 0.000000e+000
    endloop
  endfacet
  facet normal 0.000000e+000 0.000000e+000 1.000000e+000
    outer loop
      vertex   1.059056e-002 -1.024541e-001 2.290000e-001
      vertex   5.302312e-003 1.028634e-001 2.290000e-001
      vertex   1.261386e-017 -1.030000e-001 2.290000e-001
    endloop
  endfacet
  facet normal 0.000000e+000 -0.000000e+000 1.000000e+000
    outer loop
      vertex   1.059056e-002 -1.024541e-001 2.290000e-001
      vertex   1.585073e-002 1.017731e-001 2.290000e-001
      vertex   5.302312e-003 1.028634e-001 2.290000e-001
    endloop
  endfacet
  facet normal 0.000000e+000 -0.000000e+000 1.000000e+000
    outer loop
      vertex   1.059056e-002 -1.024541e-001 2.290000e-001
      vertex   2.106886e-002 -1.008221e-001 2.290000e-001
      vertex   1.585073e-002 1.017731e-001 2.290000e-001
    endloop
  endfacet
  facet normal -0.000000e+000 0.000000e+000 1.000000e+000
    outer loop
      vertex   1.585073e-002 1.017731e-001 2.290000e-001
      vertex   2.106886e-002 -1.008221e-001 2.290000e-001
      vertex   2.623113e-002 9.960386e-002 2.290000e-001
    endloop
  endfacet
  facet normal -0.000000e+000 0.000000e+000 1.000000e+000
    outer loop
      vertex   2.623113e-002 9.960386e-002 2.290000e-001
      vertex   2.106886e-002 -1.008221e-001 2.290000e-001
      vertex   3.132383e-002 -9.812144e-002 2.290000e-001
    endloop
  endfacet
  facet normal -0.000000e+000 0.000000e+000 1.000000e+000
    outer loop
      vertex   3.633346e-002 9.637883e-002 2.290000e-001
      vertex   3.132383e-002 -9.812144e-002 2.290000e-001
      vertex   4.124675e-002 -9.438064e-002 2.290000e-001
    endloop
  endfacet
  facet normal -0.000000e+000 0.000000e+000 1.000000e+000
    outer loop
      vertex   4.605066e-002 9.213217e-002 2.290000e-001
      vertex   4.124675e-002 -9.438064e-002 2.290000e-001
      vertex   5.073245e-002 -8.963938e-002 2.290000e-001
    endloop
  endfacet
  facet normal -0.000000e+000 0.000000e+000 1.000000e+000
    outer loop
      vertex   5.527971e-002 8.690888e-002 2.290000e-001
      vertex   5.073245e-002 -8.963938e-002 2.290000e-001
      vertex   5.968037e-002 -8.394792e-002 2.290000e-001
    endloop
  endfacet
  facet normal -0.000000e+000 0.000000e+000 1.000000e+000
    outer loop
      vertex   6.392278e-002 8.076434e-002 2.290000e-001
      vertex   5.968037e-002 -8.394792e-002 2.290000e-001
      vertex   6.799567e-002 -7.736659e-002 2.290000e-001
    endloop
  endfacet
  facet normal -0.000000e+000 0.000000e+000 1.000000e+000
    outer loop
      vertex   7.188825e-002 7.376368e-002 2.290000e-001
      vertex   6.799567e-002 -7.736659e-002 2.290000e-001
      vertex   7.559019e-002 -6.996515e-002 2.290000e-001
    endloop
  endfacet
  facet normal -0.000000e+000 0.000000e+000 1.000000e+000
    outer loop
      vertex   7.909169e-002 6.598110e-002 2.290000e-001
      vertex   7.559019e-002 -6.996515e-002 2.290000e-001
      vertex   8.238344e-002 -6.182207e-002 2.290000e-001
    endloop
  endfacet
  facet normal -0.000000e+000 0.000000e+000 1.000000e+000
    outer loop
      vertex   8.545673e-002 5.749910e-002 2.290000e-001
      vertex   8.238344e-002 -6.182207e-002 2.290000e-001
      vertex   8.830341e-002 -5.302366e-002 2.290000e-001
    endloop
  endfacet
  facet normal -0.000000e+000 0.000000e+000 1.000000e+000
    outer loop
      vertex   9.091592e-002 4.840760e-002 2.290000e-001
      vertex   8.830341e-002 -5.302366e-002 2.290000e-001
      vertex   9.328733e-002 -4.366318e-002 2.290000e-001
    endloop
  endfacet
  facet normal -0.000000e+000 0.000000e+000 1.000000e+000
    outer loop
      vertex   9.541137e-002 3.880297e-002 2.290000e-001
      vertex   9.328733e-002 -4.366318e-002 2.290000e-001
      vertex   9.728239e-002 -3.383987e-002 2.290000e-001
    endloop
  endfacet
  facet normal -0.000000e+000 0.000000e+000 1.000000e+000
    outer loop
      vertex   9.889544e-002 2.878702e-002 2.290000e-001
      vertex   9.728239e-002 -3.383987e-002 2.290000e-001
      vertex   1.002462e-001 -2.365784e-002 2.290000e-001
    endloop
  endfacet
  facet normal -0.000000e+000 0.000000e+000 1.000000e+000
    outer loop
      vertex   1.013312e-001 1.846592e-002 2.290000e-001
      vertex   1.002462e-001 -2.365784e-002 2.290000e-001
      vertex   1.021474e-001 -1.322503e-002 2.290000e-001
    endloop
  endfacet
  facet normal -0.000000e+000 0.000000e+000 1.000000e+000
    outer loop
      vertex   1.026928e-001 7.949073e-003 2.290000e-001
      vertex   1.021474e-001 -1.322503e-002 2.290000e-001
      vertex   1.029659e-001 -2.652035e-003 2.290000e-001
    endloop
  endfacet
  facet normal 0.000000e+000 0.000000e+000 1.000000e+000
    outer loop
      vertex   1.026928e-001 7.949073e-003 2.290000e-001
      vertex   1.013312e-001 1.846592e-002 2.290000e-001
      vertex   1.021474e-001 -1.322503e-002 2.290000e-001
    endloop
  endfacet
  facet normal -0.000000e+000 0.000000e+000 1.000000e+000
    outer loop
      vertex   2.623113e-002 9.960386e-002 2.290000e-001
      vertex   3.132383e-002 -9.812144e-002 2.290000e-001
      vertex   3.633346e-002 9.637883e-002 2.290000e-001
    endloop
  endfacet
  facet normal -0.000000e+000 0.000000e+000 1.000000e+000
    outer loop
      vertex   3.633346e-002 9.637883e-002 2.290000e-001
      vertex   4.124675e-002 -9.438064e-002 2.290000e-001
      vertex   4.605066e-002 9.213217e-002 2.290000e-001
    endloop
  endfacet
  facet normal -0.000000e+000 0.000000e+000 1.000000e+000
    outer loop
      vertex   4.605066e-002 9.213217e-002 2.290000e-001
      vertex   5.073245e-002 -8.963938e-002 2.290000e-001
      vertex   5.527971e-002 8.690888e-002 2.290000e-001
    endloop
  endfacet
  facet normal -0.000000e+000 0.000000e+000 1.000000e+000
    outer loop
      vertex   5.527971e-002 8.690888e-002 2.290000e-001
      vertex   5.968037e-002 -8.394792e-002 2.290000e-001
      vertex   6.392278e-002 8.076434e-002 2.290000e-001
    endloop
  endfacet
  facet normal -0.000000e+000 0.000000e+000 1.000000e+000
    outer loop
      vertex   6.392278e-002 8.076434e-002 2.290000e-001
      vertex   6.799567e-002 -7.736659e-002 2.290000e-001
      vertex   7.188825e-002 7.376368e-002 2.290000e-001
    endloop
  endfacet
  facet normal -0.000000e+000 0.000000e+000 1.000000e+000
    outer loop
      vertex   7.188825e-002 7.376368e-002 2.290000e-001
      vertex   7.559019e-002 -6.996515e-002 2.290000e-001
      vertex   7.909169e-002 6.598110e-002 2.290000e-001
    endloop
  endfacet
  facet normal -0.000000e+000 0.000000e+000 1.000000e+000
    outer loop
      vertex   7.909169e-002 6.598110e-002 2.290000e-001
      vertex   8.238344e-002 -6.182207e-002 2.290000e-001
      vertex   8.545673e-002 5.749910e-002 2.290000e-001
    endloop
  endfacet
  facet normal -0.000000e+000 0.000000e+000 1.000000e+000
    outer loop
      vertex   8.545673e-002 5.749910e-002 2.290000e-001
      vertex   8.830341e-002 -5.302366e-002 2.290000e-001
      vertex   9.091592e-002 4.840760e-002 2.290000e-001
    endloop
  endfacet
  facet normal -0.000000e+000 0.000000e+000 1.000000e+000
    outer loop
      vertex   9.091592e-002 4.840760e-002 2.290000e-001
      vertex   9.328733e-002 -4.366318e-002 2.290000e-001
      vertex   9.541137e-002 3.880297e-002 2.290000e-001
    endloop
  endfacet
  facet normal -0.000000e+000 0.000000e+000 1.000000e+000
    outer loop
      vertex   9.541137e-002 3.880297e-002 2.290000e-001
      vertex   9.728239e-002 -3.383987e-002 2.290000e-001
      vertex   9.889544e-002 2.878702e-002 2.290000e-001
    endloop
  endfacet
  facet normal -0.000000e+000 0.000000e+000 1.000000e+000
    outer loop
      vertex   9.889544e-002 2.878702e-002 2.290000e-001
      vertex   1.002462e-001 -2.365784e-002 2.290000e-001
      vertex   1.013312e-001 1.846592e-002 2.290000e-001
    endloop
  endfacet
  facet normal 0.000000e+000 0.000000e+000 1.000000e+000
    outer loop
      vertex   5.302312e-003 1.028634e-001 2.290000e-001
      vertex   -5.302312e-003 1.028634e-001 2.290000e-001
      vertex   1.261386e-017 -1.030000e-001 2.290000e-001
    endloop
  endfacet
  facet normal 0.000000e+000 0.000000e+000 1.000000e+000
    outer loop
      vertex   1.261386e-017 -1.030000e-001 2.290000e-001
      vertex   -5.302312e-003 1.028634e-001 2.290000e-001
      vertex   -1.059056e-002 -1.024541e-001 2.290000e-001
    endloop
  endfacet
  facet normal 0.000000e+000 -0.000000e+000 1.000000e+000
    outer loop
      vertex   -1.059056e-002 -1.024541e-001 2.290000e-001
      vertex   -5.302312e-003 1.028634e-001 2.290000e-001
      vertex   -1.585073e-002 1.017731e-001 2.290000e-001
    endloop
  endfacet
  facet normal 0.000000e+000 -0.000000e+000 1.000000e+000
    outer loop
      vertex   -2.106886e-002 -1.008221e-001 2.290000e-001
      vertex   -1.585073e-002 1.017731e-001 2.290000e-001
      vertex   -2.623113e-002 9.960386e-002 2.290000e-001
    endloop
  endfacet
  facet normal 0.000000e+000 -0.000000e+000 1.000000e+000
    outer loop
      vertex   -3.132383e-002 -9.812144e-002 2.290000e-001
      vertex   -2.623113e-002 9.960386e-002 2.290000e-001
      vertex   -3.633346e-002 9.637883e-002 2.290000e-001
    endloop
  endfacet
  facet normal 0.000000e+000 -0.000000e+000 1.000000e+000
    outer loop
      vertex   -4.124675e-002 -9.438064e-002 2.290000e-001
      vertex   -3.633346e-002 9.637883e-002 2.290000e-001
      vertex   -4.605066e-002 9.213217e-002 2.290000e-001
    endloop
  endfacet
  facet normal 0.000000e+000 -0.000000e+000 1.000000e+000
    outer loop
      vertex   -5.073245e-002 -8.963938e-002 2.290000e-001
      vertex   -4.605066e-002 9.213217e-002 2.290000e-001
      vertex   -5.527971e-002 8.690888e-002 2.290000e-001
    endloop
  endfacet
  facet normal 0.000000e+000 -0.000000e+000 1.000000e+000
    outer loop
      vertex   -5.968037e-002 -8.394792e-002 2.290000e-001
      vertex   -5.527971e-002 8.690888e-002 2.290000e-001
      vertex   -6.392278e-002 8.076434e-002 2.290000e-001
    endloop
  endfacet
  facet normal 0.000000e+000 -0.000000e+000 1.000000e+000
    outer loop
      vertex   -6.799567e-002 -7.736659e-002 2.290000e-001
      vertex   -6.392278e-002 8.076434e-002 2.290000e-001
      vertex   -7.188825e-002 7.376368e-002 2.290000e-001
    endloop
  endfacet
  facet normal 0.000000e+000 -0.000000e+000 1.000000e+000
    outer loop
      vertex   -7.559019e-002 -6.996515e-002 2.290000e-001
      vertex   -7.188825e-002 7.376368e-002 2.290000e-001
      vertex   -7.909169e-002 6.598110e-002 2.290000e-001
    endloop
  endfacet
  facet normal 0.000000e+000 -0.000000e+000 1.000000e+000
    outer loop
      vertex   -8.238344e-002 -6.182207e-002 2.290000e-001
      vertex   -7.909169e-002 6.598110e-002 2.290000e-001
      vertex   -8.545673e-002 5.749910e-002 2.290000e-001
    endloop
  endfacet
  facet normal 0.000000e+000 -0.000000e+000 1.000000e+000
    outer loop
      vertex   -8.830341e-002 -5.302366e-002 2.290000e-001
      vertex   -8.545673e-002 5.749910e-002 2.290000e-001
      vertex   -9.091592e-002 4.840760e-002 2.290000e-001
    endloop
  endfacet
  facet normal 0.000000e+000 -0.000000e+000 1.000000e+000
    outer loop
      vertex   -9.328733e-002 -4.366318e-002 2.290000e-001
      vertex   -9.091592e-002 4.840760e-002 2.290000e-001
      vertex   -9.541137e-002 3.880297e-002 2.290000e-001
    endloop
  endfacet
  facet normal 0.000000e+000 -0.000000e+000 1.000000e+000
    outer loop
      vertex   -9.728239e-002 -3.383987e-002 2.290000e-001
      vertex   -9.541137e-002 3.880297e-002 2.290000e-001
      vertex   -9.889544e-002 2.878702e-002 2.290000e-001
    endloop
  endfacet
  facet normal 0.000000e+000 -0.000000e+000 1.000000e+000
    outer loop
      vertex   -1.002462e-001 -2.365784e-002 2.290000e-001
      vertex   -9.889544e-002 2.878702e-002 2.290000e-001
      vertex   -1.013312e-001 1.846592e-002 2.290000e-001
    endloop
  endfacet
  facet normal 0.000000e+000 -0.000000e+000 1.000000e+000
    outer loop
      vertex   -1.021474e-001 -1.322503e-002 2.290000e-001
      vertex   -1.013312e-001 1.846592e-002 2.290000e-001
      vertex   -1.026928e-001 7.949073e-003 2.290000e-001
    endloop
  endfacet
  facet normal -0.000000e+000 -0.000000e+000 1.000000e+000
    outer loop
      vertex   -1.029659e-001 -2.652035e-003 2.290000e-001
      vertex   -1.021474e-001 -1.322503e-002 2.290000e-001
      vertex   -1.026928e-001 7.949073e-003 2.290000e-001
    endloop
  endfacet
  facet normal 0.000000e+000 0.000000e+000 1.000000e+000
    outer loop
      vertex   -1.059056e-002 -1.024541e-001 2.290000e-001
      vertex   -1.585073e-002 1.017731e-001 2.290000e-001
      vertex   -2.106886e-002 -1.008221e-001 2.290000e-001
    endloop
  endfacet
  facet normal 0.000000e+000 0.000000e+000 1.000000e+000
    outer loop
      vertex   -2.106886e-002 -1.008221e-001 2.290000e-001
      vertex   -2.623113e-002 9.960386e-002 2.290000e-001
      vertex   -3.132383e-002 -9.812144e-002 2.290000e-001
    endloop
  endfacet
  facet normal 0.000000e+000 0.000000e+000 1.000000e+000
    outer loop
      vertex   -3.132383e-002 -9.812144e-002 2.290000e-001
      vertex   -3.633346e-002 9.637883e-002 2.290000e-001
      vertex   -4.124675e-002 -9.438064e-002 2.290000e-001
    endloop
  endfacet
  facet normal 0.000000e+000 0.000000e+000 1.000000e+000
    outer loop
      vertex   -4.124675e-002 -9.438064e-002 2.290000e-001
      vertex   -4.605066e-002 9.213217e-002 2.290000e-001
      vertex   -5.073245e-002 -8.963938e-002 2.290000e-001
    endloop
  endfacet
  facet normal 0.000000e+000 0.000000e+000 1.000000e+000
    outer loop
      vertex   -5.073245e-002 -8.963938e-002 2.290000e-001
      vertex   -5.527971e-002 8.690888e-002 2.290000e-001
      vertex   -5.968037e-002 -8.394792e-002 2.290000e-001
    endloop
  endfacet
  facet normal 0.000000e+000 0.000000e+000 1.000000e+000
    outer loop
      vertex   -5.968037e-002 -8.394792e-002 2.290000e-001
      vertex   -6.392278e-002 8.076434e-002 2.290000e-001
      vertex   -6.799567e-002 -7.736659e-002 2.290000e-001
    endloop
  endfacet
  facet normal 0.000000e+000 0.000000e+000 1.000000e+000
    outer loop
      vertex   -6.799567e-002 -7.736659e-002 2.290000e-001
      vertex   -7.188825e-002 7.376368e-002 2.290000e-001
      vertex   -7.559019e-002 -6.996515e-002 2.290000e-001
    endloop
  endfacet
  facet normal 0.000000e+000 0.000000e+000 1.000000e+000
    outer loop
      vertex   -7.559019e-002 -6.996515e-002 2.290000e-001
      vertex   -7.909169e-002 6.598110e-002 2.290000e-001
      vertex   -8.238344e-002 -6.182207e-002 2.290000e-001
    endloop
  endfacet
  facet normal 0.000000e+000 0.000000e+000 1.000000e+000
    outer loop
      vertex   -8.238344e-002 -6.182207e-002 2.290000e-001
      vertex   -8.545673e-002 5.749910e-002 2.290000e-001
      vertex   -8.830341e-002 -5.302366e-002 2.290000e-001
    endloop
  endfacet
  facet normal 0.000000e+000 0.000000e+000 1.000000e+000
    outer loop
      vertex   -8.830341e-002 -5.302366e-002 2.290000e-001
      vertex   -9.091592e-002 4.840760e-002 2.290000e-001
      vertex   -9.328733e-002 -4.366318e-002 2.290000e-001
    endloop
  endfacet
  facet normal 0.000000e+000 0.000000e+000 1.000000e+000
    outer loop
      vertex   -9.328733e-002 -4.366318e-002 2.290000e-001
      vertex   -9.541137e-002 3.880297e-002 2.290000e-001
      vertex   -9.728239e-002 -3.383987e-002 2.290000e-001
    endloop
  endfacet
  facet normal 0.000000e+000 0.000000e+000 1.000000e+000
    outer loop
      vertex   -9.728239e-002 -3.383987e-002 2.290000e-001
      vertex   -9.889544e-002 2.878702e-002 2.290000e-001
      vertex   -1.002462e-001 -2.365784e-002 2.290000e-001
    endloop
  endfacet
  facet normal 0.000000e+000 0.000000e+000 1.000000e+000
    outer loop
      vertex   -1.002462e-001 -2.365784e-002 2.290000e-001
      vertex   -1.013312e-001 1.846592e-002 2.290000e-001
      vertex   -1.021474e-001 -1.322503e-002 2.290000e-001
    endloop
  endfacet
  facet normal -7.185103e-001 6.955163e-001 0.000000e+000
    outer loop
      vertex   8.875286e-002 -5.508475e-002 2.290000e-001
      vertex   8.875286e-002 -5.508475e-002 0.000000e+000
      vertex   5.675910e-002 -8.813623e-002 2.290000e-001
    endloop
  endfacet
  facet normal -7.185103e-001 6.955163e-001 0.000000e+000
    outer loop
      vertex   5.675910e-002 -8.813623e-002 2.290000e-001
      vertex   8.875286e-002 -5.508475e-002 0.000000e+000
      vertex   5.675910e-002 -8.813623e-002 0.000000e+000
    endloop
  endfacet
  facet normal 0.000000e+000 0.000000e+000 1.000000e+000
    outer loop
      vertex   1.303000e-001 -9.530229e-002 2.290000e-001
      vertex   8.875286e-002 -5.508475e-002 2.290000e-001
      vertex   9.830624e-002 -1.283538e-001 2.290000e-001
    endloop
  endfacet
  facet normal 0.000000e+000 0.000000e+000 1.000000e+000
    outer loop
      vertex   9.830624e-002 -1.283538e-001 2.290000e-001
      vertex   8.875286e-002 -5.508475e-002 2.290000e-001
      vertex   5.675910e-002 -8.813623e-002 2.290000e-001
    endloop
  endfacet
  facet normal 7.185103e-001 -6.955163e-001 0.000000e+000
    outer loop
      vertex   1.303000e-001 -9.530229e-002 0.000000e+000
      vertex   1.303000e-001 -9.530229e-002 2.290000e-001
      vertex   9.830624e-002 -1.283538e-001 0.000000e+000
    endloop
  endfacet
  facet normal 7.185103e-001 -6.955163e-001 0.000000e+000
    outer loop
      vertex   9.830624e-002 -1.283538e-001 0.000000e+000
      vertex   1.303000e-001 -9.530229e-002 2.290000e-001
      vertex   9.830624e-002 -1.283538e-001 2.290000e-001
    endloop
  endfacet
  facet normal -0.000000e+000 -0.000000e+000 -1.000000e+000
    outer loop
      vertex   8.875286e-002 -5.508475e-002 0.000000e+000
      vertex   1.303000e-001 -9.530229e-002 0.000000e+000
      vertex   5.675910e-002 -8.813623e-002 0.000000e+000
    endloop
  endfacet
  facet normal 0.000000e+000 -0.000000e+000 -1.000000e+000
    outer loop
      vertex   5.675910e-002 -8.813623e-002 0.000000e+000
      vertex   1.303000e-001 -9.530229e-002 0.000000e+000
      vertex   9.830624e-002 -1.283538e-001 0.000000e+000
    endloop
  endfacet
  facet normal -6.955163e-001 -7.185103e-001 0.000000e+000
    outer loop
      vertex   5.675910e-002 -8.813623e-002 0.000000e+000
      vertex   9.830624e-002 -1.283538e-001 0.000000e+000
      vertex   5.675910e-002 -8.813623e-002 2.290000e-001
    endloop
  endfacet
  facet normal -6.955163e-001 -7.185103e-001 0.000000e+000
    outer loop
      vertex   5.675910e-002 -8.813623e-002 2.290000e-001
      vertex   9.830624e-002 -1.283538e-001 0.000000e+000
      vertex   9.830624e-002 -1.283538e-001 2.290000e-001
    endloop
  endfacet
  facet normal 6.955163e-001 7.185103e-001 0.000000e+000
    outer loop
      vertex   1.303000e-001 -9.530229e-002 0.000000e+000
      vertex   8.875286e-002 -5.508475e-002 0.000000e+000
      vertex   1.303000e-001 -9.530229e-002 2.290000e-001
    endloop
  endfacet
  facet normal 6.955163e-001 7.185103e-001 -0.000000e+000
    outer loop
      vertex   1.303000e-001 -9.530229e-002 2.290000e-001
      vertex   8.875286e-002 -5.508475e-002 0.000000e+000
      vertex   8.875286e-002 -5.508475e-002 2.290000e-001
    endloop
  endfacet
endsolid
